{
classes = (
{
automatic = 1;
code = "A Aacute Abreve Acircumflex Adieresis Agrave Amacron Aogonek Aring Aringacute Atilde AE AEacute B C Cacute Ccaron Ccedilla Ccircumflex Cdotaccent D Eth Dcaron Dcroat E Eacute Ebreve Ecaron Ecircumflex Edieresis Edotaccent Egrave Emacron Eogonek F G Gbreve Gcircumflex Gdotaccent H Hbar Hcircumflex I IJ Iacute Ibreve Icircumflex Idieresis Idotaccent Igrave Imacron Iogonek Itilde J Jcircumflex K L Lacute Lcaron Ldot Lslash M N Nacute Ncaron Eng Ntilde O Oacute Obreve Ocircumflex Odieresis Ograve Ohungarumlaut Omacron Oslash Oslashacute Otilde OE P Thorn Q R Racute Rcaron S Sacute Scaron Scedilla Scircumflex T Tbar Tcaron U Uacute Ubreve Ucircumflex Udieresis Ugrave Uhungarumlaut Umacron Uogonek Uring Utilde V W Wacute Wcircumflex Wdieresis Wgrave X Y Yacute Ycircumflex Ydieresis Ygrave Z Zacute Zcaron Zdotaccent uni0122 uni0136 uni013B uni0145 uni0156 uni0162 Delta Omega";
name = Uppercase;
},
{
code = "k-deva k_ss-deva kh-deva g-deva gh-deva ng-deva ng_k-deva c-deva c_r-deva ch-deva j-deva j_j-deva j_ny-deva j_r-deva jh-deva ny-deva tt-deva tth-deva dd-deva ddh-deva nn-deva t-deva t_t-deva t_r-deva th-deva d-deva dh-deva n-deva nnn-deva p-deva ph-deva b-deva b_r-deva bh-deva m-deva y-deva rr-deva l-deva ll-deva lll-deva v-deva sh-deva sh_r-deva ss-deva s-deva h-deva q-deva khh-deva ghh-deva z-deva f-deva sh-deva.loclMAR jh-deva.loclNEP sh-deva.ss02";
name = DevaHalfforms;
},
{
code = "ka-deva kha-deva ga-deva gha-deva nga-deva ca-deva cha-deva ja-deva jha-deva nya-deva tta-deva ttha-deva dda-deva ddha-deva nna-deva ta-deva tha-deva da-deva dha-deva na-deva nnna-deva pa-deva pha-deva ba-deva bha-deva ma-deva ya-deva ra-deva rra-deva la-deva lla-deva llla-deva va-deva sha-deva ssa-deva sa-deva ha-deva qa-deva khha-deva ghha-deva za-deva dddha-deva rha-deva fa-deva yya-deva zha-deva jjya-deva gga-deva jja-deva ddda-deva bba-deva ha-deva.alt la-deva.loclMAR sha-deva.loclMAR jha-deva.loclNEP zha-deva.loclNEP";
name = DevaFullforms;

glyphs = (
{
glyphname = A;
lastChange = "2014-11-26 20:43:10 +0000";
layers = (
{
layerId = "06DA83F7-7F04-4345-A73D-275D0ED9D5E5";
name = Regular;
paths = (
{
closed = 1;
nodes = (
"631 0 LINE",
"378 708 LINE",
"258 708 LINE",
"14 0 LINE",
"111 0 LINE",
"181 205 LINE",
"464 205 LINE",
"537 0 LINE"
);
},
{
closed = 1;
nodes = (
"210 290 LINE",
"317 609 LINE",
"323 609 LINE",
"434 290 LINE"
);
}
);
width = 644;
},
{
layerId = "6322FA20-8F24-49FB-9B55-AB1214B5D5A0";
name = Bold;
paths = (
{
closed = 1;
nodes = (
"675 0 LINE",
"439 709 LINE",
"237 709 LINE",
"7 0 LINE",
"157 0 LINE",
"215 182 LINE",
"467 182 LINE",
"527 0 LINE"
);
},
{
closed = 1;
nodes = (
"249 295 LINE",
"336 578 LINE",
"343 578 LINE",
"432 295 LINE"
);
}
);
width = 681;
}
);
leftKerningGroup = A;
rightKerningGroup = A;
unicode = 0041;
},
{
glyphname = Aacute;
lastChange = "2014-11-26 20:43:10 +0000";
layers = (
{
layerId = "06DA83F7-7F04-4345-A73D-275D0ED9D5E5";
name = Regular;
paths = (
{
closed = 1;
nodes = (
"405 959 LINE",
"272 795 LINE",
"309 761 LINE",
"465 897 LINE"
);
},
{
closed = 1;
nodes = (
"631 0 LINE",
"378 708 LINE",
"258 708 LINE",
"14 0 LINE",
"111 0 LINE",
"181 205 LINE",
"464 205 LINE",
"537 0 LINE"
);
},
{
closed = 1;
nodes = (
"210 290 LINE",
"317 609 LINE",
"323 609 LINE",
"434 290 LINE"
);
}
);
width = 644;
},
{
layerId = "6322FA20-8F24-49FB-9B55-AB1214B5D5A0";
name = Bold;
paths = (
{
closed = 1;
nodes = (
"427 965 LINE",
"271 804 LINE",
"312 754 LINE",
"492 879 LINE"
);
},
{
closed = 1;
nodes = (
"675 0 LINE",
"439 709 LINE",
"237 709 LINE",
"7 0 LINE",
"157 0 LINE",
"215 182 LINE",
"467 182 LINE",
"527 0 LINE"
);
},
{
closed = 1;
nodes = (
"249 295 LINE",
"336 578 LINE",
"343 578 LINE",
"432 295 LINE"
);
}
);
width = 681;
}
);
leftKerningGroup = A;
rightKerningGroup = A;
unicode = 00C1;
},
{
glyphname = Abreve;
lastChange = "2014-11-26 20:43:10 +0000";
layers = (
{
layerId = "06DA83F7-7F04-4345-A73D-275D0ED9D5E5";
name = Regular;
paths = (
{
closed = 1;
nodes = (
"401 901 LINE",
"401 861 OFFCURVE",
"368 832 OFFCURVE",
"321 832 CURVE SMOOTH",
"273 832 OFFCURVE",
"242 859 OFFCURVE",
"242 901 CURVE",
"178 901 LINE",
"178 821 OFFCURVE",
"235 767 OFFCURVE",
"321 767 CURVE SMOOTH",
"407 767 OFFCURVE",
"465 821 OFFCURVE",
"465 901 CURVE"
);
},
{
closed = 1;
nodes = (
"631 0 LINE",
"378 708 LINE",
"258 708 LINE",
"14 0 LINE",
"111 0 LINE",
"181 205 LINE",
"464 205 LINE",
"537 0 LINE"
);
},
{
closed = 1;
nodes = (
"210 290 LINE",
"317 609 LINE",
"323 609 LINE",
"434 290 LINE"
);
}
);
width = 644;
},
{
layerId = "6322FA20-8F24-49FB-9B55-AB1214B5D5A0";
name = Bold;
paths = (
{
closed = 1;
nodes = (
"413 902 LINE",
"413 863 OFFCURVE",
"384 836 OFFCURVE",
"340 836 CURVE SMOOTH",
"295 836 OFFCURVE",
"268 861 OFFCURVE",
"268 902 CURVE",
"183 902 LINE",
"183 814 OFFCURVE",
"244 757 OFFCURVE",
"340 757 CURVE SMOOTH",
"436 757 OFFCURVE",
"498 814 OFFCURVE",
"498 902 CURVE"
);
},
{
closed = 1;
nodes = (
"675 0 LINE",
"439 709 LINE",
"237 709 LINE",
"7 0 LINE",
"157 0 LINE",
"215 182 LINE",
"467 182 LINE",
"527 0 LINE"
);
},
{
closed = 1;
nodes = (
"249 295 LINE",
"336 578 LINE",
"343 578 LINE",
"432 295 LINE"
);
}
);
width = 681;
}
);
leftKerningGroup = A;
rightKerningGroup = A;
unicode = 0102;
},
{
glyphname = Acircumflex;
lastChange = "2014-11-26 20:43:10 +0000";
layers = (
{
layerId = "06DA83F7-7F04-4345-A73D-275D0ED9D5E5";
name = Regular;
paths = (
{
closed = 1;
nodes = (
"471 795 LINE",
"338 929 LINE",
"301 929 LINE",
"168 795 LINE",
"205 761 LINE",
"319 849 LINE",
"434 761 LINE"
);
},
{
closed = 1;
nodes = (
"631 0 LINE",
"378 708 LINE",
"258 708 LINE",
"14 0 LINE",
"111 0 LINE",
"181 205 LINE",
"464 205 LINE",
"537 0 LINE"
);
},
{
closed = 1;
nodes = (
"210 290 LINE",
"317 609 LINE",
"323 609 LINE",
"434 290 LINE"
);
}
);
width = 644;
},
{
layerId = "6322FA20-8F24-49FB-9B55-AB1214B5D5A0";
name = Bold;
paths = (
{
closed = 1;
nodes = (
"511 801 LINE",
"355 942 LINE",
"324 942 LINE",
"168 801 LINE",
"209 751 LINE",
"339 838 LINE",
"470 751 LINE"
);
},
{
closed = 1;
nodes = (
"675 0 LINE",
"439 709 LINE",
"237 709 LINE",
"7 0 LINE",
"157 0 LINE",
"215 182 LINE",
"467 182 LINE",
"527 0 LINE"
);
},
{
closed = 1;
nodes = (
"249 295 LINE",
"336 578 LINE",
"343 578 LINE",
"432 295 LINE"
);
}
);
width = 681;
}
);
leftKerningGroup = A;
rightKerningGroup = A;
unicode = 00C2;
},
{
glyphname = Adieresis;
lastChange = "2014-11-26 20:43:10 +0000";
layers = (
{
layerId = "06DA83F7-7F04-4345-A73D-275D0ED9D5E5";
name = Regular;
paths = (
{
closed = 1;
nodes = (
"275 890 LINE",
"182 890 LINE",
"182 797 LINE",
"275 797 LINE"
);
},
{
closed = 1;
nodes = (
"456 890 LINE",
"364 890 LINE",
"364 797 LINE",
"456 797 LINE"
);
},
{
closed = 1;
nodes = (
"631 0 LINE",
"378 708 LINE",
"258 708 LINE",
"14 0 LINE",
"111 0 LINE",
"181 205 LINE",
"464 205 LINE",
"537 0 LINE"
);
},
{
closed = 1;
nodes = (
"210 290 LINE",
"317 609 LINE",
"323 609 LINE",
"434 290 LINE"
);
}
);
width = 644;
},
{
layerId = "6322FA20-8F24-49FB-9B55-AB1214B5D5A0";
name = Bold;
paths = (
{
closed = 1;
nodes = (
"297 901 LINE",
"175 901 LINE",
"175 783 LINE",
"297 783 LINE"
);
},
{
closed = 1;
nodes = (
"503 901 LINE",
"382 901 LINE",
"382 783 LINE",
"503 783 LINE"
);
},
{
closed = 1;
nodes = (
"675 0 LINE",
"439 709 LINE",
"237 709 LINE",
"7 0 LINE",
"157 0 LINE",
"215 182 LINE",
"467 182 LINE",
"527 0 LINE"
);
},
{
closed = 1;
nodes = (
"249 295 LINE",
"336 578 LINE",
"343 578 LINE",
"432 295 LINE"
);
}
);
width = 681;
}
);
leftKerningGroup = A;
rightKerningGroup = A;
unicode = 00C4;
},
{
glyphname = Agrave;
lastChange = "2014-11-26 20:43:10 +0000";
layers = (
{
layerId = "06DA83F7-7F04-4345-A73D-275D0ED9D5E5";
name = Regular;
paths = (
{
closed = 1;
nodes = (
"351 795 LINE",
"218 959 LINE",
"158 897 LINE",
"314 761 LINE"
);
},
{
closed = 1;
nodes = (
"631 0 LINE",
"378 708 LINE",
"258 708 LINE",
"14 0 LINE",
"111 0 LINE",
"181 205 LINE",
"464 205 LINE",
"537 0 LINE"
);
},
{
closed = 1;
nodes = (
"210 290 LINE",
"317 609 LINE",
"323 609 LINE",
"434 290 LINE"
);
}
);
width = 644;
},
{
layerId = "6322FA20-8F24-49FB-9B55-AB1214B5D5A0";
name = Bold;
paths = (
{
closed = 1;
nodes = (
"383 804 LINE",
"227 965 LINE",
"162 879 LINE",
"342 754 LINE"
);
},
{
closed = 1;
nodes = (
"675 0 LINE",
"439 709 LINE",
"237 709 LINE",
"7 0 LINE",
"157 0 LINE",
"215 182 LINE",
"467 182 LINE",
"527 0 LINE"
);
},
{
closed = 1;
nodes = (
"249 295 LINE",
"336 578 LINE",
"343 578 LINE",
"432 295 LINE"
);
}
);
width = 681;
}
);
leftKerningGroup = A;
rightKerningGroup = A;
unicode = 00C0;
},
{
glyphname = Amacron;
lastChange = "2014-11-26 20:43:10 +0000";
layers = (
{
layerId = "06DA83F7-7F04-4345-A73D-275D0ED9D5E5";
name = Regular;
paths = (
{
closed = 1;
nodes = (
"473 878 LINE",
"169 878 LINE",
"169 808 LINE",
"473 808 LINE"
);
},
{
closed = 1;
nodes = (
"631 0 LINE",
"378 708 LINE",
"258 708 LINE",
"14 0 LINE",
"111 0 LINE",
"181 205 LINE",
"464 205 LINE",
"537 0 LINE"
);
},
{
closed = 1;
nodes = (
"210 290 LINE",
"317 609 LINE",
"323 609 LINE",
"434 290 LINE"
);
}
);
width = 644;
},
{
layerId = "6322FA20-8F24-49FB-9B55-AB1214B5D5A0";
name = Bold;
paths = (
{
closed = 1;
nodes = (
"505 886 LINE",
"175 886 LINE",
"175 793 LINE",
"505 793 LINE"
);
},
{
closed = 1;
nodes = (
"675 0 LINE",
"439 709 LINE",
"237 709 LINE",
"7 0 LINE",
"157 0 LINE",
"215 182 LINE",
"467 182 LINE",
"527 0 LINE"
);
},
{
closed = 1;
nodes = (
"249 295 LINE",
"336 578 LINE",
"343 578 LINE",
"432 295 LINE"
);
}
);
width = 681;
}
);
leftKerningGroup = A;
rightKerningGroup = A;
unicode = 0100;
},
{
glyphname = Aogonek;
lastChange = "2014-11-26 20:43:10 +0000";
layers = (
{
layerId = "06DA83F7-7F04-4345-A73D-275D0ED9D5E5";
name = Regular;
paths = (
{
closed = 1;
nodes = (
"438 -198 OFFCURVE",
"487 -225 OFFCURVE",
"534 -225 CURVE SMOOTH",
"572 -225 OFFCURVE",
"599 -215 OFFCURVE",
"629 -199 CURVE",
"615 -159 LINE",
"600 -165 OFFCURVE",
"583 -169 OFFCURVE",
"567 -169 CURVE SMOOTH",
"543 -169 OFFCURVE",
"521 -154 OFFCURVE",
"521 -121 CURVE SMOOTH",
"521 -67 OFFCURVE",
"566 -35 OFFCURVE",
"626 0 CURVE",
"631 0 LINE",
"378 708 LINE",
"258 708 LINE",
"14 0 LINE",
"111 0 LINE",
"181 205 LINE",
"464 205 LINE",
"537 0 LINE",
"484 -21 OFFCURVE",
"438 -77 OFFCURVE",
"438 -132 CURVE SMOOTH"
);
},
{
closed = 1;
nodes = (
"320 609 LINE",
"433 290 LINE",
"210 290 LINE"
);
}
);
width = 644;
},
{
layerId = "6322FA20-8F24-49FB-9B55-AB1214B5D5A0";
name = Bold;
paths = (
{
closed = 1;
nodes = (
"426 -195 OFFCURVE",
"473 -225 OFFCURVE",
"528 -225 CURVE SMOOTH",
"574 -225 OFFCURVE",
"608 -214 OFFCURVE",
"649 -192 CURVE",
"631 -141 LINE",
"616 -148 OFFCURVE",
"598 -152 OFFCURVE",
"583 -152 CURVE SMOOTH",
"560 -152 OFFCURVE",
"542 -139 OFFCURVE",
"542 -111 CURVE SMOOTH",
"542 -66 OFFCURVE",
"579 -30 OFFCURVE",
"642 0 CURVE",
"672 0 LINE",
"435 709 LINE",
"234 709 LINE",
"4 0 LINE",
"154 0 LINE",
"211 182 LINE",
"465 182 LINE",
"524 0 LINE",
"470 -22 OFFCURVE",
"426 -77 OFFCURVE",
"426 -131 CURVE SMOOTH"
);
},
{
closed = 1;
nodes = (
"336 591 LINE",
"431 295 LINE",
"243 295 LINE"
);
}
);
width = 675;
}
);
leftKerningGroup = A;
rightKerningGroup = A;
unicode = 0104;
},
{
glyphname = Aring;
lastChange = "2014-11-26 20:43:10 +0000";
layers = (
{
layerId = "06DA83F7-7F04-4345-A73D-275D0ED9D5E5";
name = Regular;
paths = (
{
closed = 1;
nodes = (
"247 1020 OFFCURVE",
"186 961 OFFCURVE",
"186 891 CURVE SMOOTH",
"186 821 OFFCURVE",
"247 762 OFFCURVE",
"320 762 CURVE SMOOTH",
"393 762 OFFCURVE",
"454 821 OFFCURVE",
"454 891 CURVE SMOOTH",
"454 961 OFFCURVE",
"393 1020 OFFCURVE",
"320 1020 CURVE SMOOTH"
);
},
{
closed = 1;
nodes = (
"355 954 OFFCURVE",
"383 926 OFFCURVE",
"383 891 CURVE SMOOTH",
"383 856 OFFCURVE",
"355 827 OFFCURVE",
"320 827 CURVE SMOOTH",
"285 827 OFFCURVE",
"256 856 OFFCURVE",
"256 891 CURVE SMOOTH",
"256 926 OFFCURVE",
"285 954 OFFCURVE",
"320 954 CURVE SMOOTH"
);
},
{
closed = 1;
nodes = (
"631 0 LINE",
"378 708 LINE",
"258 708 LINE",
"14 0 LINE",
"111 0 LINE",
"181 205 LINE",
"464 205 LINE",
"537 0 LINE"
);
},
{
closed = 1;
nodes = (
"210 290 LINE",
"317 609 LINE",
"323 609 LINE",
"434 290 LINE"
);
}
);
width = 644;
},
{
layerId = "6322FA20-8F24-49FB-9B55-AB1214B5D5A0";
name = Bold;
paths = (
{
closed = 1;
nodes = (
"263 1022 OFFCURVE",
"200 961 OFFCURVE",
"200 889 CURVE SMOOTH",
"200 817 OFFCURVE",
"263 756 OFFCURVE",
"339 756 CURVE SMOOTH",
"414 756 OFFCURVE",
"477 817 OFFCURVE",
"477 889 CURVE SMOOTH",
"477 961 OFFCURVE",
"414 1022 OFFCURVE",
"339 1022 CURVE SMOOTH"
);
},
{
closed = 1;
nodes = (
"373 946 OFFCURVE",
"396 921 OFFCURVE",
"396 889 CURVE SMOOTH",
"396 857 OFFCURVE",
"372 830 OFFCURVE",
"339 830 CURVE SMOOTH",
"305 830 OFFCURVE",
"280 857 OFFCURVE",
"280 889 CURVE SMOOTH",
"280 921 OFFCURVE",
"304 946 OFFCURVE",
"339 946 CURVE SMOOTH"
);
},
{
closed = 1;
nodes = (
"675 0 LINE",
"439 709 LINE",
"237 709 LINE",
"7 0 LINE",
"157 0 LINE",
"215 182 LINE",
"467 182 LINE",
"527 0 LINE"
);
},
{
closed = 1;
nodes = (
"249 295 LINE",
"336 578 LINE",
"343 578 LINE",
"432 295 LINE"
);
}
);
width = 681;
}
);
leftKerningGroup = A;
rightKerningGroup = A;
unicode = 00C5;
},
{
glyphname = Aringacute;
lastChange = "2014-11-26 20:43:10 +0000";
layers = (
{
layerId = "06DA83F7-7F04-4345-A73D-275D0ED9D5E5";
name = Regular;
paths = (
{
closed = 1;
nodes = (
"395 762 OFFCURVE",
"456 821 OFFCURVE",
"456 891 CURVE SMOOTH",
"456 951 OFFCURVE",
"412 1002 OFFCURVE",
"353 1016 CURVE",
"405 1061 LINE",
"345 1123 LINE",
"237 990 LINE",
"207 966 OFFCURVE",
"188 930 OFFCURVE",
"188 891 CURVE SMOOTH",
"188 821 OFFCURVE",
"249 762 OFFCURVE",
"322 762 CURVE SMOOTH"
);
},
{
closed = 1;
nodes = (
"385 856 OFFCURVE",
"357 827 OFFCURVE",
"322 827 CURVE SMOOTH",
"287 827 OFFCURVE",
"258 856 OFFCURVE",
"258 891 CURVE SMOOTH",
"258 926 OFFCURVE",
"287 954 OFFCURVE",
"322 954 CURVE SMOOTH",
"357 954 OFFCURVE",
"385 926 OFFCURVE",
"385 891 CURVE SMOOTH"
);
},
{
closed = 1;
nodes = (
"631 0 LINE",
"378 708 LINE",
"258 708 LINE",
"14 0 LINE",
"111 0 LINE",
"181 205 LINE",
"464 205 LINE",
"537 0 LINE"
);
},
{
closed = 1;
nodes = (
"434 290 LINE",
"210 290 LINE",
"317 609 LINE",
"323 609 LINE"
);
}
);
width = 644;
},
{
layerId = "6322FA20-8F24-49FB-9B55-AB1214B5D5A0";
name = Bold;
paths = (
{
closed = 1;
nodes = (
"416 752 OFFCURVE",
"479 813 OFFCURVE",
"479 886 CURVE SMOOTH",
"479 943 OFFCURVE",
"439 993 OFFCURVE",
"386 1012 CURVE",
"444 1052 LINE",
"382 1119 LINE",
"263 996 LINE",
"226 971 OFFCURVE",
"202 931 OFFCURVE",
"202 886 CURVE SMOOTH",
"202 813 OFFCURVE",
"265 752 OFFCURVE",
"341 752 CURVE SMOOTH"
);
},
{
closed = 1;
nodes = (
"307 827 OFFCURVE",
"282 854 OFFCURVE",
"282 885 CURVE SMOOTH",
"282 918 OFFCURVE",
"306 943 OFFCURVE",
"341 943 CURVE SMOOTH",
"375 943 OFFCURVE",
"398 918 OFFCURVE",
"398 885 CURVE SMOOTH",
"398 854 OFFCURVE",
"374 827 OFFCURVE",
"341 827 CURVE SMOOTH"
);
},
{
closed = 1;
nodes = (
"675 0 LINE",
"439 709 LINE",
"237 709 LINE",
"7 0 LINE",
"157 0 LINE",
"215 182 LINE",
"467 182 LINE",
"527 0 LINE"
);
},
{
closed = 1;
nodes = (
"432 295 LINE",
"249 295 LINE",
"336 578 LINE",
"343 578 LINE"
);
}
);
width = 681;
}
);
leftKerningGroup = A;
rightKerningGroup = A;
unicode = 01FA;
},
{
glyphname = Atilde;
lastChange = "2014-11-26 20:43:10 +0000";
layers = (
{
layerId = "06DA83F7-7F04-4345-A73D-275D0ED9D5E5";
name = Regular;
paths = (
{
closed = 1;
nodes = (
"180 912 OFFCURVE",
"136 865 OFFCURVE",
"136 793 CURVE",
"200 793 LINE",
"200 824 OFFCURVE",
"219 843 OFFCURVE",
"248 843 CURVE SMOOTH",
"300 843 OFFCURVE",
"312 784 OFFCURVE",
"388 784 CURVE SMOOTH",
"453 784 OFFCURVE",
"496 831 OFFCURVE",
"496 903 CURVE",
"432 903 LINE",
"432 873 OFFCURVE",
"416 854 OFFCURVE",
"391 854 CURVE SMOOTH",
"335 854 OFFCURVE",
"327 912 OFFCURVE",
"249 912 CURVE SMOOTH"
);
},
{
closed = 1;
nodes = (
"631 0 LINE",
"378 708 LINE",
"258 708 LINE",
"14 0 LINE",
"111 0 LINE",
"181 205 LINE",
"464 205 LINE",
"537 0 LINE"
);
},
{
closed = 1;
nodes = (
"210 290 LINE",
"317 609 LINE",
"323 609 LINE",
"434 290 LINE"
);
}
);
width = 644;
},
{
layerId = "6322FA20-8F24-49FB-9B55-AB1214B5D5A0";
name = Bold;
paths = (
{
closed = 1;
nodes = (
"187 927 OFFCURVE",
"138 873 OFFCURVE",
"138 785 CURVE",
"223 785 LINE",
"223 821 OFFCURVE",
"241 842 OFFCURVE",
"269 842 CURVE SMOOTH",
"315 842 OFFCURVE",
"335 774 OFFCURVE",
"412 774 CURVE SMOOTH",
"487 774 OFFCURVE",
"536 830 OFFCURVE",
"536 916 CURVE",
"452 916 LINE",
"452 882 OFFCURVE",
"436 860 OFFCURVE",
"411 860 CURVE SMOOTH",
"355 860 OFFCURVE",
"347 927 OFFCURVE",
"265 927 CURVE SMOOTH"
);
},
{
closed = 1;
nodes = (
"675 0 LINE",
"439 709 LINE",
"237 709 LINE",
"7 0 LINE",
"157 0 LINE",
"215 182 LINE",
"467 182 LINE",
"527 0 LINE"
);
},
{
closed = 1;
nodes = (
"249 295 LINE",
"336 578 LINE",
"343 578 LINE",
"432 295 LINE"
);
}
);
width = 681;
}
);
leftKerningGroup = A;
rightKerningGroup = A;
unicode = 00C3;
},
{
glyphname = AE;
lastChange = "2014-11-26 20:43:10 +0000";
layers = (
{
layerId = "06DA83F7-7F04-4345-A73D-275D0ED9D5E5";
name = Regular;
paths = (
{
closed = 1;
nodes = (
"913 83 LINE",
"586 83 LINE",
"586 330 LINE",
"869 330 LINE",
"869 412 LINE",
"586 412 LINE",
"586 627 LINE",
"902 627 LINE",
"902 708 LINE",
"423 708 LINE",
"14 0 LINE",
"116 0 LINE",
"236 208 LINE",
"491 208 LINE",
"491 0 LINE",
"913 0 LINE"
);
},
{
closed = 1;
nodes = (
"491 288 LINE",
"282 288 LINE",
"491 649 LINE"
);
}
);
width = 948;
},
{
layerId = "6322FA20-8F24-49FB-9B55-AB1214B5D5A0";
name = Bold;
paths = (
{
closed = 1;
nodes = (
"947 111 LINE",
"645 111 LINE",
"645 311 LINE",
"911 311 LINE",
"911 420 LINE",
"645 420 LINE",
"645 599 LINE",
"938 599 LINE",
"938 709 LINE",
"393 709 LINE",
"4 0 LINE",
"159 0 LINE",
"258 184 LINE",
"493 184 LINE",
"493 0 LINE",
"947 0 LINE"
);
},
{
closed = 1;
nodes = (
"493 292 LINE",
"316 292 LINE",
"493 622 LINE"
);
}
);
width = 984;
}
);
leftKerningGroup = AE;
unicode = 00C6;
},
{
glyphname = AEacute;
lastChange = "2014-11-26 20:43:10 +0000";
layers = (
{
layerId = "06DA83F7-7F04-4345-A73D-275D0ED9D5E5";
name = Regular;
paths = (
{
closed = 1;
nodes = (
"592 761 LINE",
"748 897 LINE",
"688 959 LINE",
"555 795 LINE"
);
},
{
closed = 1;
nodes = (
"913 83 LINE",
"586 83 LINE",
"586 330 LINE",
"869 330 LINE",
"869 412 LINE",
"586 412 LINE",
"586 627 LINE",
"902 627 LINE",
"902 708 LINE",
"423 708 LINE",
"14 0 LINE",
"116 0 LINE",
"236 208 LINE",
"491 208 LINE",
"491 0 LINE",
"913 0 LINE"
);
},
{
closed = 1;
nodes = (
"491 288 LINE",
"282 288 LINE",
"491 649 LINE"
);
}
);
width = 948;
},
{
layerId = "6322FA20-8F24-49FB-9B55-AB1214B5D5A0";
name = Bold;
paths = (
{
closed = 1;
nodes = (
"588 754 LINE",
"768 879 LINE",
"703 965 LINE",
"547 804 LINE"
);
},
{
closed = 1;
nodes = (
"947 111 LINE",
"645 111 LINE",
"645 311 LINE",
"911 311 LINE",
"911 420 LINE",
"645 420 LINE",
"645 599 LINE",
"938 599 LINE",
"938 709 LINE",
"393 709 LINE",
"4 0 LINE",
"159 0 LINE",
"258 184 LINE",
"493 184 LINE",
"493 0 LINE",
"947 0 LINE"
);
},
{
closed = 1;
nodes = (
"493 292 LINE",
"316 292 LINE",
"493 622 LINE"
);
}
);
width = 984;
}
);
leftKerningGroup = AE;
unicode = 01FC;
},
{
glyphname = B;
lastChange = "2014-11-26 20:43:10 +0000";
layers = (
{
layerId = "06DA83F7-7F04-4345-A73D-275D0ED9D5E5";
name = Regular;
paths = (
{
closed = 1;
nodes = (
"463 375 LINE",
"528 401 OFFCURVE",
"560 449 OFFCURVE",
"560 520 CURVE SMOOTH",
"560 642 OFFCURVE",
"475 708 OFFCURVE",
"317 708 CURVE SMOOTH",
"93 708 LINE",
"93 0 LINE",
"346 0 LINE SMOOTH",
"501 0 OFFCURVE",
"589 76 OFFCURVE",
"589 209 CURVE SMOOTH",
"589 289 OFFCURVE",
"545 344 OFFCURVE",
"463 370 CURVE"
);
},
{
closed = 1;
nodes = (
"189 408 LINE",
"189 623 LINE",
"317 623 LINE SMOOTH",
"413 623 OFFCURVE",
"460 589 OFFCURVE",
"460 520 CURVE SMOOTH",
"460 445 OFFCURVE",
"412 408 OFFCURVE",
"317 408 CURVE SMOOTH"
);
},
{
closed = 1;
nodes = (
"189 85 LINE",
"189 323 LINE",
"331 323 LINE SMOOTH",
"436 323 OFFCURVE",
"489 285 OFFCURVE",
"489 209 CURVE SMOOTH",
"489 129 OFFCURVE",
"438 85 OFFCURVE",
"346 85 CURVE SMOOTH"
);
}
);
width = 634;
},
{
layerId = "6322FA20-8F24-49FB-9B55-AB1214B5D5A0";
name = Bold;
paths = (
{
closed = 1;
nodes = (
"486 374 LINE",
"557 400 OFFCURVE",
"593 450 OFFCURVE",
"593 522 CURVE SMOOTH",
"593 641 OFFCURVE",
"498 709 OFFCURVE",
"332 709 CURVE SMOOTH",
"81 709 LINE",
"81 0 LINE",
"352 0 LINE SMOOTH",
"521 0 OFFCURVE",
"617 75 OFFCURVE",
"617 204 CURVE SMOOTH",
"617 284 OFFCURVE",
"570 341 OFFCURVE",
"486 368 CURVE"
);
},
{
closed = 1;
nodes = (
"224 417 LINE",
"224 600 LINE",
"324 600 LINE SMOOTH",
"403 600 OFFCURVE",
"442 570 OFFCURVE",
"442 512 CURVE SMOOTH",
"442 449 OFFCURVE",
"402 417 OFFCURVE",
"324 417 CURVE SMOOTH"
);
},
{
closed = 1;
nodes = (
"224 109 LINE",
"224 311 LINE",
"334 311 LINE SMOOTH",
"419 311 OFFCURVE",
"464 278 OFFCURVE",
"464 214 CURVE SMOOTH",
"464 147 OFFCURVE",
"420 109 OFFCURVE",
"344 109 CURVE SMOOTH"
);
}
);
width = 652;
}
);
rightKerningGroup = B;
unicode = 0042;
},
{
glyphname = C;
lastChange = "2014-11-26 20:43:10 +0000";
layers = (
{
layerId = "06DA83F7-7F04-4345-A73D-275D0ED9D5E5";
name = Regular;
paths = (
{
closed = 1;
nodes = (
"173 716 OFFCURVE",
"48 582 OFFCURVE",
"48 356 CURVE SMOOTH",
"48 121 OFFCURVE",
"164 -7 OFFCURVE",
"377 -7 CURVE SMOOTH",
"449 -7 OFFCURVE",
"532 12 OFFCURVE",
"597 43 CURVE",
"562 125 LINE",
"503 98 OFFCURVE",
"439 83 OFFCURVE",
"381 83 CURVE SMOOTH",
"232 83 OFFCURVE",
"148 181 OFFCURVE",
"148 356 CURVE SMOOTH",
"148 529 OFFCURVE",
"233 626 OFFCURVE",
"384 626 CURVE SMOOTH",
"439 626 OFFCURVE",
"490 612 OFFCURVE",
"552 579 CURVE",
"592 657 LINE",
"530 695 OFFCURVE",
"456 716 OFFCURVE",
"384 716 CURVE SMOOTH"
);
}
);
width = 618;
},
{
layerId = "6322FA20-8F24-49FB-9B55-AB1214B5D5A0";
name = Bold;
paths = (
{
closed = 1;
nodes = (
"165 718 OFFCURVE",
"37 582 OFFCURVE",
"37 354 CURVE SMOOTH",
"37 121 OFFCURVE",
"159 -8 OFFCURVE",
"380 -8 CURVE SMOOTH",
"455 -8 OFFCURVE",
"526 8 OFFCURVE",
"600 41 CURVE",
"563 153 LINE",
"504 128 OFFCURVE",
"452 117 OFFCURVE",
"400 117 CURVE SMOOTH",
"265 117 OFFCURVE",
"194 200 OFFCURVE",
"194 357 CURVE SMOOTH",
"194 512 OFFCURVE",
"266 595 OFFCURVE",
"400 595 CURVE SMOOTH",
"448 595 OFFCURVE",
"493 584 OFFCURVE",
"549 557 CURVE",
"594 663 LINE",
"535 698 OFFCURVE",
"457 718 OFFCURVE",
"382 718 CURVE SMOOTH"
);
}
);
width = 615;
}
);
leftKerningGroup = C;
rightKerningGroup = C;
unicode = 0043;
},
{
glyphname = Cacute;
lastChange = "2014-11-26 20:43:10 +0000";
layers = (
{
layerId = "06DA83F7-7F04-4345-A73D-275D0ED9D5E5";
name = Regular;
paths = (
{
closed = 1;
nodes = (
"435 959 LINE",
"302 795 LINE",
"339 761 LINE",
"495 897 LINE"
);
},
{
closed = 1;
nodes = (
"173 716 OFFCURVE",
"48 582 OFFCURVE",
"48 356 CURVE SMOOTH",
"48 121 OFFCURVE",
"164 -7 OFFCURVE",
"377 -7 CURVE SMOOTH",
"449 -7 OFFCURVE",
"532 12 OFFCURVE",
"597 43 CURVE",
"562 125 LINE",
"503 98 OFFCURVE",
"439 83 OFFCURVE",
"381 83 CURVE SMOOTH",
"232 83 OFFCURVE",
"148 181 OFFCURVE",
"148 356 CURVE SMOOTH",
"148 529 OFFCURVE",
"233 626 OFFCURVE",
"384 626 CURVE SMOOTH",
"439 626 OFFCURVE",
"490 612 OFFCURVE",
"552 579 CURVE",
"592 657 LINE",
"530 695 OFFCURVE",
"456 716 OFFCURVE",
"384 716 CURVE SMOOTH"
);
}
);
width = 618;
},
{
layerId = "6322FA20-8F24-49FB-9B55-AB1214B5D5A0";
name = Bold;
paths = (
{
closed = 1;
nodes = (
"438 965 LINE",
"282 804 LINE",
"323 754 LINE",
"503 879 LINE"
);
},
{
closed = 1;
nodes = (
"165 718 OFFCURVE",
"37 582 OFFCURVE",
"37 354 CURVE SMOOTH",
"37 121 OFFCURVE",
"159 -8 OFFCURVE",
"380 -8 CURVE SMOOTH",
"455 -8 OFFCURVE",
"526 8 OFFCURVE",
"600 41 CURVE",
"563 153 LINE",
"504 128 OFFCURVE",
"452 117 OFFCURVE",
"400 117 CURVE SMOOTH",
"265 117 OFFCURVE",
"194 200 OFFCURVE",
"194 357 CURVE SMOOTH",
"194 512 OFFCURVE",
"266 595 OFFCURVE",
"400 595 CURVE SMOOTH",
"448 595 OFFCURVE",
"493 584 OFFCURVE",
"549 557 CURVE",
"594 663 LINE",
"535 698 OFFCURVE",
"457 718 OFFCURVE",
"382 718 CURVE SMOOTH"
);
}
);
width = 615;
}
);
leftKerningGroup = C;
rightKerningGroup = C;
unicode = 0106;
},
{
glyphname = Ccaron;
lastChange = "2014-11-26 20:43:10 +0000";
layers = (
{
layerId = "06DA83F7-7F04-4345-A73D-275D0ED9D5E5";
name = Regular;
paths = (
{
closed = 1;
nodes = (
"504 905 LINE",
"467 939 LINE",
"352 851 LINE",
"238 939 LINE",
"201 905 LINE",
"334 771 LINE",
"371 771 LINE"
);
},
{
closed = 1;
nodes = (
"173 716 OFFCURVE",
"48 582 OFFCURVE",
"48 356 CURVE SMOOTH",
"48 121 OFFCURVE",
"164 -7 OFFCURVE",
"377 -7 CURVE SMOOTH",
"449 -7 OFFCURVE",
"532 12 OFFCURVE",
"597 43 CURVE",
"562 125 LINE",
"503 98 OFFCURVE",
"439 83 OFFCURVE",
"381 83 CURVE SMOOTH",
"232 83 OFFCURVE",
"148 181 OFFCURVE",
"148 356 CURVE SMOOTH",
"148 529 OFFCURVE",
"233 626 OFFCURVE",
"384 626 CURVE SMOOTH",
"439 626 OFFCURVE",
"490 612 OFFCURVE",
"552 579 CURVE",
"592 657 LINE",
"530 695 OFFCURVE",
"456 716 OFFCURVE",
"384 716 CURVE SMOOTH"
);
}
);
width = 618;
},
{
layerId = "6322FA20-8F24-49FB-9B55-AB1214B5D5A0";
name = Bold;
paths = (
{
closed = 1;
nodes = (
"523 899 LINE",
"482 949 LINE",
"351 862 LINE",
"221 949 LINE",
"180 899 LINE",
"336 758 LINE",
"367 758 LINE"
);
},
{
closed = 1;
nodes = (
"165 718 OFFCURVE",
"37 582 OFFCURVE",
"37 354 CURVE SMOOTH",
"37 121 OFFCURVE",
"159 -8 OFFCURVE",
"380 -8 CURVE SMOOTH",
"455 -8 OFFCURVE",
"526 8 OFFCURVE",
"600 41 CURVE",
"563 153 LINE",
"504 128 OFFCURVE",
"452 117 OFFCURVE",
"400 117 CURVE SMOOTH",
"265 117 OFFCURVE",
"194 200 OFFCURVE",
"194 357 CURVE SMOOTH",
"194 512 OFFCURVE",
"266 595 OFFCURVE",
"400 595 CURVE SMOOTH",
"448 595 OFFCURVE",
"493 584 OFFCURVE",
"549 557 CURVE",
"594 663 LINE",
"535 698 OFFCURVE",
"457 718 OFFCURVE",
"382 718 CURVE SMOOTH"
);
}
);
width = 615;
}
);
leftKerningGroup = C;
rightKerningGroup = C;
unicode = 010C;
},
{
glyphname = Ccedilla;
lastChange = "2014-11-26 20:43:10 +0000";
layers = (
{
layerId = "06DA83F7-7F04-4345-A73D-275D0ED9D5E5";
name = Regular;
paths = (
{
closed = 1;
nodes = (
"382 -7 LINE",
"453 -6 OFFCURVE",
"533 13 OFFCURVE",
"597 43 CURVE",
"562 125 LINE",
"503 98 OFFCURVE",
"439 83 OFFCURVE",
"381 83 CURVE SMOOTH",
"232 83 OFFCURVE",
"148 181 OFFCURVE",
"148 356 CURVE SMOOTH",
"148 529 OFFCURVE",
"233 626 OFFCURVE",
"384 626 CURVE SMOOTH",
"439 626 OFFCURVE",
"490 612 OFFCURVE",
"552 579 CURVE",
"592 657 LINE",
"530 695 OFFCURVE",
"456 716 OFFCURVE",
"384 716 CURVE SMOOTH",
"173 716 OFFCURVE",
"48 582 OFFCURVE",
"48 356 CURVE SMOOTH",
"48 136 OFFCURVE",
"150 9 OFFCURVE",
"338 -5 CURVE",
"304 -54 LINE",
"310 -75 LINE",
"350 -87 OFFCURVE",
"367 -102 OFFCURVE",
"367 -126 CURVE SMOOTH",
"367 -149 OFFCURVE",
"353 -162 OFFCURVE",
"329 -162 CURVE SMOOTH",
"312 -162 OFFCURVE",
"295 -157 OFFCURVE",
"283 -150 CURVE",
"265 -188 LINE",
"287 -201 OFFCURVE",
"318 -213 OFFCURVE",
"350 -213 CURVE SMOOTH",
"396 -213 OFFCURVE",
"435 -184 OFFCURVE",
"435 -128 CURVE SMOOTH",
"435 -94 OFFCURVE",
"406 -58 OFFCURVE",
"369 -45 CURVE"
);
}
);
width = 618;
},
{
layerId = "6322FA20-8F24-49FB-9B55-AB1214B5D5A0";
name = Bold;
paths = (
{
closed = 1;
nodes = (
"376 -8 LINE",
"380 -8 LINE SMOOTH",
"455 -8 OFFCURVE",
"526 8 OFFCURVE",
"600 41 CURVE",
"563 153 LINE",
"504 128 OFFCURVE",
"452 117 OFFCURVE",
"400 117 CURVE SMOOTH",
"265 117 OFFCURVE",
"194 200 OFFCURVE",
"194 357 CURVE SMOOTH",
"194 512 OFFCURVE",
"266 595 OFFCURVE",
"400 595 CURVE SMOOTH",
"448 595 OFFCURVE",
"493 584 OFFCURVE",
"549 557 CURVE",
"594 663 LINE",
"535 698 OFFCURVE",
"457 718 OFFCURVE",
"382 718 CURVE SMOOTH",
"165 718 OFFCURVE",
"37 582 OFFCURVE",
"37 354 CURVE SMOOTH",
"37 140 OFFCURVE",
"140 14 OFFCURVE",
"327 -5 CURVE",
"289 -56 LINE",
"299 -82 LINE",
"339 -91 OFFCURVE",
"356 -104 OFFCURVE",
"356 -124 CURVE SMOOTH",
"356 -144 OFFCURVE",
"342 -154 OFFCURVE",
"321 -154 CURVE SMOOTH",
"303 -154 OFFCURVE",
"283 -148 OFFCURVE",
"272 -142 CURVE",
"250 -189 LINE",
"274 -203 OFFCURVE",
"309 -216 OFFCURVE",
"345 -216 CURVE SMOOTH",
"395 -216 OFFCURVE",
"438 -187 OFFCURVE",
"438 -128 CURVE SMOOTH",
"438 -94 OFFCURVE",
"406 -58 OFFCURVE",
"364 -45 CURVE"
);
}
);
width = 615;
}
);
leftKerningGroup = C;
rightKerningGroup = C;
unicode = 00C7;
},
{
glyphname = Ccircumflex;
lastChange = "2014-11-26 20:43:10 +0000";
layers = (
{
layerId = "06DA83F7-7F04-4345-A73D-275D0ED9D5E5";
name = Regular;
paths = (
{
closed = 1;
nodes = (
"501 795 LINE",
"368 929 LINE",
"331 929 LINE",
"198 795 LINE",
"235 761 LINE",
"349 849 LINE",
"464 761 LINE"
);
},
{
closed = 1;
nodes = (
"173 716 OFFCURVE",
"48 582 OFFCURVE",
"48 356 CURVE SMOOTH",
"48 121 OFFCURVE",
"164 -7 OFFCURVE",
"377 -7 CURVE SMOOTH",
"449 -7 OFFCURVE",
"532 12 OFFCURVE",
"597 43 CURVE",
"562 125 LINE",
"503 98 OFFCURVE",
"439 83 OFFCURVE",
"381 83 CURVE SMOOTH",
"232 83 OFFCURVE",
"148 181 OFFCURVE",
"148 356 CURVE SMOOTH",
"148 529 OFFCURVE",
"233 626 OFFCURVE",
"384 626 CURVE SMOOTH",
"439 626 OFFCURVE",
"490 612 OFFCURVE",
"552 579 CURVE",
"592 657 LINE",
"530 695 OFFCURVE",
"456 716 OFFCURVE",
"384 716 CURVE SMOOTH"
);
}
);
width = 618;
},
{
layerId = "6322FA20-8F24-49FB-9B55-AB1214B5D5A0";
name = Bold;
paths = (
{
closed = 1;
nodes = (
"521 801 LINE",
"365 942 LINE",
"334 942 LINE",
"178 801 LINE",
"219 751 LINE",
"349 838 LINE",
"480 751 LINE"
);
},
{
closed = 1;
nodes = (
"165 718 OFFCURVE",
"37 582 OFFCURVE",
"37 354 CURVE SMOOTH",
"37 121 OFFCURVE",
"159 -8 OFFCURVE",
"380 -8 CURVE SMOOTH",
"455 -8 OFFCURVE",
"526 8 OFFCURVE",
"600 41 CURVE",
"563 153 LINE",
"504 128 OFFCURVE",
"452 117 OFFCURVE",
"400 117 CURVE SMOOTH",
"265 117 OFFCURVE",
"194 200 OFFCURVE",
"194 357 CURVE SMOOTH",
"194 512 OFFCURVE",
"266 595 OFFCURVE",
"400 595 CURVE SMOOTH",
"448 595 OFFCURVE",
"493 584 OFFCURVE",
"549 557 CURVE",
"594 663 LINE",
"535 698 OFFCURVE",
"457 718 OFFCURVE",
"382 718 CURVE SMOOTH"
);
}
);
width = 615;
}
);
leftKerningGroup = C;
rightKerningGroup = C;
unicode = 0108;
},
{
glyphname = Cdotaccent;
lastChange = "2014-11-26 20:43:10 +0000";
layers = (
{
layerId = "06DA83F7-7F04-4345-A73D-275D0ED9D5E5";
name = Regular;
paths = (
{
closed = 1;
nodes = (
"397 890 LINE",
"304 890 LINE",
"304 797 LINE",
"397 797 LINE"
);
},
{
closed = 1;
nodes = (
"173 716 OFFCURVE",
"48 582 OFFCURVE",
"48 356 CURVE SMOOTH",
"48 121 OFFCURVE",
"164 -7 OFFCURVE",
"377 -7 CURVE SMOOTH",
"449 -7 OFFCURVE",
"532 12 OFFCURVE",
"597 43 CURVE",
"562 125 LINE",
"503 98 OFFCURVE",
"439 83 OFFCURVE",
"381 83 CURVE SMOOTH",
"232 83 OFFCURVE",
"148 181 OFFCURVE",
"148 356 CURVE SMOOTH",
"148 529 OFFCURVE",
"233 626 OFFCURVE",
"384 626 CURVE SMOOTH",
"439 626 OFFCURVE",
"490 612 OFFCURVE",
"552 579 CURVE",
"592 657 LINE",
"530 695 OFFCURVE",
"456 716 OFFCURVE",
"384 716 CURVE SMOOTH"
);
}
);
width = 618;
},
{
layerId = "6322FA20-8F24-49FB-9B55-AB1214B5D5A0";
name = Bold;
paths = (
{
closed = 1;
nodes = (
"411 904 LINE",
"289 904 LINE",
"289 786 LINE",
"411 786 LINE"
);
},
{
closed = 1;
nodes = (
"165 718 OFFCURVE",
"37 582 OFFCURVE",
"37 354 CURVE SMOOTH",
"37 121 OFFCURVE",
"159 -8 OFFCURVE",
"380 -8 CURVE SMOOTH",
"455 -8 OFFCURVE",
"526 8 OFFCURVE",
"600 41 CURVE",
"563 153 LINE",
"504 128 OFFCURVE",
"452 117 OFFCURVE",
"400 117 CURVE SMOOTH",
"265 117 OFFCURVE",
"194 200 OFFCURVE",
"194 357 CURVE SMOOTH",
"194 512 OFFCURVE",
"266 595 OFFCURVE",
"400 595 CURVE SMOOTH",
"448 595 OFFCURVE",
"493 584 OFFCURVE",
"549 557 CURVE",
"594 663 LINE",
"535 698 OFFCURVE",
"457 718 OFFCURVE",
"382 718 CURVE SMOOTH"
);
}
);
width = 615;
}
);
leftKerningGroup = C;
rightKerningGroup = C;
unicode = 010A;
},
{
glyphname = D;
lastChange = "2014-11-26 20:43:10 +0000";
layers = (
{
layerId = "06DA83F7-7F04-4345-A73D-275D0ED9D5E5";
name = Regular;
paths = (
{
closed = 1;
nodes = (
"93 708 LINE",
"93 0 LINE",
"322 0 LINE SMOOTH",
"540 0 OFFCURVE",
"662 128 OFFCURVE",
"662 356 CURVE SMOOTH",
"662 584 OFFCURVE",
"542 708 OFFCURVE",
"322 708 CURVE SMOOTH"
);
},
{
closed = 1;
nodes = (
"189 85 LINE",
"189 623 LINE",
"322 623 LINE SMOOTH",
"479 623 OFFCURVE",
"562 531 OFFCURVE",
"562 356 CURVE SMOOTH",
"562 179 OFFCURVE",
"478 85 OFFCURVE",
"322 85 CURVE SMOOTH"
);
}
);
width = 710;
},
{
layerId = "6322FA20-8F24-49FB-9B55-AB1214B5D5A0";
name = Bold;
paths = (
{
closed = 1;
nodes = (
"81 709 LINE",
"81 0 LINE",
"319 0 LINE SMOOTH",
"561 0 OFFCURVE",
"687 123 OFFCURVE",
"687 358 CURVE SMOOTH",
"687 590 OFFCURVE",
"563 709 OFFCURVE",
"319 709 CURVE SMOOTH"
);
},
{
closed = 1;
nodes = (
"232 114 LINE",
"232 594 LINE",
"329 594 LINE SMOOTH",
"462 594 OFFCURVE",
"530 514 OFFCURVE",
"530 356 CURVE SMOOTH",
"530 196 OFFCURVE",
"461 114 OFFCURVE",
"329 114 CURVE SMOOTH"
);
}
);
width = 724;
}
);
rightKerningGroup = D;
unicode = 0044;
},
{
glyphname = Eth;
lastChange = "2014-11-26 20:43:10 +0000";
layers = (
{
layerId = "06DA83F7-7F04-4345-A73D-275D0ED9D5E5";
name = Regular;
paths = (
{
closed = 1;
nodes = (
"93 708 LINE",
"93 398 LINE",
"9 398 LINE",
"9 313 LINE",
"93 313 LINE",
"93 0 LINE",
"322 0 LINE SMOOTH",
"540 0 OFFCURVE",
"662 128 OFFCURVE",
"662 356 CURVE SMOOTH",
"662 584 OFFCURVE",
"542 708 OFFCURVE",
"322 708 CURVE SMOOTH"
);
},
{
closed = 1;
nodes = (
"189 85 LINE",
"189 313 LINE",
"333 313 LINE",
"333 398 LINE",
"189 398 LINE",
"189 623 LINE",
"322 623 LINE SMOOTH",
"479 623 OFFCURVE",
"562 531 OFFCURVE",
"562 356 CURVE SMOOTH",
"562 179 OFFCURVE",
"478 85 OFFCURVE",
"322 85 CURVE SMOOTH"
);
}
);
width = 710;
},
{
layerId = "6322FA20-8F24-49FB-9B55-AB1214B5D5A0";
name = Bold;
paths = (
{
closed = 1;
nodes = (
"82 709 LINE",
"82 405 LINE",
"6 405 LINE",
"6 302 LINE",
"82 302 LINE",
"82 0 LINE",
"321 0 LINE SMOOTH",
"560 0 OFFCURVE",
"689 123 OFFCURVE",
"689 358 CURVE SMOOTH",
"689 591 OFFCURVE",
"562 709 OFFCURVE",
"321 709 CURVE SMOOTH"
);
},
{
closed = 1;
nodes = (
"234 113 LINE",
"234 302 LINE",
"360 302 LINE",
"360 405 LINE",
"234 405 LINE",
"234 596 LINE",
"337 596 LINE SMOOTH",
"465 596 OFFCURVE",
"532 518 OFFCURVE",
"532 356 CURVE SMOOTH",
"532 193 OFFCURVE",
"464 113 OFFCURVE",
"337 113 CURVE SMOOTH"
);
}
);
width = 724;
}
);
rightKerningGroup = D;
unicode = 00D0;
},
{
glyphname = Dcaron;
lastChange = "2014-11-26 20:43:10 +0000";
layers = (
{
layerId = "06DA83F7-7F04-4345-A73D-275D0ED9D5E5";
name = Regular;
paths = (
{
closed = 1;
nodes = (
"498 905 LINE",
"461 939 LINE",
"346 851 LINE",
"232 939 LINE",
"195 905 LINE",
"328 771 LINE",
"365 771 LINE"
);
},
{
closed = 1;
nodes = (
"93 708 LINE",
"93 0 LINE",
"322 0 LINE SMOOTH",
"540 0 OFFCURVE",
"662 128 OFFCURVE",
"662 356 CURVE SMOOTH",
"662 584 OFFCURVE",
"542 708 OFFCURVE",
"322 708 CURVE SMOOTH"
);
},
{
closed = 1;
nodes = (
"189 85 LINE",
"189 623 LINE",
"322 623 LINE SMOOTH",
"479 623 OFFCURVE",
"562 531 OFFCURVE",
"562 356 CURVE SMOOTH",
"562 179 OFFCURVE",
"478 85 OFFCURVE",
"322 85 CURVE SMOOTH"
);
}
);
width = 710;
},
{
layerId = "6322FA20-8F24-49FB-9B55-AB1214B5D5A0";
name = Bold;
paths = (
{
closed = 1;
nodes = (
"522 899 LINE",
"481 949 LINE",
"350 862 LINE",
"220 949 LINE",
"179 899 LINE",
"335 758 LINE",
"366 758 LINE"
);
},
{
closed = 1;
nodes = (
"81 709 LINE",
"81 0 LINE",
"319 0 LINE SMOOTH",
"561 0 OFFCURVE",
"687 123 OFFCURVE",
"687 358 CURVE SMOOTH",
"687 590 OFFCURVE",
"563 709 OFFCURVE",
"319 709 CURVE SMOOTH"
);
},
{
closed = 1;
nodes = (
"232 114 LINE",
"232 594 LINE",
"329 594 LINE SMOOTH",
"462 594 OFFCURVE",
"530 514 OFFCURVE",
"530 356 CURVE SMOOTH",
"530 196 OFFCURVE",
"461 114 OFFCURVE",
"329 114 CURVE SMOOTH"
);
}
);
width = 724;
}
);
rightKerningGroup = D;
unicode = 010E;
},
{
glyphname = Dcroat;
lastChange = "2014-11-26 20:43:10 +0000";
layers = (
{
layerId = "06DA83F7-7F04-4345-A73D-275D0ED9D5E5";
name = Regular;
paths = (
{
closed = 1;
nodes = (
"93 708 LINE",
"93 398 LINE",
"9 398 LINE",
"9 313 LINE",
"93 313 LINE",
"93 0 LINE",
"322 0 LINE SMOOTH",
"540 0 OFFCURVE",
"662 128 OFFCURVE",
"662 356 CURVE SMOOTH",
"662 584 OFFCURVE",
"542 708 OFFCURVE",
"322 708 CURVE SMOOTH"
);
},
{
closed = 1;
nodes = (
"189 85 LINE",
"189 313 LINE",
"333 313 LINE",
"333 398 LINE",
"189 398 LINE",
"189 623 LINE",
"322 623 LINE SMOOTH",
"479 623 OFFCURVE",
"562 531 OFFCURVE",
"562 356 CURVE SMOOTH",
"562 179 OFFCURVE",
"478 85 OFFCURVE",
"322 85 CURVE SMOOTH"
);
}
);
width = 710;
},
{
layerId = "6322FA20-8F24-49FB-9B55-AB1214B5D5A0";
name = Bold;
paths = (
{
closed = 1;
nodes = (
"82 709 LINE",
"82 405 LINE",
"6 405 LINE",
"6 302 LINE",
"82 302 LINE",
"82 0 LINE",
"321 0 LINE SMOOTH",
"560 0 OFFCURVE",
"689 123 OFFCURVE",
"689 358 CURVE SMOOTH",
"689 591 OFFCURVE",
"562 709 OFFCURVE",
"321 709 CURVE SMOOTH"
);
},
{
closed = 1;
nodes = (
"234 113 LINE",
"234 302 LINE",
"360 302 LINE",
"360 405 LINE",
"234 405 LINE",
"234 596 LINE",
"337 596 LINE SMOOTH",
"465 596 OFFCURVE",
"532 518 OFFCURVE",
"532 356 CURVE SMOOTH",
"532 193 OFFCURVE",
"464 113 OFFCURVE",
"337 113 CURVE SMOOTH"
);
}
);
width = 724;
}
);
rightKerningGroup = D;
unicode = 0110;
},
{
glyphname = E;
lastChange = "2014-11-26 20:43:10 +0000";
layers = (
{
layerId = "06DA83F7-7F04-4345-A73D-275D0ED9D5E5";
name = Regular;
paths = (
{
closed = 1;
nodes = (
"514 708 LINE",
"93 708 LINE",
"93 0 LINE",
"525 0 LINE",
"525 85 LINE",
"189 85 LINE",
"189 328 LINE",
"481 328 LINE",
"481 413 LINE",
"189 413 LINE",
"189 623 LINE",
"514 623 LINE"
);
}
);
width = 560;
},
{
layerId = "6322FA20-8F24-49FB-9B55-AB1214B5D5A0";
name = Bold;
paths = (
{
closed = 1;
nodes = (
"543 709 LINE",
"81 709 LINE",
"81 0 LINE",
"553 0 LINE",
"553 113 LINE",
"234 113 LINE",
"234 310 LINE",
"513 310 LINE",
"513 421 LINE",
"234 421 LINE",
"234 596 LINE",
"543 596 LINE"
);
}
);
width = 587;
}
);
unicode = 0045;
},
{
glyphname = Eacute;
lastChange = "2014-11-26 20:43:10 +0000";
layers = (
{
layerId = "06DA83F7-7F04-4345-A73D-275D0ED9D5E5";
name = Regular;
paths = (
{
closed = 1;
nodes = (
"396 959 LINE",
"263 795 LINE",
"300 761 LINE",
"456 897 LINE"
);
},
{
closed = 1;
nodes = (
"514 708 LINE",
"93 708 LINE",
"93 0 LINE",
"525 0 LINE",
"525 85 LINE",
"189 85 LINE",
"189 328 LINE",
"481 328 LINE",
"481 413 LINE",
"189 413 LINE",
"189 623 LINE",
"514 623 LINE"
);
}
);
width = 560;
},
{
layerId = "6322FA20-8F24-49FB-9B55-AB1214B5D5A0";
name = Bold;
paths = (
{
closed = 1;
nodes = (
"406 965 LINE",
"250 804 LINE",
"291 754 LINE",
"471 879 LINE"
);
},
{
closed = 1;
nodes = (
"543 709 LINE",
"81 709 LINE",
"81 0 LINE",
"553 0 LINE",
"553 113 LINE",
"234 113 LINE",
"234 310 LINE",
"513 310 LINE",
"513 421 LINE",
"234 421 LINE",
"234 596 LINE",
"543 596 LINE"
);
}
);
width = 587;
}
);
unicode = 00C9;
},
{
glyphname = Ebreve;
lastChange = "2014-11-26 20:43:10 +0000";
layers = (
{
layerId = "06DA83F7-7F04-4345-A73D-275D0ED9D5E5";
name = Regular;
paths = (
{
closed = 1;
nodes = (
"392 901 LINE",
"392 861 OFFCURVE",
"359 832 OFFCURVE",
"312 832 CURVE SMOOTH",
"264 832 OFFCURVE",
"233 859 OFFCURVE",
"233 901 CURVE",
"169 901 LINE",
"169 821 OFFCURVE",
"226 767 OFFCURVE",
"312 767 CURVE SMOOTH",
"398 767 OFFCURVE",
"456 821 OFFCURVE",
"456 901 CURVE"
);
},
{
closed = 1;
nodes = (
"514 708 LINE",
"93 708 LINE",
"93 0 LINE",
"525 0 LINE",
"525 85 LINE",
"189 85 LINE",
"189 328 LINE",
"481 328 LINE",
"481 413 LINE",
"189 413 LINE",
"189 623 LINE",
"514 623 LINE"
);
}
);
width = 560;
},
{
layerId = "6322FA20-8F24-49FB-9B55-AB1214B5D5A0";
name = Bold;
paths = (
{
closed = 1;
nodes = (
"392 902 LINE",
"392 863 OFFCURVE",
"363 836 OFFCURVE",
"319 836 CURVE SMOOTH",
"274 836 OFFCURVE",
"247 861 OFFCURVE",
"247 902 CURVE",
"162 902 LINE",
"162 814 OFFCURVE",
"223 757 OFFCURVE",
"319 757 CURVE SMOOTH",
"415 757 OFFCURVE",
"477 814 OFFCURVE",
"477 902 CURVE"
);
},
{
closed = 1;
nodes = (
"543 709 LINE",
"81 709 LINE",
"81 0 LINE",
"553 0 LINE",
"553 113 LINE",
"234 113 LINE",
"234 310 LINE",
"513 310 LINE",
"513 421 LINE",
"234 421 LINE",
"234 596 LINE",
"543 596 LINE"
);
}
);
width = 587;
}
);
unicode = 0114;
},
{
glyphname = Ecaron;
lastChange = "2014-11-26 20:43:10 +0000";
layers = (
{
layerId = "06DA83F7-7F04-4345-A73D-275D0ED9D5E5";
name = Regular;
paths = (
{
closed = 1;
nodes = (
"465 905 LINE",
"428 939 LINE",
"313 851 LINE",
"199 939 LINE",
"162 905 LINE",
"295 771 LINE",
"332 771 LINE"
);
},
{
closed = 1;
nodes = (
"514 708 LINE",
"93 708 LINE",
"93 0 LINE",
"525 0 LINE",
"525 85 LINE",
"189 85 LINE",
"189 328 LINE",
"481 328 LINE",
"481 413 LINE",
"189 413 LINE",
"189 623 LINE",
"514 623 LINE"
);
}
);
width = 560;
},
{
layerId = "6322FA20-8F24-49FB-9B55-AB1214B5D5A0";
name = Bold;
paths = (
{
closed = 1;
nodes = (
"491 899 LINE",
"450 949 LINE",
"319 862 LINE",
"189 949 LINE",
"148 899 LINE",
"304 758 LINE",
"335 758 LINE"
);
},
{
closed = 1;
nodes = (
"543 709 LINE",
"81 709 LINE",
"81 0 LINE",
"553 0 LINE",
"553 113 LINE",
"234 113 LINE",
"234 310 LINE",
"513 310 LINE",
"513 421 LINE",
"234 421 LINE",
"234 596 LINE",
"543 596 LINE"
);
}
);
width = 587;
}
);
unicode = 011A;
},
{
glyphname = Ecircumflex;
lastChange = "2014-11-26 20:43:10 +0000";
layers = (
{
layerId = "06DA83F7-7F04-4345-A73D-275D0ED9D5E5";
name = Regular;
paths = (
{
closed = 1;
nodes = (
"462 795 LINE",
"329 929 LINE",
"292 929 LINE",
"159 795 LINE",
"196 761 LINE",
"310 849 LINE",
"425 761 LINE"
);
},
{
closed = 1;
nodes = (
"514 708 LINE",
"93 708 LINE",
"93 0 LINE",
"525 0 LINE",
"525 85 LINE",
"189 85 LINE",
"189 328 LINE",
"481 328 LINE",
"481 413 LINE",
"189 413 LINE",
"189 623 LINE",
"514 623 LINE"
);
}
);
width = 560;
},
{
layerId = "6322FA20-8F24-49FB-9B55-AB1214B5D5A0";
name = Bold;
paths = (
{
closed = 1;
nodes = (
"489 801 LINE",
"333 942 LINE",
"302 942 LINE",
"146 801 LINE",
"187 751 LINE",
"317 838 LINE",
"448 751 LINE"
);
},
{
closed = 1;
nodes = (
"543 709 LINE",
"81 709 LINE",
"81 0 LINE",
"553 0 LINE",
"553 113 LINE",
"234 113 LINE",
"234 310 LINE",
"513 310 LINE",
"513 421 LINE",
"234 421 LINE",
"234 596 LINE",
"543 596 LINE"
);
}
);
width = 587;
}
);
unicode = 00CA;
},
{
glyphname = Edieresis;
lastChange = "2014-11-26 20:43:10 +0000";
layers = (
{
layerId = "06DA83F7-7F04-4345-A73D-275D0ED9D5E5";
name = Regular;
paths = (
{
closed = 1;
nodes = (
"266 890 LINE",
"173 890 LINE",
"173 797 LINE",
"266 797 LINE"
);
},
{
closed = 1;
nodes = (
"447 890 LINE",
"355 890 LINE",
"355 797 LINE",
"447 797 LINE"
);
},
{
closed = 1;
nodes = (
"514 708 LINE",
"93 708 LINE",
"93 0 LINE",
"525 0 LINE",
"525 85 LINE",
"189 85 LINE",
"189 328 LINE",
"481 328 LINE",
"481 413 LINE",
"189 413 LINE",
"189 623 LINE",
"514 623 LINE"
);
}
);
width = 560;
},
{
layerId = "6322FA20-8F24-49FB-9B55-AB1214B5D5A0";
name = Bold;
paths = (
{
closed = 1;
nodes = (
"275 901 LINE",
"153 901 LINE",
"153 783 LINE",
"275 783 LINE"
);
},
{
closed = 1;
nodes = (
"481 901 LINE",
"360 901 LINE",
"360 783 LINE",
"481 783 LINE"
);
},
{
closed = 1;
nodes = (
"543 709 LINE",
"81 709 LINE",
"81 0 LINE",
"553 0 LINE",
"553 113 LINE",
"234 113 LINE",
"234 310 LINE",
"513 310 LINE",
"513 421 LINE",
"234 421 LINE",
"234 596 LINE",
"543 596 LINE"
);
}
);
width = 587;
}
);
unicode = 00CB;
},
{
glyphname = Edotaccent;
lastChange = "2014-11-26 20:43:10 +0000";
layers = (
{
layerId = "06DA83F7-7F04-4345-A73D-275D0ED9D5E5";
name = Regular;
paths = (
{
closed = 1;
nodes = (
"358 890 LINE",
"265 890 LINE",
"265 797 LINE",
"358 797 LINE"
);
},
{
closed = 1;
nodes = (
"514 708 LINE",
"93 708 LINE",
"93 0 LINE",
"525 0 LINE",
"525 85 LINE",
"189 85 LINE",
"189 328 LINE",
"481 328 LINE",
"481 413 LINE",
"189 413 LINE",
"189 623 LINE",
"514 623 LINE"
);
}
);
width = 560;
},
{
layerId = "6322FA20-8F24-49FB-9B55-AB1214B5D5A0";
name = Bold;
paths = (
{
closed = 1;
nodes = (
"379 904 LINE",
"257 904 LINE",
"257 786 LINE",
"379 786 LINE"
);
},
{
closed = 1;
nodes = (
"543 709 LINE",
"81 709 LINE",
"81 0 LINE",
"553 0 LINE",
"553 113 LINE",
"234 113 LINE",
"234 310 LINE",
"513 310 LINE",
"513 421 LINE",
"234 421 LINE",
"234 596 LINE",
"543 596 LINE"
);
}
);
width = 587;
}
);
unicode = 0116;
},
{
glyphname = Egrave;
lastChange = "2014-11-26 20:43:10 +0000";
layers = (
{
layerId = "06DA83F7-7F04-4345-A73D-275D0ED9D5E5";
name = Regular;
paths = (
{
closed = 1;
nodes = (
"342 795 LINE",
"209 959 LINE",
"149 897 LINE",
"305 761 LINE"
);
},
{
closed = 1;
nodes = (
"514 708 LINE",
"93 708 LINE",
"93 0 LINE",
"525 0 LINE",
"525 85 LINE",
"189 85 LINE",
"189 328 LINE",
"481 328 LINE",
"481 413 LINE",
"189 413 LINE",
"189 623 LINE",
"514 623 LINE"
);
}
);
width = 560;
},
{
layerId = "6322FA20-8F24-49FB-9B55-AB1214B5D5A0";
name = Bold;
paths = (
{
closed = 1;
nodes = (
"362 804 LINE",
"206 965 LINE",
"141 879 LINE",
"321 754 LINE"
);
},
{
closed = 1;
nodes = (
"543 709 LINE",
"81 709 LINE",
"81 0 LINE",
"553 0 LINE",
"553 113 LINE",
"234 113 LINE",
"234 310 LINE",
"513 310 LINE",
"513 421 LINE",
"234 421 LINE",
"234 596 LINE",
"543 596 LINE"
);
}
);
width = 587;
}
);
unicode = 00C8;
},
{
glyphname = Emacron;
lastChange = "2014-11-26 20:43:10 +0000";
layers = (
{
layerId = "06DA83F7-7F04-4345-A73D-275D0ED9D5E5";
name = Regular;
paths = (
{
closed = 1;
nodes = (
"464 878 LINE",
"160 878 LINE",
"160 808 LINE",
"464 808 LINE"
);
},
{
closed = 1;
nodes = (
"514 708 LINE",
"93 708 LINE",
"93 0 LINE",
"525 0 LINE",
"525 85 LINE",
"189 85 LINE",
"189 328 LINE",
"481 328 LINE",
"481 413 LINE",
"189 413 LINE",
"189 623 LINE",
"514 623 LINE"
);
}
);
width = 560;
},
{
layerId = "6322FA20-8F24-49FB-9B55-AB1214B5D5A0";
name = Bold;
paths = (
{
closed = 1;
nodes = (
"483 886 LINE",
"153 886 LINE",
"153 793 LINE",
"483 793 LINE"
);
},
{
closed = 1;
nodes = (
"543 709 LINE",
"81 709 LINE",
"81 0 LINE",
"553 0 LINE",
"553 113 LINE",
"234 113 LINE",
"234 310 LINE",
"513 310 LINE",
"513 421 LINE",
"234 421 LINE",
"234 596 LINE",
"543 596 LINE"
);
}
);
width = 587;
}
);
unicode = 0112;
},
{
glyphname = Eogonek;
lastChange = "2014-11-26 20:43:10 +0000";
layers = (
{
layerId = "06DA83F7-7F04-4345-A73D-275D0ED9D5E5";
name = Regular;
paths = (
{
closed = 1;
nodes = (
"312 -198 OFFCURVE",
"361 -225 OFFCURVE",
"408 -225 CURVE SMOOTH",
"446 -225 OFFCURVE",
"473 -215 OFFCURVE",
"503 -199 CURVE",
"489 -159 LINE",
"474 -165 OFFCURVE",
"457 -169 OFFCURVE",
"441 -169 CURVE SMOOTH",
"417 -169 OFFCURVE",
"395 -154 OFFCURVE",
"395 -121 CURVE SMOOTH",
"395 -67 OFFCURVE",
"442 -35 OFFCURVE",
"505 0 CURVE",
"525 0 LINE",
"525 85 LINE",
"189 85 LINE",
"189 328 LINE",
"481 328 LINE",
"481 413 LINE",
"189 413 LINE",
"189 623 LINE",
"514 623 LINE",
"514 708 LINE",
"93 708 LINE",
"93 0 LINE",
"411 0 LINE",
"358 -21 OFFCURVE",
"312 -77 OFFCURVE",
"312 -132 CURVE SMOOTH"
);
}
);
width = 560;
},
{
layerId = "6322FA20-8F24-49FB-9B55-AB1214B5D5A0";
name = Bold;
paths = (
{
closed = 1;
nodes = (
"316 -195 OFFCURVE",
"363 -225 OFFCURVE",
"419 -225 CURVE SMOOTH",
"464 -225 OFFCURVE",
"498 -214 OFFCURVE",
"539 -192 CURVE",
"521 -141 LINE",
"506 -148 OFFCURVE",
"489 -152 OFFCURVE",
"473 -152 CURVE SMOOTH",
"450 -152 OFFCURVE",
"432 -139 OFFCURVE",
"432 -111 CURVE SMOOTH",
"432 -66 OFFCURVE",
"471 -30 OFFCURVE",
"536 0 CURVE",
"554 0 LINE",
"554 113 LINE",
"235 113 LINE",
"235 310 LINE",
"515 310 LINE",
"515 421 LINE",
"235 421 LINE",
"235 596 LINE",
"545 596 LINE",
"545 709 LINE",
"82 709 LINE",
"82 0 LINE",
"414 0 LINE",
"360 -22 OFFCURVE",
"316 -77 OFFCURVE",
"316 -131 CURVE SMOOTH"
);
}
);
width = 591;
}
);
unicode = 0118;
},
{
glyphname = F;
lastChange = "2014-11-26 20:43:10 +0000";
layers = (
{
layerId = "06DA83F7-7F04-4345-A73D-275D0ED9D5E5";
name = Regular;
paths = (
{
closed = 1;
nodes = (
"514 708 LINE",
"93 708 LINE",
"93 0 LINE",
"189 0 LINE",
"189 328 LINE",
"465 328 LINE",
"465 413 LINE",
"189 413 LINE",
"189 623 LINE",
"514 623 LINE"
);
}
);
width = 532;
},
{
layerId = "6322FA20-8F24-49FB-9B55-AB1214B5D5A0";
name = Bold;
paths = (
{
closed = 1;
nodes = (
"537 709 LINE",
"81 709 LINE",
"81 0 LINE",
"234 0 LINE",
"234 301 LINE",
"496 301 LINE",
"496 416 LINE",
"234 416 LINE",
"234 594 LINE",
"537 594 LINE"
);
}
);
width = 553;
}
);
rightKerningGroup = F;
unicode = 0046;
},
{
glyphname = G;
lastChange = "2014-11-26 20:43:10 +0000";
layers = (
{
layerId = "06DA83F7-7F04-4345-A73D-275D0ED9D5E5";
name = Regular;
paths = (
{
closed = 1;
nodes = (
"607 352 LINE",
"511 352 LINE",
"511 103 LINE",
"468 90 OFFCURVE",
"423 83 OFFCURVE",
"381 83 CURVE SMOOTH",
"232 83 OFFCURVE",
"148 181 OFFCURVE",
"148 356 CURVE SMOOTH",
"148 529 OFFCURVE",
"233 626 OFFCURVE",
"384 626 CURVE SMOOTH",
"443 626 OFFCURVE",
"498 611 OFFCURVE",
"562 579 CURVE",
"602 657 LINE",
"535 695 OFFCURVE",
"458 716 OFFCURVE",
"384 716 CURVE SMOOTH",
"173 716 OFFCURVE",
"48 582 OFFCURVE",
"48 356 CURVE SMOOTH",
"48 121 OFFCURVE",
"164 -7 OFFCURVE",
"377 -7 CURVE SMOOTH",
"453 -7 OFFCURVE",
"541 12 OFFCURVE",
"607 43 CURVE"
);
}
);
width = 662;
},
{
layerId = "6322FA20-8F24-49FB-9B55-AB1214B5D5A0";
name = Bold;
paths = (
{
closed = 1;
nodes = (
"627 360 LINE",
"485 360 LINE",
"485 126 LINE",
"453 117 OFFCURVE",
"423 113 OFFCURVE",
"391 113 CURVE SMOOTH",
"265 113 OFFCURVE",
"194 202 OFFCURVE",
"194 357 CURVE SMOOTH",
"194 513 OFFCURVE",
"269 595 OFFCURVE",
"413 595 CURVE SMOOTH",
"464 595 OFFCURVE",
"511 583 OFFCURVE",
"578 555 CURVE",
"623 663 LINE",
"559 698 OFFCURVE",
"475 718 OFFCURVE",
"395 718 CURVE SMOOTH",
"167 718 OFFCURVE",
"37 586 OFFCURVE",
"37 354 CURVE SMOOTH",
"37 123 OFFCURVE",
"163 -8 OFFCURVE",
"383 -8 CURVE SMOOTH",
"464 -8 OFFCURVE",
"553 11 OFFCURVE",
"627 44 CURVE"
);
}
);
width = 674;
}
);
leftKerningGroup = C;
unicode = 0047;
},
{
glyphname = Gbreve;
lastChange = "2014-11-26 20:43:10 +0000";
layers = (
{
layerId = "06DA83F7-7F04-4345-A73D-275D0ED9D5E5";
name = Regular;
paths = (
{
closed = 1;
nodes = (
"445 767 OFFCURVE",
"503 821 OFFCURVE",
"503 901 CURVE",
"439 901 LINE",
"439 861 OFFCURVE",
"406 832 OFFCURVE",
"359 832 CURVE SMOOTH",
"311 832 OFFCURVE",
"280 859 OFFCURVE",
"280 901 CURVE",
"216 901 LINE",
"216 821 OFFCURVE",
"273 767 OFFCURVE",
"359 767 CURVE SMOOTH"
);
},
{
closed = 1;
nodes = (
"607 352 LINE",
"511 352 LINE",
"511 103 LINE",
"468 90 OFFCURVE",
"423 83 OFFCURVE",
"381 83 CURVE SMOOTH",
"232 83 OFFCURVE",
"148 181 OFFCURVE",
"148 356 CURVE SMOOTH",
"148 529 OFFCURVE",
"233 626 OFFCURVE",
"384 626 CURVE SMOOTH",
"443 626 OFFCURVE",
"498 611 OFFCURVE",
"562 579 CURVE",
"602 657 LINE",
"535 695 OFFCURVE",
"458 716 OFFCURVE",
"384 716 CURVE SMOOTH",
"173 716 OFFCURVE",
"48 582 OFFCURVE",
"48 356 CURVE SMOOTH",
"48 121 OFFCURVE",
"164 -7 OFFCURVE",
"377 -7 CURVE SMOOTH",
"453 -7 OFFCURVE",
"541 12 OFFCURVE",
"607 43 CURVE"
);
}
);
width = 662;
},
{
layerId = "6322FA20-8F24-49FB-9B55-AB1214B5D5A0";
name = Bold;
paths = (
{
closed = 1;
nodes = (
"462 757 OFFCURVE",
"524 814 OFFCURVE",
"524 902 CURVE",
"439 902 LINE",
"439 863 OFFCURVE",
"410 836 OFFCURVE",
"366 836 CURVE SMOOTH",
"321 836 OFFCURVE",
"294 861 OFFCURVE",
"294 902 CURVE",
"209 902 LINE",
"209 814 OFFCURVE",
"270 757 OFFCURVE",
"366 757 CURVE SMOOTH"
);
},
{
closed = 1;
nodes = (
"627 360 LINE",
"485 360 LINE",
"485 126 LINE",
"453 117 OFFCURVE",
"423 113 OFFCURVE",
"391 113 CURVE SMOOTH",
"265 113 OFFCURVE",
"194 202 OFFCURVE",
"194 357 CURVE SMOOTH",
"194 513 OFFCURVE",
"269 595 OFFCURVE",
"413 595 CURVE SMOOTH",
"464 595 OFFCURVE",
"511 583 OFFCURVE",
"578 555 CURVE",
"623 663 LINE",
"559 698 OFFCURVE",
"475 718 OFFCURVE",
"395 718 CURVE SMOOTH",
"167 718 OFFCURVE",
"37 586 OFFCURVE",
"37 354 CURVE SMOOTH",
"37 123 OFFCURVE",
"163 -8 OFFCURVE",
"383 -8 CURVE SMOOTH",
"464 -8 OFFCURVE",
"553 11 OFFCURVE",
"627 44 CURVE"
);
}
);
width = 674;
}
);
leftKerningGroup = C;
unicode = 011E;
},
{
glyphname = Gcircumflex;
lastChange = "2014-11-26 20:43:10 +0000";
layers = (
{
layerId = "06DA83F7-7F04-4345-A73D-275D0ED9D5E5";
name = Regular;
paths = (
{
closed = 1;
nodes = (
"243 761 LINE",
"357 849 LINE",
"472 761 LINE",
"509 795 LINE",
"376 929 LINE",
"339 929 LINE",
"206 795 LINE"
);
},
{
closed = 1;
nodes = (
"607 352 LINE",
"511 352 LINE",
"511 103 LINE",
"468 90 OFFCURVE",
"423 83 OFFCURVE",
"381 83 CURVE SMOOTH",
"232 83 OFFCURVE",
"148 181 OFFCURVE",
"148 356 CURVE SMOOTH",
"148 529 OFFCURVE",
"233 626 OFFCURVE",
"384 626 CURVE SMOOTH",
"443 626 OFFCURVE",
"498 611 OFFCURVE",
"562 579 CURVE",
"602 657 LINE",
"535 695 OFFCURVE",
"458 716 OFFCURVE",
"384 716 CURVE SMOOTH",
"173 716 OFFCURVE",
"48 582 OFFCURVE",
"48 356 CURVE SMOOTH",
"48 121 OFFCURVE",
"164 -7 OFFCURVE",
"377 -7 CURVE SMOOTH",
"453 -7 OFFCURVE",
"541 12 OFFCURVE",
"607 43 CURVE"
);
}
);
width = 662;
},
{
layerId = "6322FA20-8F24-49FB-9B55-AB1214B5D5A0";
name = Bold;
paths = (
{
closed = 1;
nodes = (
"235 751 LINE",
"365 838 LINE",
"496 751 LINE",
"537 801 LINE",
"381 942 LINE",
"350 942 LINE",
"194 801 LINE"
);
},
{
closed = 1;
nodes = (
"627 360 LINE",
"485 360 LINE",
"485 126 LINE",
"453 117 OFFCURVE",
"423 113 OFFCURVE",
"391 113 CURVE SMOOTH",
"265 113 OFFCURVE",
"194 202 OFFCURVE",
"194 357 CURVE SMOOTH",
"194 513 OFFCURVE",
"269 595 OFFCURVE",
"413 595 CURVE SMOOTH",
"464 595 OFFCURVE",
"511 583 OFFCURVE",
"578 555 CURVE",
"623 663 LINE",
"559 698 OFFCURVE",
"475 718 OFFCURVE",
"395 718 CURVE SMOOTH",
"167 718 OFFCURVE",
"37 586 OFFCURVE",
"37 354 CURVE SMOOTH",
"37 123 OFFCURVE",
"163 -8 OFFCURVE",
"383 -8 CURVE SMOOTH",
"464 -8 OFFCURVE",
"553 11 OFFCURVE",
"627 44 CURVE"
);
}
);
width = 674;
}
);
leftKerningGroup = C;
unicode = 011C;
},
{
glyphname = Gdotaccent;
lastChange = "2014-11-26 20:43:10 +0000";
layers = (
{
layerId = "06DA83F7-7F04-4345-A73D-275D0ED9D5E5";
name = Regular;
paths = (
{
closed = 1;
nodes = (
"405 797 LINE",
"405 890 LINE",
"312 890 LINE",
"312 797 LINE"
);
},
{
closed = 1;
nodes = (
"607 352 LINE",
"511 352 LINE",
"511 103 LINE",
"468 90 OFFCURVE",
"423 83 OFFCURVE",
"381 83 CURVE SMOOTH",
"232 83 OFFCURVE",
"148 181 OFFCURVE",
"148 356 CURVE SMOOTH",
"148 529 OFFCURVE",
"233 626 OFFCURVE",
"384 626 CURVE SMOOTH",
"443 626 OFFCURVE",
"498 611 OFFCURVE",
"562 579 CURVE",
"602 657 LINE",
"535 695 OFFCURVE",
"458 716 OFFCURVE",
"384 716 CURVE SMOOTH",
"173 716 OFFCURVE",
"48 582 OFFCURVE",
"48 356 CURVE SMOOTH",
"48 121 OFFCURVE",
"164 -7 OFFCURVE",
"377 -7 CURVE SMOOTH",
"453 -7 OFFCURVE",
"541 12 OFFCURVE",
"607 43 CURVE"
);
}
);
width = 662;
},
{
layerId = "6322FA20-8F24-49FB-9B55-AB1214B5D5A0";
name = Bold;
paths = (
{
closed = 1;
nodes = (
"427 786 LINE",
"427 904 LINE",
"305 904 LINE",
"305 786 LINE"
);
},
{
closed = 1;
nodes = (
"627 360 LINE",
"485 360 LINE",
"485 126 LINE",
"453 117 OFFCURVE",
"423 113 OFFCURVE",
"391 113 CURVE SMOOTH",
"265 113 OFFCURVE",
"194 202 OFFCURVE",
"194 357 CURVE SMOOTH",
"194 513 OFFCURVE",
"269 595 OFFCURVE",
"413 595 CURVE SMOOTH",
"464 595 OFFCURVE",
"511 583 OFFCURVE",
"578 555 CURVE",
"623 663 LINE",
"559 698 OFFCURVE",
"475 718 OFFCURVE",
"395 718 CURVE SMOOTH",
"167 718 OFFCURVE",
"37 586 OFFCURVE",
"37 354 CURVE SMOOTH",
"37 123 OFFCURVE",
"163 -8 OFFCURVE",
"383 -8 CURVE SMOOTH",
"464 -8 OFFCURVE",
"553 11 OFFCURVE",
"627 44 CURVE"
);
}
);
width = 674;
}
);
leftKerningGroup = C;
unicode = 0120;
},
{
glyphname = H;
lastChange = "2014-11-26 20:43:10 +0000";
layers = (
{
layerId = "06DA83F7-7F04-4345-A73D-275D0ED9D5E5";
name = Regular;
paths = (
{
closed = 1;
nodes = (
"189 708 LINE",
"93 708 LINE",
"93 0 LINE",
"189 0 LINE",
"189 325 LINE",
"551 325 LINE",
"551 0 LINE",
"647 0 LINE",
"647 708 LINE",
"551 708 LINE",
"551 410 LINE",
"189 410 LINE"
);
}
);
width = 740;
},
{
layerId = "6322FA20-8F24-49FB-9B55-AB1214B5D5A0";
name = Bold;
paths = (
{
closed = 1;
nodes = (
"234 709 LINE",
"81 709 LINE",
"81 0 LINE",
"234 0 LINE",
"234 303 LINE",
"527 303 LINE",
"527 0 LINE",
"680 0 LINE",
"680 709 LINE",
"527 709 LINE",
"527 419 LINE",
"234 419 LINE"
);
}
);
width = 761;
}
);
unicode = 0048;
},
{
glyphname = Hbar;
lastChange = "2014-11-26 20:43:10 +0000";
layers = (
{
layerId = "06DA83F7-7F04-4345-A73D-275D0ED9D5E5";
name = Regular;
paths = (
{
closed = 1;
nodes = (
"717 521 LINE",
"717 601 LINE",
"647 601 LINE",
"647 708 LINE",
"551 708 LINE",
"551 601 LINE",
"189 601 LINE",
"189 708 LINE",
"93 708 LINE",
"93 601 LINE",
"23 601 LINE",
"23 521 LINE",
"93 521 LINE",
"93 0 LINE",
"189 0 LINE",
"189 325 LINE",
"551 325 LINE",
"551 0 LINE",
"647 0 LINE",
"647 521 LINE"
);
},
{
closed = 1;
nodes = (
"551 521 LINE",
"551 410 LINE",
"189 410 LINE",
"189 521 LINE"
);
}
);
width = 740;
},
{
layerId = "6322FA20-8F24-49FB-9B55-AB1214B5D5A0";
name = Bold;
paths = (
{
closed = 1;
nodes = (
"745 511 LINE",
"745 610 LINE",
"682 610 LINE",
"682 709 LINE",
"529 709 LINE",
"529 610 LINE",
"235 610 LINE",
"235 709 LINE",
"82 709 LINE",
"82 610 LINE",
"19 610 LINE",
"19 511 LINE",
"82 511 LINE",
"82 0 LINE",
"235 0 LINE",
"235 303 LINE",
"529 303 LINE",
"529 0 LINE",
"682 0 LINE",
"682 511 LINE"
);
},
{
closed = 1;
nodes = (
"529 511 LINE",
"529 419 LINE",
"235 419 LINE",
"235 511 LINE"
);
}
);
width = 764;
}
);
unicode = 0126;
},
{
glyphname = Hcircumflex;
lastChange = "2014-11-26 20:43:10 +0000";
layers = (
{
layerId = "06DA83F7-7F04-4345-A73D-275D0ED9D5E5";
name = Regular;
paths = (
{
closed = 1;
nodes = (
"520 795 LINE",
"387 929 LINE",
"350 929 LINE",
"217 795 LINE",
"254 761 LINE",
"368 849 LINE",
"483 761 LINE"
);
},
{
closed = 1;
nodes = (
"189 708 LINE",
"93 708 LINE",
"93 0 LINE",
"189 0 LINE",
"189 325 LINE",
"551 325 LINE",
"551 0 LINE",
"647 0 LINE",
"647 708 LINE",
"551 708 LINE",
"551 410 LINE",
"189 410 LINE"
);
}
);
width = 740;
},
{
layerId = "6322FA20-8F24-49FB-9B55-AB1214B5D5A0";
name = Bold;
paths = (
{
closed = 1;
nodes = (
"551 801 LINE",
"395 942 LINE",
"364 942 LINE",
"208 801 LINE",
"249 751 LINE",
"379 838 LINE",
"510 751 LINE"
);
},
{
closed = 1;
nodes = (
"234 709 LINE",
"81 709 LINE",
"81 0 LINE",
"234 0 LINE",
"234 303 LINE",
"527 303 LINE",
"527 0 LINE",
"680 0 LINE",
"680 709 LINE",
"527 709 LINE",
"527 419 LINE",
"234 419 LINE"
);
}
);
width = 761;
}
);
unicode = 0124;
},
{
glyphname = I;
lastChange = "2014-11-26 20:43:10 +0000";
layers = (
{
layerId = "06DA83F7-7F04-4345-A73D-275D0ED9D5E5";
name = Regular;
paths = (
{
closed = 1;
nodes = (
"189 708 LINE",
"93 708 LINE",
"93 0 LINE",
"189 0 LINE"
);
}
);
width = 282;
},
{
layerId = "6322FA20-8F24-49FB-9B55-AB1214B5D5A0";
name = Bold;
paths = (
{
closed = 1;
nodes = (
"234 709 LINE",
"81 709 LINE",
"81 0 LINE",
"234 0 LINE"
);
}
);
width = 314;
}
);
unicode = 0049;
},
{
glyphname = IJ;
lastChange = "2014-11-26 20:43:10 +0000";
layers = (
{
layerId = "06DA83F7-7F04-4345-A73D-275D0ED9D5E5";
name = Regular;
paths = (
{
closed = 1;
nodes = (
"531 708 LINE",
"297 708 LINE",
"297 623 LINE",
"435 623 LINE",
"435 208 LINE SMOOTH",
"435 120 OFFCURVE",
"395 80 OFFCURVE",
"304 80 CURVE SMOOTH",
"213 80 OFFCURVE",
"174 120 OFFCURVE",
"174 208 CURVE SMOOTH",
"174 514 LINE",
"78 514 LINE",
"78 208 LINE SMOOTH",
"78 69 OFFCURVE",
"158 -9 OFFCURVE",
"304 -9 CURVE SMOOTH",
"449 -9 OFFCURVE",
"531 70 OFFCURVE",
"531 208 CURVE SMOOTH"
);
},
{
closed = 1;
nodes = (
"174 614 LINE",
"174 708 LINE",
"78 708 LINE",
"78 614 LINE"
);
}
);
width = 609;
},
{
layerId = "6322FA20-8F24-49FB-9B55-AB1214B5D5A0";
name = Bold;
paths = (
{
closed = 1;
nodes = (
"585 709 LINE",
"319 709 LINE",
"319 595 LINE",
"432 595 LINE",
"432 220 LINE SMOOTH",
"432 146 OFFCURVE",
"397 111 OFFCURVE",
"323 111 CURVE SMOOTH",
"248 111 OFFCURVE",
"214 146 OFFCURVE",
"214 220 CURVE SMOOTH",
"214 502 LINE",
"61 502 LINE",
"61 222 LINE SMOOTH",
"61 68 OFFCURVE",
"149 -10 OFFCURVE",
"323 -10 CURVE SMOOTH",
"495 -10 OFFCURVE",
"585 70 OFFCURVE",
"585 222 CURVE SMOOTH"
);
},
{
closed = 1;
nodes = (
"214 588 LINE",
"214 709 LINE",
"61 709 LINE",
"61 588 LINE"
);
}
);
width = 652;
}
);
leftKerningGroup = IJ;
rightKerningGroup = IJ;
unicode = 0132;
},
{
glyphname = Iacute;
lastChange = "2014-11-26 20:43:10 +0000";
layers = (
{
layerId = "06DA83F7-7F04-4345-A73D-275D0ED9D5E5";
name = Regular;
paths = (
{
closed = 1;
nodes = (
"228 959 LINE",
"95 795 LINE",
"132 761 LINE",
"288 897 LINE"
);
},
{
closed = 1;
nodes = (
"189 708 LINE",
"93 708 LINE",
"93 0 LINE",
"189 0 LINE"
);
}
);
width = 282;
},
{
layerId = "6322FA20-8F24-49FB-9B55-AB1214B5D5A0";
name = Bold;
paths = (
{
closed = 1;
nodes = (
"246 965 LINE",
"90 804 LINE",
"131 754 LINE",
"311 879 LINE"
);
},
{
closed = 1;
nodes = (
"234 709 LINE",
"81 709 LINE",
"81 0 LINE",
"234 0 LINE"
);
}
);
width = 314;
}
);
unicode = 00CD;
},
{
glyphname = Ibreve;
lastChange = "2014-11-26 20:43:10 +0000";
layers = (
{
layerId = "06DA83F7-7F04-4345-A73D-275D0ED9D5E5";
name = Regular;
paths = (
{
closed = 1;
nodes = (
"224 901 LINE",
"224 861 OFFCURVE",
"191 832 OFFCURVE",
"144 832 CURVE SMOOTH",
"96 832 OFFCURVE",
"65 859 OFFCURVE",
"65 901 CURVE",
"1 901 LINE",
"1 821 OFFCURVE",
"58 767 OFFCURVE",
"144 767 CURVE SMOOTH",
"230 767 OFFCURVE",
"288 821 OFFCURVE",
"288 901 CURVE"
);
},
{
closed = 1;
nodes = (
"189 708 LINE",
"93 708 LINE",
"93 0 LINE",
"189 0 LINE"
);
}
);
width = 282;
},
{
layerId = "6322FA20-8F24-49FB-9B55-AB1214B5D5A0";
name = Bold;
paths = (
{
closed = 1;
nodes = (
"232 902 LINE",
"232 863 OFFCURVE",
"203 836 OFFCURVE",
"159 836 CURVE SMOOTH",
"114 836 OFFCURVE",
"87 861 OFFCURVE",
"87 902 CURVE",
"2 902 LINE",
"2 814 OFFCURVE",
"63 757 OFFCURVE",
"159 757 CURVE SMOOTH",
"255 757 OFFCURVE",
"317 814 OFFCURVE",
"317 902 CURVE"
);
},
{
closed = 1;
nodes = (
"234 709 LINE",
"81 709 LINE",
"81 0 LINE",
"234 0 LINE"
);
}
);
width = 314;
}
);
unicode = 012C;
},
{
glyphname = Icircumflex;
lastChange = "2014-11-26 20:43:10 +0000";
layers = (
{
layerId = "06DA83F7-7F04-4345-A73D-275D0ED9D5E5";
name = Regular;
paths = (
{
closed = 1;
nodes = (
"294 795 LINE",
"161 929 LINE",
"124 929 LINE",
"-9 795 LINE",
"28 761 LINE",
"142 849 LINE",
"257 761 LINE"
);
},
{
closed = 1;
nodes = (
"189 708 LINE",
"93 708 LINE",
"93 0 LINE",
"189 0 LINE"
);
}
);
width = 282;
},
{
layerId = "6322FA20-8F24-49FB-9B55-AB1214B5D5A0";
name = Bold;
paths = (
{
closed = 1;
nodes = (
"330 801 LINE",
"174 942 LINE",
"143 942 LINE",
"-13 801 LINE",
"28 751 LINE",
"158 838 LINE",
"289 751 LINE"
);
},
{
closed = 1;
nodes = (
"234 709 LINE",
"81 709 LINE",
"81 0 LINE",
"234 0 LINE"
);
}
);
width = 314;
}
);
unicode = 00CE;
},
{
glyphname = Idieresis;
lastChange = "2014-11-26 20:43:10 +0000";
layers = (
{
layerId = "06DA83F7-7F04-4345-A73D-275D0ED9D5E5";
name = Regular;
paths = (
{
closed = 1;
nodes = (
"98 890 LINE",
"5 890 LINE",
"5 797 LINE",
"98 797 LINE"
);
},
{
closed = 1;
nodes = (
"279 890 LINE",
"187 890 LINE",
"187 797 LINE",
"279 797 LINE"
);
},
{
closed = 1;
nodes = (
"189 708 LINE",
"93 708 LINE",
"93 0 LINE",
"189 0 LINE"
);
}
);
width = 282;
},
{
layerId = "6322FA20-8F24-49FB-9B55-AB1214B5D5A0";
name = Bold;
paths = (
{
closed = 1;
nodes = (
"116 901 LINE",
"-6 901 LINE",
"-6 783 LINE",
"116 783 LINE"
);
},
{
closed = 1;
nodes = (
"322 901 LINE",
"201 901 LINE",
"201 783 LINE",
"322 783 LINE"
);
},
{
closed = 1;
nodes = (
"234 709 LINE",
"81 709 LINE",
"81 0 LINE",
"234 0 LINE"
);
}
);
width = 314;
}
);
unicode = 00CF;
},
{
glyphname = Idotaccent;
lastChange = "2014-11-26 20:43:10 +0000";
layers = (
{
layerId = "06DA83F7-7F04-4345-A73D-275D0ED9D5E5";
name = Regular;
paths = (
{
closed = 1;
nodes = (
"190 890 LINE",
"97 890 LINE",
"97 797 LINE",
"190 797 LINE"
);
},
{
closed = 1;
nodes = (
"189 708 LINE",
"93 708 LINE",
"93 0 LINE",
"189 0 LINE"
);
}
);
width = 282;
},
{
layerId = "6322FA20-8F24-49FB-9B55-AB1214B5D5A0";
name = Bold;
paths = (
{
closed = 1;
nodes = (
"220 904 LINE",
"98 904 LINE",
"98 786 LINE",
"220 786 LINE"
);
},
{
closed = 1;
nodes = (
"234 709 LINE",
"81 709 LINE",
"81 0 LINE",
"234 0 LINE"
);
}
);
width = 314;
}
);
unicode = 0130;
},
{
glyphname = Igrave;
lastChange = "2014-11-26 20:43:10 +0000";
layers = (
{
layerId = "06DA83F7-7F04-4345-A73D-275D0ED9D5E5";
name = Regular;
paths = (
{
closed = 1;
nodes = (
"174 795 LINE",
"41 959 LINE",
"-19 897 LINE",
"137 761 LINE"
);
},
{
closed = 1;
nodes = (
"189 708 LINE",
"93 708 LINE",
"93 0 LINE",
"189 0 LINE"
);
}
);
width = 282;
},
{
layerId = "6322FA20-8F24-49FB-9B55-AB1214B5D5A0";
name = Bold;
paths = (
{
closed = 1;
nodes = (
"202 804 LINE",
"46 965 LINE",
"-19 879 LINE",
"161 754 LINE"
);
},
{
closed = 1;
nodes = (
"234 709 LINE",
"81 709 LINE",
"81 0 LINE",
"234 0 LINE"
);
}
);
width = 314;
}
);
unicode = 00CC;
},
{
glyphname = Imacron;
lastChange = "2014-11-26 20:43:10 +0000";
layers = (
{
layerId = "06DA83F7-7F04-4345-A73D-275D0ED9D5E5";
name = Regular;
paths = (
{
closed = 1;
nodes = (
"296 878 LINE",
"-8 878 LINE",
"-8 808 LINE",
"296 808 LINE"
);
},
{
closed = 1;
nodes = (
"189 708 LINE",
"93 708 LINE",
"93 0 LINE",
"189 0 LINE"
);
}
);
width = 282;
},
{
layerId = "6322FA20-8F24-49FB-9B55-AB1214B5D5A0";
name = Bold;
paths = (
{
closed = 1;
nodes = (
"324 886 LINE",
"-6 886 LINE",
"-6 793 LINE",
"324 793 LINE"
);
},
{
closed = 1;
nodes = (
"234 709 LINE",
"81 709 LINE",
"81 0 LINE",
"234 0 LINE"
);
}
);
width = 314;
}
);
unicode = 012A;
},
{
glyphname = Iogonek;
lastChange = "2014-11-26 20:43:10 +0000";
layers = (
{
layerId = "06DA83F7-7F04-4345-A73D-275D0ED9D5E5";
name = Regular;
paths = (
{
closed = 1;
nodes = (
"30 -183 OFFCURVE",
"74 -225 OFFCURVE",
"131 -225 CURVE SMOOTH",
"169 -225 OFFCURVE",
"196 -215 OFFCURVE",
"226 -199 CURVE",
"212 -159 LINE",
"197 -165 OFFCURVE",
"180 -169 OFFCURVE",
"164 -169 CURVE SMOOTH",
"127 -169 OFFCURVE",
"114 -142 OFFCURVE",
"114 -113 CURVE SMOOTH",
"114 -63 OFFCURVE",
"144 -31 OFFCURVE",
"184 0 CURVE",
"189 0 LINE",
"189 708 LINE",
"93 708 LINE",
"93 0 LINE",
"105 0 LINE",
"64 -33 OFFCURVE",
"30 -74 OFFCURVE",
"30 -131 CURVE SMOOTH"
);
}
);
width = 282;
},
{
layerId = "6322FA20-8F24-49FB-9B55-AB1214B5D5A0";
name = Bold;
paths = (
{
closed = 1;
nodes = (
"30 -185 OFFCURVE",
"74 -225 OFFCURVE",
"136 -225 CURVE SMOOTH",
"181 -225 OFFCURVE",
"215 -214 OFFCURVE",
"257 -192 CURVE",
"239 -141 LINE",
"224 -148 OFFCURVE",
"206 -152 OFFCURVE",
"191 -152 CURVE SMOOTH",
"159 -152 OFFCURVE",
"147 -131 OFFCURVE",
"147 -105 CURVE SMOOTH",
"147 -63 OFFCURVE",
"174 -28 OFFCURVE",
"224 0 CURVE",
"235 0 LINE",
"235 709 LINE",
"82 709 LINE",
"82 0 LINE",
"112 0 LINE",
"66 -30 OFFCURVE",
"30 -75 OFFCURVE",
"30 -130 CURVE SMOOTH"
);
}
);
width = 317;
}
);
unicode = 012E;
},
{
glyphname = Itilde;
lastChange = "2014-11-26 20:43:10 +0000";
layers = (
{
layerId = "06DA83F7-7F04-4345-A73D-275D0ED9D5E5";
name = Regular;
paths = (
{
closed = 1;
nodes = (
"34 908 OFFCURVE",
"0 861 OFFCURVE",
"0 793 CURVE",
"63 793 LINE",
"63 826 OFFCURVE",
"78 843 OFFCURVE",
"97 843 CURVE SMOOTH",
"131 843 OFFCURVE",
"147 787 OFFCURVE",
"202 787 CURVE SMOOTH",
"254 787 OFFCURVE",
"288 834 OFFCURVE",
"288 902 CURVE",
"225 902 LINE",
"225 871 OFFCURVE",
"213 854 OFFCURVE",
"195 854 CURVE SMOOTH",
"159 854 OFFCURVE",
"147 908 OFFCURVE",
"90 908 CURVE SMOOTH"
);
},
{
closed = 1;
nodes = (
"189 708 LINE",
"93 708 LINE",
"93 0 LINE",
"189 0 LINE"
);
}
);
width = 282;
},
{
layerId = "6322FA20-8F24-49FB-9B55-AB1214B5D5A0";
name = Bold;
paths = (
{
closed = 1;
nodes = (
"36 925 OFFCURVE",
"-3 871 OFFCURVE",
"-3 785 CURVE",
"74 785 LINE",
"74 822 OFFCURVE",
"89 842 OFFCURVE",
"111 842 CURVE SMOOTH",
"148 842 OFFCURVE",
"161 776 OFFCURVE",
"221 776 CURVE SMOOTH",
"281 776 OFFCURVE",
"321 832 OFFCURVE",
"321 916 CURVE",
"244 916 LINE",
"244 881 OFFCURVE",
"232 860 OFFCURVE",
"212 860 CURVE SMOOTH",
"167 860 OFFCURVE",
"163 925 OFFCURVE",
"101 925 CURVE SMOOTH"
);
},
{
closed = 1;
nodes = (
"234 709 LINE",
"81 709 LINE",
"81 0 LINE",
"234 0 LINE"
);
}
);
width = 314;
}
);
unicode = 0128;
},
{
glyphname = J;
lastChange = "2014-11-26 20:43:10 +0000";
layers = (
{
layerId = "06DA83F7-7F04-4345-A73D-275D0ED9D5E5";
name = Regular;
paths = (
{
closed = 1;
nodes = (
"33 -139 LINE",
"151 -99 OFFCURVE",
"244 16 OFFCURVE",
"244 121 CURVE SMOOTH",
"244 708 LINE",
"11 708 LINE",
"11 623 LINE",
"150 623 LINE",
"150 121 LINE SMOOTH",
"150 47 OFFCURVE",
"83 -39 OFFCURVE",
"-3 -74 CURVE"
);
}
);
width = 334;
},
{
layerId = "6322FA20-8F24-49FB-9B55-AB1214B5D5A0";
name = Bold;
paths = (
{
closed = 1;
nodes = (
"40 -155 LINE",
"202 -94 OFFCURVE",
"296 17 OFFCURVE",
"296 141 CURVE SMOOTH",
"296 709 LINE",
"9 709 LINE",
"9 596 LINE",
"145 596 LINE",
"145 143 LINE SMOOTH",
"145 57 OFFCURVE",
"92 -11 OFFCURVE",
"-10 -64 CURVE"
);
}
);
width = 373;
}
);
leftKerningGroup = J;
unicode = 004A;
},
{
glyphname = Jcircumflex;
lastChange = "2014-11-26 20:43:10 +0000";
layers = (
{
layerId = "06DA83F7-7F04-4345-A73D-275D0ED9D5E5";
name = Regular;
paths = (
{
closed = 1;
nodes = (
"297 795 LINE",
"164 929 LINE",
"127 929 LINE",
"-6 795 LINE",
"31 761 LINE",
"145 849 LINE",
"260 761 LINE"
);
},
{
closed = 1;
nodes = (
"33 -139 LINE",
"151 -99 OFFCURVE",
"244 16 OFFCURVE",
"244 121 CURVE SMOOTH",
"244 708 LINE",
"11 708 LINE",
"11 623 LINE",
"150 623 LINE",
"150 121 LINE SMOOTH",
"150 47 OFFCURVE",
"83 -39 OFFCURVE",
"-3 -74 CURVE"
);
}
);
width = 334;
},
{
layerId = "6322FA20-8F24-49FB-9B55-AB1214B5D5A0";
name = Bold;
paths = (
{
closed = 1;
nodes = (
"342 801 LINE",
"186 942 LINE",
"155 942 LINE",
"-1 801 LINE",
"40 751 LINE",
"170 838 LINE",
"301 751 LINE"
);
},
{
closed = 1;
nodes = (
"40 -155 LINE",
"202 -94 OFFCURVE",
"296 17 OFFCURVE",
"296 141 CURVE SMOOTH",
"296 709 LINE",
"9 709 LINE",
"9 596 LINE",
"145 596 LINE",
"145 143 LINE SMOOTH",
"145 57 OFFCURVE",
"92 -11 OFFCURVE",
"-10 -64 CURVE"
);
}
);
width = 373;
}
);
unicode = 0134;
},
{
glyphname = K;
lastChange = "2014-11-26 20:43:10 +0000";
layers = (
{
layerId = "06DA83F7-7F04-4345-A73D-275D0ED9D5E5";
name = Regular;
paths = (
{
closed = 1;
nodes = (
"189 708 LINE",
"93 708 LINE",
"93 0 LINE",
"189 0 LINE"
);
},
{
closed = 1;
nodes = (
"492 708 LINE",
"210 382 LINE",
"512 0 LINE",
"634 0 LINE",
"329 384 LINE",
"609 708 LINE"
);
}
);
width = 641;
},
{
layerId = "6322FA20-8F24-49FB-9B55-AB1214B5D5A0";
name = Bold;
paths = (
{
closed = 1;
nodes = (
"234 709 LINE",
"81 709 LINE",
"81 0 LINE",
"234 0 LINE"
);
},
{
closed = 1;
nodes = (
"485 709 LINE",
"248 379 LINE",
"507 0 LINE",
"681 0 LINE",
"414 381 LINE",
"657 709 LINE"
);
}
);
width = 683;
}
);
rightKerningGroup = K;
unicode = 004B;
},
{
glyphname = L;
lastChange = "2014-11-26 20:43:10 +0000";
layers = (
{
layerId = "06DA83F7-7F04-4345-A73D-275D0ED9D5E5";
name = Regular;
paths = (
{
closed = 1;
nodes = (
"189 708 LINE",
"93 708 LINE",
"93 0 LINE",
"512 0 LINE",
"512 85 LINE",
"189 85 LINE"
);
}
);
width = 523;
},
{
layerId = "6322FA20-8F24-49FB-9B55-AB1214B5D5A0";
name = Bold;
paths = (
{
closed = 1;
nodes = (
"227 709 LINE",
"81 709 LINE",
"81 0 LINE",
"525 0 LINE",
"525 116 LINE",
"227 116 LINE"
);
}
);
width = 532;
}
);
rightKerningGroup = L;
unicode = 004C;
},
{
glyphname = Lacute;
lastChange = "2014-11-26 20:43:10 +0000";
layers = (
{
layerId = "06DA83F7-7F04-4345-A73D-275D0ED9D5E5";
name = Regular;
paths = (
{
closed = 1;
nodes = (
"230 941 LINE",
"97 777 LINE",
"134 743 LINE",
"290 879 LINE"
);
},
{
closed = 1;
nodes = (
"189 708 LINE",
"93 708 LINE",
"93 0 LINE",
"512 0 LINE",
"512 85 LINE",
"189 85 LINE"
);
}
);
width = 523;
},
{
layerId = "6322FA20-8F24-49FB-9B55-AB1214B5D5A0";
name = Bold;
paths = (
{
closed = 1;
nodes = (
"245 953 LINE",
"89 792 LINE",
"130 742 LINE",
"310 867 LINE"
);
},
{
closed = 1;
nodes = (
"227 709 LINE",
"81 709 LINE",
"81 0 LINE",
"525 0 LINE",
"525 116 LINE",
"227 116 LINE"
);
}
);
width = 532;
}
);
rightKerningGroup = L;
unicode = 0139;
},
{
glyphname = Lcaron;
lastChange = "2014-11-26 20:43:10 +0000";
layers = (
{
layerId = "06DA83F7-7F04-4345-A73D-275D0ED9D5E5";
name = Regular;
paths = (
{
closed = 1;
nodes = (
"489 698 LINE",
"404 710 LINE",
"404 518 LINE",
"453 514 LINE"
);
},
{
closed = 1;
nodes = (
"189 708 LINE",
"93 708 LINE",
"93 0 LINE",
"512 0 LINE",
"512 85 LINE",
"189 85 LINE"
);
}
);
width = 523;
},
{
layerId = "6322FA20-8F24-49FB-9B55-AB1214B5D5A0";
name = Bold;
paths = (
{
closed = 1;
nodes = (
"512 701 LINE",
"404 717 LINE",
"402 511 LINE",
"466 504 LINE"
);
},
{
closed = 1;
nodes = (
"227 709 LINE",
"81 709 LINE",
"81 0 LINE",
"525 0 LINE",
"525 116 LINE",
"227 116 LINE"
);
}
);
width = 531;
}
);
unicode = 013D;
},
{
glyphname = Ldot;
lastChange = "2014-11-26 20:43:10 +0000";
layers = (
{
layerId = "06DA83F7-7F04-4345-A73D-275D0ED9D5E5";
name = Regular;
paths = (
{
closed = 1;
nodes = (
"189 708 LINE",
"93 708 LINE",
"93 0 LINE",
"512 0 LINE",
"512 85 LINE",
"189 85 LINE"
);
},
{
closed = 1;
nodes = (
"494 438 LINE",
"401 438 LINE",
"401 345 LINE",
"494 345 LINE"
);
}
);
width = 530;
},
{
layerId = "6322FA20-8F24-49FB-9B55-AB1214B5D5A0";
name = Bold;
paths = (
{
closed = 1;
nodes = (
"227 709 LINE",
"81 709 LINE",
"81 0 LINE",
"525 0 LINE",
"525 116 LINE",
"227 116 LINE"
);
},
{
closed = 1;
nodes = (
"506 458 LINE",
"385 458 LINE",
"385 340 LINE",
"506 340 LINE"
);
}
);
width = 534;
}
);
rightKerningGroup = L;
unicode = 013F;
},
{
glyphname = Lslash;
lastChange = "2014-11-26 20:43:10 +0000";
layers = (
{
layerId = "06DA83F7-7F04-4345-A73D-275D0ED9D5E5";
name = Regular;
paths = (
{
closed = 1;
nodes = (
"512 85 LINE",
"189 85 LINE",
"189 358 LINE",
"379 468 LINE",
"379 561 LINE",
"189 451 LINE",
"189 708 LINE",
"93 708 LINE",
"93 396 LINE",
"20 354 LINE",
"20 261 LINE",
"93 303 LINE",
"93 0 LINE",
"512 0 LINE"
);
}
);
width = 523;
},
{
layerId = "6322FA20-8F24-49FB-9B55-AB1214B5D5A0";
name = Bold;
paths = (
{
closed = 1;
nodes = (
"523 114 LINE",
"229 114 LINE",
"229 348 LINE",
"406 438 LINE",
"406 554 LINE",
"229 464 LINE",
"229 709 LINE",
"82 709 LINE",
"82 390 LINE",
"14 355 LINE",
"14 239 LINE",
"82 274 LINE",
"82 0 LINE",
"523 0 LINE"
);
}
);
width = 526;
}
);
rightKerningGroup = Lslash;
unicode = 0141;
},
{
glyphname = M;
lastChange = "2014-11-26 20:43:10 +0000";
layers = (
{
layerId = "06DA83F7-7F04-4345-A73D-275D0ED9D5E5";
name = Regular;
paths = (
{
closed = 1;
nodes = (
"856 0 LINE",
"766 708 LINE",
"647 708 LINE",
"519 334 LINE SMOOTH",
"497 268 OFFCURVE",
"474 193 OFFCURVE",
"452 128 CURVE",
"430 193 OFFCURVE",
"407 268 OFFCURVE",
"385 334 CURVE SMOOTH",
"257 708 LINE",
"138 708 LINE",
"48 0 LINE",
"139 0 LINE",
"182 344 LINE SMOOTH",
"192 423 OFFCURVE",
"202 513 OFFCURVE",
"212 592 CURVE",
"212 592 OFFCURVE",
"258 436 OFFCURVE",
"290 344 CURVE SMOOTH",
"404 20 LINE",
"500 20 LINE",
"614 344 LINE SMOOTH",
"643 426 OFFCURVE",
"692 592 OFFCURVE",
"692 592 CURVE",
"702 513 OFFCURVE",
"712 423 OFFCURVE",
"722 344 CURVE SMOOTH",
"765 0 LINE"
);
}
);
width = 904;
},
{
layerId = "6322FA20-8F24-49FB-9B55-AB1214B5D5A0";
name = Bold;
paths = (
{
closed = 1;
nodes = (
"894 0 LINE",
"802 709 LINE",
"630 709 LINE",
"527 400 LINE SMOOTH",
"505 330 OFFCURVE",
"480 231 OFFCURVE",
"465 188 CURVE",
"450 231 OFFCURVE",
"425 330 OFFCURVE",
"403 400 CURVE SMOOTH",
"300 709 LINE",
"127 709 LINE",
"36 0 LINE",
"180 0 LINE",
"215 297 LINE",
"241 528 LINE",
"242 528 OFFCURVE",
"278 388 OFFCURVE",
"308 297 CURVE SMOOTH",
"400 23 LINE",
"529 23 LINE",
"622 297 LINE SMOOTH",
"649 381 OFFCURVE",
"688 528 OFFCURVE",
"688 528 CURVE",
"695 475 OFFCURVE",
"705 377 OFFCURVE",
"714 297 CURVE SMOOTH",
"750 0 LINE"
);
}
);
width = 930;
}
);
leftKerningGroup = M;
rightKerningGroup = M;
unicode = 004D;
},
{
glyphname = N;
lastChange = "2014-11-26 20:43:10 +0000";
layers = (
{
layerId = "06DA83F7-7F04-4345-A73D-275D0ED9D5E5";
name = Regular;
paths = (
{
closed = 1;
nodes = (
"644 708 LINE",
"553 708 LINE",
"553 154 LINE",
"515 216 OFFCURVE",
"478 277 OFFCURVE",
"436 336 CURVE SMOOTH",
"174 708 LINE",
"93 708 LINE",
"93 0 LINE",
"184 0 LINE",
"184 556 LINE",
"219 497 OFFCURVE",
"255 438 OFFCURVE",
"294 382 CURVE SMOOTH",
"563 0 LINE",
"644 0 LINE"
);
}
);
width = 737;
},
{
layerId = "6322FA20-8F24-49FB-9B55-AB1214B5D5A0";
name = Bold;
paths = (
{
closed = 1;
nodes = (
"672 709 LINE",
"532 709 LINE",
"532 221 LINE",
"496 281 OFFCURVE",
"456 347 OFFCURVE",
"418 401 CURVE SMOOTH",
"202 709 LINE",
"81 709 LINE",
"81 0 LINE",
"220 0 LINE",
"220 491 LINE",
"255 432 OFFCURVE",
"294 366 OFFCURVE",
"330 314 CURVE SMOOTH",
"550 0 LINE",
"672 0 LINE"
);
}
);
width = 752;
}
);
unicode = 004E;
},
{
glyphname = Nacute;
lastChange = "2014-11-26 20:43:10 +0000";
layers = (
{
layerId = "06DA83F7-7F04-4345-A73D-275D0ED9D5E5";
name = Regular;
paths = (
{
closed = 1;
nodes = (
"364 761 LINE",
"520 897 LINE",
"460 959 LINE",
"327 795 LINE"
);
},
{
closed = 1;
nodes = (
"644 708 LINE",
"553 708 LINE",
"553 154 LINE",
"515 216 OFFCURVE",
"478 277 OFFCURVE",
"436 336 CURVE SMOOTH",
"174 708 LINE",
"93 708 LINE",
"93 0 LINE",
"184 0 LINE",
"184 556 LINE",
"219 497 OFFCURVE",
"255 438 OFFCURVE",
"294 382 CURVE SMOOTH",
"563 0 LINE",
"644 0 LINE"
);
}
);
width = 737;
},
{
layerId = "6322FA20-8F24-49FB-9B55-AB1214B5D5A0";
name = Bold;
paths = (
{
closed = 1;
nodes = (
"354 754 LINE",
"534 879 LINE",
"469 965 LINE",
"313 804 LINE"
);
},
{
closed = 1;
nodes = (
"672 709 LINE",
"532 709 LINE",
"532 221 LINE",
"496 281 OFFCURVE",
"456 347 OFFCURVE",
"418 401 CURVE SMOOTH",
"202 709 LINE",
"81 709 LINE",
"81 0 LINE",
"220 0 LINE",
"220 491 LINE",
"255 432 OFFCURVE",
"294 366 OFFCURVE",
"330 314 CURVE SMOOTH",
"550 0 LINE",
"672 0 LINE"
);
}
);
width = 752;
}
);
unicode = 0143;
},
{
glyphname = Ncaron;
lastChange = "2014-11-26 20:43:10 +0000";
layers = (
{
layerId = "06DA83F7-7F04-4345-A73D-275D0ED9D5E5";
name = Regular;
paths = (
{
closed = 1;
nodes = (
"359 771 LINE",
"396 771 LINE",
"529 905 LINE",
"492 939 LINE",
"377 851 LINE",
"263 939 LINE",
"226 905 LINE"
);
},
{
closed = 1;
nodes = (
"644 708 LINE",
"553 708 LINE",
"553 154 LINE",
"515 216 OFFCURVE",
"478 277 OFFCURVE",
"436 336 CURVE SMOOTH",
"174 708 LINE",
"93 708 LINE",
"93 0 LINE",
"184 0 LINE",
"184 556 LINE",
"219 497 OFFCURVE",
"255 438 OFFCURVE",
"294 382 CURVE SMOOTH",
"563 0 LINE",
"644 0 LINE"
);
}
);
width = 737;
},
{
layerId = "6322FA20-8F24-49FB-9B55-AB1214B5D5A0";
name = Bold;
paths = (
{
closed = 1;
nodes = (
"367 758 LINE",
"398 758 LINE",
"554 899 LINE",
"513 949 LINE",
"382 862 LINE",
"252 949 LINE",
"211 899 LINE"
);
},
{
closed = 1;
nodes = (
"672 709 LINE",
"532 709 LINE",
"532 221 LINE",
"496 281 OFFCURVE",
"456 347 OFFCURVE",
"418 401 CURVE SMOOTH",
"202 709 LINE",
"81 709 LINE",
"81 0 LINE",
"220 0 LINE",
"220 491 LINE",
"255 432 OFFCURVE",
"294 366 OFFCURVE",
"330 314 CURVE SMOOTH",
"550 0 LINE",
"672 0 LINE"
);
}
);
width = 752;
}
);
unicode = 0147;
},
{
glyphname = Eng;
lastChange = "2014-11-26 20:43:10 +0000";
layers = (
{
layerId = "06DA83F7-7F04-4345-A73D-275D0ED9D5E5";
name = Regular;
paths = (
{
closed = 1;
nodes = (
"644 708 LINE",
"553 708 LINE",
"553 171 LINE",
"174 708 LINE",
"93 708 LINE",
"93 0 LINE",
"184 0 LINE",
"184 539 LINE",
"549 19 LINE",
"534 -46 OFFCURVE",
"474 -115 OFFCURVE",
"397 -145 CURVE",
"433 -210 LINE",
"551 -170 OFFCURVE",
"644 -55 OFFCURVE",
"644 50 CURVE SMOOTH"
);
}
);
width = 737;
},
{
layerId = "6322FA20-8F24-49FB-9B55-AB1214B5D5A0";
name = Bold;
paths = (
{
closed = 1;
nodes = (
"673 709 LINE",
"534 709 LINE",
"534 237 LINE",
"204 709 LINE",
"82 709 LINE",
"82 0 LINE",
"222 0 LINE",
"222 472 LINE",
"529 34 LINE",
"513 -32 OFFCURVE",
"462 -86 OFFCURVE",
"377 -130 CURVE",
"420 -217 LINE",
"573 -158 OFFCURVE",
"666 -53 OFFCURVE",
"673 64 CURVE"
);
}
);
width = 756;
}
);
unicode = 014A;
},
{
glyphname = Ntilde;
lastChange = "2014-11-26 20:43:10 +0000";
layers = (
{
layerId = "06DA83F7-7F04-4345-A73D-275D0ED9D5E5";
name = Regular;
paths = (
{
closed = 1;
nodes = (
"355 843 OFFCURVE",
"367 784 OFFCURVE",
"443 784 CURVE SMOOTH",
"508 784 OFFCURVE",
"551 831 OFFCURVE",
"551 903 CURVE",
"487 903 LINE",
"487 873 OFFCURVE",
"471 854 OFFCURVE",
"446 854 CURVE SMOOTH",
"390 854 OFFCURVE",
"382 912 OFFCURVE",
"304 912 CURVE SMOOTH",
"235 912 OFFCURVE",
"191 865 OFFCURVE",
"191 793 CURVE",
"255 793 LINE",
"255 824 OFFCURVE",
"274 843 OFFCURVE",
"303 843 CURVE SMOOTH"
);
},
{
closed = 1;
nodes = (
"644 708 LINE",
"553 708 LINE",
"553 154 LINE",
"515 216 OFFCURVE",
"478 277 OFFCURVE",
"436 336 CURVE SMOOTH",
"174 708 LINE",
"93 708 LINE",
"93 0 LINE",
"184 0 LINE",
"184 556 LINE",
"219 497 OFFCURVE",
"255 438 OFFCURVE",
"294 382 CURVE SMOOTH",
"563 0 LINE",
"644 0 LINE"
);
}
);
width = 737;
},
{
layerId = "6322FA20-8F24-49FB-9B55-AB1214B5D5A0";
name = Bold;
paths = (
{
closed = 1;
nodes = (
"356 842 OFFCURVE",
"376 774 OFFCURVE",
"453 774 CURVE SMOOTH",
"528 774 OFFCURVE",
"577 830 OFFCURVE",
"577 916 CURVE",
"493 916 LINE",
"493 882 OFFCURVE",
"477 860 OFFCURVE",
"452 860 CURVE SMOOTH",
"396 860 OFFCURVE",
"388 927 OFFCURVE",
"306 927 CURVE SMOOTH",
"228 927 OFFCURVE",
"179 873 OFFCURVE",
"179 785 CURVE",
"264 785 LINE",
"264 821 OFFCURVE",
"282 842 OFFCURVE",
"310 842 CURVE SMOOTH"
);
},
{
closed = 1;
nodes = (
"672 709 LINE",
"532 709 LINE",
"532 221 LINE",
"496 281 OFFCURVE",
"456 347 OFFCURVE",
"418 401 CURVE SMOOTH",
"202 709 LINE",
"81 709 LINE",
"81 0 LINE",
"220 0 LINE",
"220 491 LINE",
"255 432 OFFCURVE",
"294 366 OFFCURVE",
"330 314 CURVE SMOOTH",
"550 0 LINE",
"672 0 LINE"
);
}
);
width = 752;
}
);
unicode = 00D1;
},
{
glyphname = O;
lastChange = "2014-11-26 20:43:10 +0000";
layers = (
{
layerId = "06DA83F7-7F04-4345-A73D-275D0ED9D5E5";
name = Regular;
paths = (
{
closed = 1;
nodes = (
"165 716 OFFCURVE",
"48 586 OFFCURVE",
"48 357 CURVE SMOOTH",
"48 120 OFFCURVE",
"162 -10 OFFCURVE",
"370 -10 CURVE SMOOTH",
"577 -10 OFFCURVE",
"691 121 OFFCURVE",
"691 357 CURVE SMOOTH",
"691 585 OFFCURVE",
"574 716 OFFCURVE",
"370 716 CURVE SMOOTH"
);
},
{
closed = 1;
nodes = (
"512 626 OFFCURVE",
"591 530 OFFCURVE",
"591 357 CURVE SMOOTH",
"591 179 OFFCURVE",
"512 80 OFFCURVE",
"370 80 CURVE SMOOTH",
"227 80 OFFCURVE",
"148 178 OFFCURVE",
"148 357 CURVE SMOOTH",
"148 531 OFFCURVE",
"226 626 OFFCURVE",
"370 626 CURVE SMOOTH"
);
}
);
width = 739;
},
{
layerId = "6322FA20-8F24-49FB-9B55-AB1214B5D5A0";
name = Bold;
paths = (
{
closed = 1;
nodes = (
"156 719 OFFCURVE",
"37 590 OFFCURVE",
"37 358 CURVE SMOOTH",
"37 120 OFFCURVE",
"154 -9 OFFCURVE",
"377 -9 CURVE SMOOTH",
"599 -9 OFFCURVE",
"717 121 OFFCURVE",
"717 358 CURVE SMOOTH",
"717 589 OFFCURVE",
"597 719 OFFCURVE",
"377 719 CURVE SMOOTH"
);
},
{
closed = 1;
nodes = (
"498 599 OFFCURVE",
"559 514 OFFCURVE",
"559 358 CURVE SMOOTH",
"559 198 OFFCURVE",
"498 111 OFFCURVE",
"377 111 CURVE SMOOTH",
"256 111 OFFCURVE",
"195 197 OFFCURVE",
"195 358 CURVE SMOOTH",
"195 515 OFFCURVE",
"255 599 OFFCURVE",
"377 599 CURVE SMOOTH"
);
}
);
width = 753;
}
);
leftKerningGroup = C;
rightKerningGroup = D;
unicode = 004F;
},
{
glyphname = Oacute;
lastChange = "2014-11-26 20:43:10 +0000";
layers = (
{
layerId = "06DA83F7-7F04-4345-A73D-275D0ED9D5E5";
name = Regular;
paths = (
{
closed = 1;
nodes = (
"453 959 LINE",
"320 795 LINE",
"357 761 LINE",
"513 897 LINE"
);
},
{
closed = 1;
nodes = (
"165 716 OFFCURVE",
"48 586 OFFCURVE",
"48 357 CURVE SMOOTH",
"48 120 OFFCURVE",
"162 -10 OFFCURVE",
"370 -10 CURVE SMOOTH",
"577 -10 OFFCURVE",
"691 121 OFFCURVE",
"691 357 CURVE SMOOTH",
"691 585 OFFCURVE",
"574 716 OFFCURVE",
"370 716 CURVE SMOOTH"
);
},
{
closed = 1;
nodes = (
"512 626 OFFCURVE",
"591 530 OFFCURVE",
"591 357 CURVE SMOOTH",
"591 179 OFFCURVE",
"512 80 OFFCURVE",
"370 80 CURVE SMOOTH",
"227 80 OFFCURVE",
"148 178 OFFCURVE",
"148 357 CURVE SMOOTH",
"148 531 OFFCURVE",
"226 626 OFFCURVE",
"370 626 CURVE SMOOTH"
);
}
);
width = 739;
},
{
layerId = "6322FA20-8F24-49FB-9B55-AB1214B5D5A0";
name = Bold;
paths = (
{
closed = 1;
nodes = (
"464 965 LINE",
"308 804 LINE",
"349 754 LINE",
"529 879 LINE"
);
},
{
closed = 1;
nodes = (
"156 719 OFFCURVE",
"37 590 OFFCURVE",
"37 358 CURVE SMOOTH",
"37 120 OFFCURVE",
"154 -9 OFFCURVE",
"377 -9 CURVE SMOOTH",
"599 -9 OFFCURVE",
"717 121 OFFCURVE",
"717 358 CURVE SMOOTH",
"717 589 OFFCURVE",
"597 719 OFFCURVE",
"377 719 CURVE SMOOTH"
);
},
{
closed = 1;
nodes = (
"498 599 OFFCURVE",
"559 514 OFFCURVE",
"559 358 CURVE SMOOTH",
"559 198 OFFCURVE",
"498 111 OFFCURVE",
"377 111 CURVE SMOOTH",
"256 111 OFFCURVE",
"195 197 OFFCURVE",
"195 358 CURVE SMOOTH",
"195 515 OFFCURVE",
"255 599 OFFCURVE",
"377 599 CURVE SMOOTH"
);
}
);
width = 753;
}
);
leftKerningGroup = C;
rightKerningGroup = D;
unicode = 00D3;
},
{
glyphname = Obreve;
lastChange = "2014-11-26 20:43:10 +0000";
layers = (
{
layerId = "06DA83F7-7F04-4345-A73D-275D0ED9D5E5";
name = Regular;
paths = (
{
closed = 1;
nodes = (
"449 901 LINE",
"449 861 OFFCURVE",
"416 832 OFFCURVE",
"369 832 CURVE SMOOTH",
"321 832 OFFCURVE",
"290 859 OFFCURVE",
"290 901 CURVE",
"226 901 LINE",
"226 821 OFFCURVE",
"283 767 OFFCURVE",
"369 767 CURVE SMOOTH",
"455 767 OFFCURVE",
"513 821 OFFCURVE",
"513 901 CURVE"
);
},
{
closed = 1;
nodes = (
"165 716 OFFCURVE",
"48 586 OFFCURVE",
"48 357 CURVE SMOOTH",
"48 120 OFFCURVE",
"162 -10 OFFCURVE",
"370 -10 CURVE SMOOTH",
"577 -10 OFFCURVE",
"691 121 OFFCURVE",
"691 357 CURVE SMOOTH",
"691 585 OFFCURVE",
"574 716 OFFCURVE",
"370 716 CURVE SMOOTH"
);
},
{
closed = 1;
nodes = (
"512 626 OFFCURVE",
"591 530 OFFCURVE",
"591 357 CURVE SMOOTH",
"591 179 OFFCURVE",
"512 80 OFFCURVE",
"370 80 CURVE SMOOTH",
"227 80 OFFCURVE",
"148 178 OFFCURVE",
"148 357 CURVE SMOOTH",
"148 531 OFFCURVE",
"226 626 OFFCURVE",
"370 626 CURVE SMOOTH"
);
}
);
width = 739;
},
{
layerId = "6322FA20-8F24-49FB-9B55-AB1214B5D5A0";
name = Bold;
paths = (
{
closed = 1;
nodes = (
"449 902 LINE",
"449 863 OFFCURVE",
"420 836 OFFCURVE",
"376 836 CURVE SMOOTH",
"331 836 OFFCURVE",
"304 861 OFFCURVE",
"304 902 CURVE",
"219 902 LINE",
"219 814 OFFCURVE",
"280 757 OFFCURVE",
"376 757 CURVE SMOOTH",
"472 757 OFFCURVE",
"534 814 OFFCURVE",
"534 902 CURVE"
);
},
{
closed = 1;
nodes = (
"156 719 OFFCURVE",
"37 590 OFFCURVE",
"37 358 CURVE SMOOTH",
"37 120 OFFCURVE",
"154 -9 OFFCURVE",
"377 -9 CURVE SMOOTH",
"599 -9 OFFCURVE",
"717 121 OFFCURVE",
"717 358 CURVE SMOOTH",
"717 589 OFFCURVE",
"597 719 OFFCURVE",
"377 719 CURVE SMOOTH"
);
},
{
closed = 1;
nodes = (
"498 599 OFFCURVE",
"559 514 OFFCURVE",
"559 358 CURVE SMOOTH",
"559 198 OFFCURVE",
"498 111 OFFCURVE",
"377 111 CURVE SMOOTH",
"256 111 OFFCURVE",
"195 197 OFFCURVE",
"195 358 CURVE SMOOTH",
"195 515 OFFCURVE",
"255 599 OFFCURVE",
"377 599 CURVE SMOOTH"
);
}
);
width = 753;
}
);
leftKerningGroup = C;
rightKerningGroup = D;
unicode = 014E;
},
{
glyphname = Ocircumflex;
lastChange = "2014-11-26 20:43:10 +0000";
layers = (
{
layerId = "06DA83F7-7F04-4345-A73D-275D0ED9D5E5";
name = Regular;
paths = (
{
closed = 1;
nodes = (
"519 795 LINE",
"386 929 LINE",
"349 929 LINE",
"216 795 LINE",
"253 761 LINE",
"367 849 LINE",
"482 761 LINE"
);
},
{
closed = 1;
nodes = (
"165 716 OFFCURVE",
"48 586 OFFCURVE",
"48 357 CURVE SMOOTH",
"48 120 OFFCURVE",
"162 -10 OFFCURVE",
"370 -10 CURVE SMOOTH",
"577 -10 OFFCURVE",
"691 121 OFFCURVE",
"691 357 CURVE SMOOTH",
"691 585 OFFCURVE",
"574 716 OFFCURVE",
"370 716 CURVE SMOOTH"
);
},
{
closed = 1;
nodes = (
"512 626 OFFCURVE",
"591 530 OFFCURVE",
"591 357 CURVE SMOOTH",
"591 179 OFFCURVE",
"512 80 OFFCURVE",
"370 80 CURVE SMOOTH",
"227 80 OFFCURVE",
"148 178 OFFCURVE",
"148 357 CURVE SMOOTH",
"148 531 OFFCURVE",
"226 626 OFFCURVE",
"370 626 CURVE SMOOTH"
);
}
);
width = 739;
},
{
layerId = "6322FA20-8F24-49FB-9B55-AB1214B5D5A0";
name = Bold;
paths = (
{
closed = 1;
nodes = (
"547 801 LINE",
"391 942 LINE",
"360 942 LINE",
"204 801 LINE",
"245 751 LINE",
"375 838 LINE",
"506 751 LINE"
);
},
{
closed = 1;
nodes = (
"156 719 OFFCURVE",
"37 590 OFFCURVE",
"37 358 CURVE SMOOTH",
"37 120 OFFCURVE",
"154 -9 OFFCURVE",
"377 -9 CURVE SMOOTH",
"599 -9 OFFCURVE",
"717 121 OFFCURVE",
"717 358 CURVE SMOOTH",
"717 589 OFFCURVE",
"597 719 OFFCURVE",
"377 719 CURVE SMOOTH"
);
},
{
closed = 1;
nodes = (
"498 599 OFFCURVE",
"559 514 OFFCURVE",
"559 358 CURVE SMOOTH",
"559 198 OFFCURVE",
"498 111 OFFCURVE",
"377 111 CURVE SMOOTH",
"256 111 OFFCURVE",
"195 197 OFFCURVE",
"195 358 CURVE SMOOTH",
"195 515 OFFCURVE",
"255 599 OFFCURVE",
"377 599 CURVE SMOOTH"
);
}
);
width = 753;
}
);
leftKerningGroup = C;
rightKerningGroup = D;
unicode = 00D4;
},
{
glyphname = Odieresis;
lastChange = "2014-11-26 20:43:10 +0000";
layers = (
{
layerId = "06DA83F7-7F04-4345-A73D-275D0ED9D5E5";
name = Regular;
paths = (
{
closed = 1;
nodes = (
"323 890 LINE",
"230 890 LINE",
"230 797 LINE",
"323 797 LINE"
);
},
{
closed = 1;
nodes = (
"504 890 LINE",
"412 890 LINE",
"412 797 LINE",
"504 797 LINE"
);
},
{
closed = 1;
nodes = (
"165 716 OFFCURVE",
"48 586 OFFCURVE",
"48 357 CURVE SMOOTH",
"48 120 OFFCURVE",
"162 -10 OFFCURVE",
"370 -10 CURVE SMOOTH",
"577 -10 OFFCURVE",
"691 121 OFFCURVE",
"691 357 CURVE SMOOTH",
"691 585 OFFCURVE",
"574 716 OFFCURVE",
"370 716 CURVE SMOOTH"
);
},
{
closed = 1;
nodes = (
"512 626 OFFCURVE",
"591 530 OFFCURVE",
"591 357 CURVE SMOOTH",
"591 179 OFFCURVE",
"512 80 OFFCURVE",
"370 80 CURVE SMOOTH",
"227 80 OFFCURVE",
"148 178 OFFCURVE",
"148 357 CURVE SMOOTH",
"148 531 OFFCURVE",
"226 626 OFFCURVE",
"370 626 CURVE SMOOTH"
);
}
);
width = 739;
},
{
layerId = "6322FA20-8F24-49FB-9B55-AB1214B5D5A0";
name = Bold;
paths = (
{
closed = 1;
nodes = (
"333 901 LINE",
"211 901 LINE",
"211 783 LINE",
"333 783 LINE"
);
},
{
closed = 1;
nodes = (
"539 901 LINE",
"418 901 LINE",
"418 783 LINE",
"539 783 LINE"
);
},
{
closed = 1;
nodes = (
"156 719 OFFCURVE",
"37 590 OFFCURVE",
"37 358 CURVE SMOOTH",
"37 120 OFFCURVE",
"154 -9 OFFCURVE",
"377 -9 CURVE SMOOTH",
"599 -9 OFFCURVE",
"717 121 OFFCURVE",
"717 358 CURVE SMOOTH",
"717 589 OFFCURVE",
"597 719 OFFCURVE",
"377 719 CURVE SMOOTH"
);
},
{
closed = 1;
nodes = (
"498 599 OFFCURVE",
"559 514 OFFCURVE",
"559 358 CURVE SMOOTH",
"559 198 OFFCURVE",
"498 111 OFFCURVE",
"377 111 CURVE SMOOTH",
"256 111 OFFCURVE",
"195 197 OFFCURVE",
"195 358 CURVE SMOOTH",
"195 515 OFFCURVE",
"255 599 OFFCURVE",
"377 599 CURVE SMOOTH"
);
}
);
width = 753;
}
);
leftKerningGroup = C;
rightKerningGroup = D;
unicode = 00D6;
},
{
glyphname = Ograve;
lastChange = "2014-11-26 20:43:10 +0000";
layers = (
{
layerId = "06DA83F7-7F04-4345-A73D-275D0ED9D5E5";
name = Regular;
paths = (
{
closed = 1;
nodes = (
"399 795 LINE",
"266 959 LINE",
"206 897 LINE",
"362 761 LINE"
);
},
{
closed = 1;
nodes = (
"165 716 OFFCURVE",
"48 586 OFFCURVE",
"48 357 CURVE SMOOTH",
"48 120 OFFCURVE",
"162 -10 OFFCURVE",
"370 -10 CURVE SMOOTH",
"577 -10 OFFCURVE",
"691 121 OFFCURVE",
"691 357 CURVE SMOOTH",
"691 585 OFFCURVE",
"574 716 OFFCURVE",
"370 716 CURVE SMOOTH"
);
},
{
closed = 1;
nodes = (
"512 626 OFFCURVE",
"591 530 OFFCURVE",
"591 357 CURVE SMOOTH",
"591 179 OFFCURVE",
"512 80 OFFCURVE",
"370 80 CURVE SMOOTH",
"227 80 OFFCURVE",
"148 178 OFFCURVE",
"148 357 CURVE SMOOTH",
"148 531 OFFCURVE",
"226 626 OFFCURVE",
"370 626 CURVE SMOOTH"
);
}
);
width = 739;
},
{
layerId = "6322FA20-8F24-49FB-9B55-AB1214B5D5A0";
name = Bold;
paths = (
{
closed = 1;
nodes = (
"420 804 LINE",
"264 965 LINE",
"199 879 LINE",
"379 754 LINE"
);
},
{
closed = 1;
nodes = (
"156 719 OFFCURVE",
"37 590 OFFCURVE",
"37 358 CURVE SMOOTH",
"37 120 OFFCURVE",
"154 -9 OFFCURVE",
"377 -9 CURVE SMOOTH",
"599 -9 OFFCURVE",
"717 121 OFFCURVE",
"717 358 CURVE SMOOTH",
"717 589 OFFCURVE",
"597 719 OFFCURVE",
"377 719 CURVE SMOOTH"
);
},
{
closed = 1;
nodes = (
"498 599 OFFCURVE",
"559 514 OFFCURVE",
"559 358 CURVE SMOOTH",
"559 198 OFFCURVE",
"498 111 OFFCURVE",
"377 111 CURVE SMOOTH",
"256 111 OFFCURVE",
"195 197 OFFCURVE",
"195 358 CURVE SMOOTH",
"195 515 OFFCURVE",
"255 599 OFFCURVE",
"377 599 CURVE SMOOTH"
);
}
);
width = 753;
}
);
leftKerningGroup = C;
rightKerningGroup = D;
unicode = 00D2;
},
{
glyphname = Ohungarumlaut;
lastChange = "2014-11-26 20:43:10 +0000";
layers = (
{
layerId = "06DA83F7-7F04-4345-A73D-275D0ED9D5E5";
name = Regular;
paths = (
{
closed = 1;
nodes = (
"374 959 LINE",
"240 795 LINE",
"277 761 LINE",
"434 897 LINE"
);
},
{
closed = 1;
nodes = (
"544 959 LINE",
"410 795 LINE",
"447 761 LINE",
"604 897 LINE"
);
},
{
closed = 1;
nodes = (
"165 716 OFFCURVE",
"48 586 OFFCURVE",
"48 357 CURVE SMOOTH",
"48 120 OFFCURVE",
"162 -10 OFFCURVE",
"370 -10 CURVE SMOOTH",
"577 -10 OFFCURVE",
"691 121 OFFCURVE",
"691 357 CURVE SMOOTH",
"691 585 OFFCURVE",
"574 716 OFFCURVE",
"370 716 CURVE SMOOTH"
);
},
{
closed = 1;
nodes = (
"512 626 OFFCURVE",
"591 530 OFFCURVE",
"591 357 CURVE SMOOTH",
"591 179 OFFCURVE",
"512 80 OFFCURVE",
"370 80 CURVE SMOOTH",
"227 80 OFFCURVE",
"148 178 OFFCURVE",
"148 357 CURVE SMOOTH",
"148 531 OFFCURVE",
"226 626 OFFCURVE",
"370 626 CURVE SMOOTH"
);
}
);
width = 739;
},
{
layerId = "6322FA20-8F24-49FB-9B55-AB1214B5D5A0";
name = Bold;
paths = (
{
closed = 1;
nodes = (
"359 967 LINE",
"234 792 LINE",
"286 754 LINE",
"442 901 LINE"
);
},
{
closed = 1;
nodes = (
"538 967 LINE",
"412 792 LINE",
"464 754 LINE",
"621 901 LINE"
);
},
{
closed = 1;
nodes = (
"156 719 OFFCURVE",
"37 590 OFFCURVE",
"37 358 CURVE SMOOTH",
"37 120 OFFCURVE",
"154 -9 OFFCURVE",
"377 -9 CURVE SMOOTH",
"599 -9 OFFCURVE",
"717 121 OFFCURVE",
"717 358 CURVE SMOOTH",
"717 589 OFFCURVE",
"597 719 OFFCURVE",
"377 719 CURVE SMOOTH"
);
},
{
closed = 1;
nodes = (
"498 599 OFFCURVE",
"559 514 OFFCURVE",
"559 358 CURVE SMOOTH",
"559 198 OFFCURVE",
"498 111 OFFCURVE",
"377 111 CURVE SMOOTH",
"256 111 OFFCURVE",
"195 197 OFFCURVE",
"195 358 CURVE SMOOTH",
"195 515 OFFCURVE",
"255 599 OFFCURVE",
"377 599 CURVE SMOOTH"
);
}
);
width = 753;
}
);
leftKerningGroup = C;
rightKerningGroup = D;
unicode = 0150;
},
{
glyphname = Omacron;
lastChange = "2014-11-26 20:43:10 +0000";
layers = (
{
layerId = "06DA83F7-7F04-4345-A73D-275D0ED9D5E5";
name = Regular;
paths = (
{
closed = 1;
nodes = (
"521 878 LINE",
"217 878 LINE",
"217 808 LINE",
"521 808 LINE"
);
},
{
closed = 1;
nodes = (
"165 716 OFFCURVE",
"48 586 OFFCURVE",
"48 357 CURVE SMOOTH",
"48 120 OFFCURVE",
"162 -10 OFFCURVE",
"370 -10 CURVE SMOOTH",
"577 -10 OFFCURVE",
"691 121 OFFCURVE",
"691 357 CURVE SMOOTH",
"691 585 OFFCURVE",
"574 716 OFFCURVE",
"370 716 CURVE SMOOTH"
);
},
{
closed = 1;
nodes = (
"512 626 OFFCURVE",
"591 530 OFFCURVE",
"591 357 CURVE SMOOTH",
"591 179 OFFCURVE",
"512 80 OFFCURVE",
"370 80 CURVE SMOOTH",
"227 80 OFFCURVE",
"148 178 OFFCURVE",
"148 357 CURVE SMOOTH",
"148 531 OFFCURVE",
"226 626 OFFCURVE",
"370 626 CURVE SMOOTH"
);
}
);
width = 739;
},
{
layerId = "6322FA20-8F24-49FB-9B55-AB1214B5D5A0";
name = Bold;
paths = (
{
closed = 1;
nodes = (
"541 886 LINE",
"211 886 LINE",
"211 793 LINE",
"541 793 LINE"
);
},
{
closed = 1;
nodes = (
"156 719 OFFCURVE",
"37 590 OFFCURVE",
"37 358 CURVE SMOOTH",
"37 120 OFFCURVE",
"154 -9 OFFCURVE",
"377 -9 CURVE SMOOTH",
"599 -9 OFFCURVE",
"717 121 OFFCURVE",
"717 358 CURVE SMOOTH",
"717 589 OFFCURVE",
"597 719 OFFCURVE",
"377 719 CURVE SMOOTH"
);
},
{
closed = 1;
nodes = (
"498 599 OFFCURVE",
"559 514 OFFCURVE",
"559 358 CURVE SMOOTH",
"559 198 OFFCURVE",
"498 111 OFFCURVE",
"377 111 CURVE SMOOTH",
"256 111 OFFCURVE",
"195 197 OFFCURVE",
"195 358 CURVE SMOOTH",
"195 515 OFFCURVE",
"255 599 OFFCURVE",
"377 599 CURVE SMOOTH"
);
}
);
width = 753;
}
);
leftKerningGroup = C;
rightKerningGroup = D;
unicode = 014C;
},
{
glyphname = Oslash;
lastChange = "2014-11-26 20:43:10 +0000";
layers = (
{
layerId = "06DA83F7-7F04-4345-A73D-275D0ED9D5E5";
name = Regular;
paths = (
{
closed = 1;
nodes = (
"579 743 LINE",
"496 743 LINE",
"478 702 LINE",
"445 711 OFFCURVE",
"409 716 OFFCURVE",
"370 716 CURVE SMOOTH",
"165 716 OFFCURVE",
"48 586 OFFCURVE",
"48 357 CURVE SMOOTH",
"48 202 OFFCURVE",
"96 93 OFFCURVE",
"188 36 CURVE",
"156 -37 LINE",
"240 -37 LINE",
"258 5 LINE",
"292 -5 OFFCURVE",
"329 -10 OFFCURVE",
"370 -10 CURVE SMOOTH",
"577 -10 OFFCURVE",
"691 121 OFFCURVE",
"691 357 CURVE SMOOTH",
"691 507 OFFCURVE",
"640 615 OFFCURVE",
"548 671 CURVE"
);
},
{
closed = 1;
nodes = (
"148 531 OFFCURVE",
"226 626 OFFCURVE",
"370 626 CURVE SMOOTH",
"396 626 OFFCURVE",
"419 623 OFFCURVE",
"441 617 CURVE",
"228 128 LINE",
"176 174 OFFCURVE",
"148 251 OFFCURVE",
"148 357 CURVE SMOOTH"
);
},
{
closed = 1;
nodes = (
"342 80 OFFCURVE",
"317 84 OFFCURVE",
"295 91 CURVE",
"508 581 LINE",
"562 537 OFFCURVE",
"591 461 OFFCURVE",
"591 357 CURVE SMOOTH",
"591 179 OFFCURVE",
"512 80 OFFCURVE",
"370 80 CURVE SMOOTH"
);
}
);
width = 739;
},
{
layerId = "6322FA20-8F24-49FB-9B55-AB1214B5D5A0";
name = Bold;
paths = (
{
closed = 1;
nodes = (
"605 746 LINE",
"519 746 LINE",
"498 702 LINE",
"462 713 OFFCURVE",
"421 718 OFFCURVE",
"376 718 CURVE SMOOTH",
"155 718 OFFCURVE",
"36 588 OFFCURVE",
"36 357 CURVE SMOOTH",
"36 205 OFFCURVE",
"85 96 OFFCURVE",
"179 39 CURVE",
"143 -37 LINE",
"230 -37 LINE",
"251 7 LINE",
"288 -3 OFFCURVE",
"330 -9 OFFCURVE",
"376 -9 CURVE SMOOTH",
"598 -9 OFFCURVE",
"715 122 OFFCURVE",
"715 357 CURVE SMOOTH",
"715 507 OFFCURVE",
"665 615 OFFCURVE",
"569 671 CURVE"
);
},
{
closed = 1;
nodes = (
"193 515 OFFCURVE",
"254 599 OFFCURVE",
"375 599 CURVE SMOOTH",
"400 599 OFFCURVE",
"423 595 OFFCURVE",
"443 588 CURVE",
"242 169 LINE",
"209 211 OFFCURVE",
"193 274 OFFCURVE",
"193 357 CURVE SMOOTH"
);
},
{
closed = 1;
nodes = (
"349 111 OFFCURVE",
"326 115 OFFCURVE",
"306 122 CURVE",
"507 542 LINE",
"540 501 OFFCURVE",
"557 439 OFFCURVE",
"557 357 CURVE SMOOTH",
"557 198 OFFCURVE",
"496 111 OFFCURVE",
"375 111 CURVE SMOOTH"
);
}
);
width = 750;
}
);
leftKerningGroup = C;
rightKerningGroup = D;
unicode = 00D8;
},
{
glyphname = Oslashacute;
lastChange = "2014-11-26 20:43:10 +0000";
layers = (
{
layerId = "06DA83F7-7F04-4345-A73D-275D0ED9D5E5";
name = Regular;
paths = (
{
closed = 1;
nodes = (
"367 761 LINE",
"523 897 LINE",
"463 959 LINE",
"330 795 LINE"
);
},
{
closed = 1;
nodes = (
"579 743 LINE",
"496 743 LINE",
"478 702 LINE",
"445 711 OFFCURVE",
"409 716 OFFCURVE",
"370 716 CURVE SMOOTH",
"165 716 OFFCURVE",
"48 586 OFFCURVE",
"48 357 CURVE SMOOTH",
"48 202 OFFCURVE",
"96 93 OFFCURVE",
"188 36 CURVE",
"156 -37 LINE",
"240 -37 LINE",
"258 5 LINE",
"292 -5 OFFCURVE",
"329 -10 OFFCURVE",
"370 -10 CURVE SMOOTH",
"577 -10 OFFCURVE",
"691 121 OFFCURVE",
"691 357 CURVE SMOOTH",
"691 507 OFFCURVE",
"640 615 OFFCURVE",
"548 671 CURVE"
);
},
{
closed = 1;
nodes = (
"148 531 OFFCURVE",
"226 626 OFFCURVE",
"370 626 CURVE SMOOTH",
"396 626 OFFCURVE",
"419 623 OFFCURVE",
"441 617 CURVE",
"228 128 LINE",
"176 174 OFFCURVE",
"148 251 OFFCURVE",
"148 357 CURVE SMOOTH"
);
},
{
closed = 1;
nodes = (
"342 80 OFFCURVE",
"317 84 OFFCURVE",
"295 91 CURVE",
"508 581 LINE",
"562 537 OFFCURVE",
"591 461 OFFCURVE",
"591 357 CURVE SMOOTH",
"591 179 OFFCURVE",
"512 80 OFFCURVE",
"370 80 CURVE SMOOTH"
);
}
);
width = 739;
},
{
layerId = "6322FA20-8F24-49FB-9B55-AB1214B5D5A0";
name = Bold;
paths = (
{
closed = 1;
nodes = (
"354 754 LINE",
"534 879 LINE",
"469 965 LINE",
"313 804 LINE"
);
},
{
closed = 1;
nodes = (
"605 746 LINE",
"519 746 LINE",
"498 702 LINE",
"462 713 OFFCURVE",
"421 718 OFFCURVE",
"376 718 CURVE SMOOTH",
"155 718 OFFCURVE",
"36 588 OFFCURVE",
"36 357 CURVE SMOOTH",
"36 205 OFFCURVE",
"85 96 OFFCURVE",
"179 39 CURVE",
"143 -37 LINE",
"230 -37 LINE",
"251 7 LINE",
"288 -3 OFFCURVE",
"330 -9 OFFCURVE",
"376 -9 CURVE SMOOTH",
"598 -9 OFFCURVE",
"715 122 OFFCURVE",
"715 357 CURVE SMOOTH",
"715 507 OFFCURVE",
"665 615 OFFCURVE",
"569 671 CURVE"
);
},
{
closed = 1;
nodes = (
"193 515 OFFCURVE",
"254 599 OFFCURVE",
"375 599 CURVE SMOOTH",
"400 599 OFFCURVE",
"423 595 OFFCURVE",
"443 588 CURVE",
"242 169 LINE",
"209 211 OFFCURVE",
"193 274 OFFCURVE",
"193 357 CURVE SMOOTH"
);
},
{
closed = 1;
nodes = (
"349 111 OFFCURVE",
"326 115 OFFCURVE",
"306 122 CURVE",
"507 542 LINE",
"540 501 OFFCURVE",
"557 439 OFFCURVE",
"557 357 CURVE SMOOTH",
"557 198 OFFCURVE",
"496 111 OFFCURVE",
"375 111 CURVE SMOOTH"
);
}
);
width = 750;
}
);
leftKerningGroup = C;
rightKerningGroup = D;
unicode = 01FE;
},
{
glyphname = Otilde;
lastChange = "2014-11-26 20:43:10 +0000";
layers = (
{
layerId = "06DA83F7-7F04-4345-A73D-275D0ED9D5E5";
name = Regular;
paths = (
{
closed = 1;
nodes = (
"228 912 OFFCURVE",
"184 865 OFFCURVE",
"184 793 CURVE",
"248 793 LINE",
"248 824 OFFCURVE",
"267 843 OFFCURVE",
"296 843 CURVE SMOOTH",
"348 843 OFFCURVE",
"360 784 OFFCURVE",
"436 784 CURVE SMOOTH",
"501 784 OFFCURVE",
"544 831 OFFCURVE",
"544 903 CURVE",
"480 903 LINE",
"480 873 OFFCURVE",
"464 854 OFFCURVE",
"439 854 CURVE SMOOTH",
"383 854 OFFCURVE",
"375 912 OFFCURVE",
"297 912 CURVE SMOOTH"
);
},
{
closed = 1;
nodes = (
"165 716 OFFCURVE",
"48 586 OFFCURVE",
"48 357 CURVE SMOOTH",
"48 120 OFFCURVE",
"162 -10 OFFCURVE",
"370 -10 CURVE SMOOTH",
"577 -10 OFFCURVE",
"691 121 OFFCURVE",
"691 357 CURVE SMOOTH",
"691 585 OFFCURVE",
"574 716 OFFCURVE",
"370 716 CURVE SMOOTH"
);
},
{
closed = 1;
nodes = (
"512 626 OFFCURVE",
"591 530 OFFCURVE",
"591 357 CURVE SMOOTH",
"591 179 OFFCURVE",
"512 80 OFFCURVE",
"370 80 CURVE SMOOTH",
"227 80 OFFCURVE",
"148 178 OFFCURVE",
"148 357 CURVE SMOOTH",
"148 531 OFFCURVE",
"226 626 OFFCURVE",
"370 626 CURVE SMOOTH"
);
}
);
width = 739;
},
{
layerId = "6322FA20-8F24-49FB-9B55-AB1214B5D5A0";
name = Bold;
paths = (
{
closed = 1;
nodes = (
"223 927 OFFCURVE",
"174 873 OFFCURVE",
"174 785 CURVE",
"259 785 LINE",
"259 821 OFFCURVE",
"277 842 OFFCURVE",
"305 842 CURVE SMOOTH",
"351 842 OFFCURVE",
"371 774 OFFCURVE",
"448 774 CURVE SMOOTH",
"523 774 OFFCURVE",
"572 830 OFFCURVE",
"572 916 CURVE",
"488 916 LINE",
"488 882 OFFCURVE",
"472 860 OFFCURVE",
"447 860 CURVE SMOOTH",
"391 860 OFFCURVE",
"383 927 OFFCURVE",
"301 927 CURVE SMOOTH"
);
},
{
closed = 1;
nodes = (
"156 719 OFFCURVE",
"37 590 OFFCURVE",
"37 358 CURVE SMOOTH",
"37 120 OFFCURVE",
"154 -9 OFFCURVE",
"377 -9 CURVE SMOOTH",
"599 -9 OFFCURVE",
"717 121 OFFCURVE",
"717 358 CURVE SMOOTH",
"717 589 OFFCURVE",
"597 719 OFFCURVE",
"377 719 CURVE SMOOTH"
);
},
{
closed = 1;
nodes = (
"498 599 OFFCURVE",
"559 514 OFFCURVE",
"559 358 CURVE SMOOTH",
"559 198 OFFCURVE",
"498 111 OFFCURVE",
"377 111 CURVE SMOOTH",
"256 111 OFFCURVE",
"195 197 OFFCURVE",
"195 358 CURVE SMOOTH",
"195 515 OFFCURVE",
"255 599 OFFCURVE",
"377 599 CURVE SMOOTH"
);
}
);
width = 753;
}
);
leftKerningGroup = C;
rightKerningGroup = D;
unicode = 00D5;
},
{
glyphname = OE;
lastChange = "2014-11-26 20:43:10 +0000";
layers = (
{
layerId = "06DA83F7-7F04-4345-A73D-275D0ED9D5E5";
name = Regular;
paths = (
{
closed = 1;
nodes = (
"48 120 OFFCURVE",
"162 -10 OFFCURVE",
"370 -10 CURVE SMOOTH",
"419 -10 OFFCURVE",
"467 -6 OFFCURVE",
"508 0 CURVE",
"940 0 LINE",
"940 85 LINE",
"604 85 LINE",
"604 328 LINE",
"896 328 LINE",
"896 413 LINE",
"604 413 LINE",
"604 623 LINE",
"929 623 LINE",
"929 708 LINE",
"518 708 LINE SMOOTH",
"475 708 OFFCURVE",
"424 716 OFFCURVE",
"370 716 CURVE SMOOTH",
"165 716 OFFCURVE",
"48 586 OFFCURVE",
"48 357 CURVE SMOOTH"
);
},
{
closed = 1;
nodes = (
"508 87 LINE",
"470 83 OFFCURVE",
"422 80 OFFCURVE",
"370 80 CURVE SMOOTH",
"227 80 OFFCURVE",
"148 178 OFFCURVE",
"148 357 CURVE SMOOTH",
"148 531 OFFCURVE",
"226 626 OFFCURVE",
"370 626 CURVE SMOOTH",
"422 626 OFFCURVE",
"470 623 OFFCURVE",
"508 623 CURVE"
);
}
);
width = 975;
},
{
layerId = "6322FA20-8F24-49FB-9B55-AB1214B5D5A0";
name = Bold;
paths = (
{
closed = 1;
nodes = (
"36 120 OFFCURVE",
"156 -9 OFFCURVE",
"379 -9 CURVE SMOOTH",
"425 -9 OFFCURVE",
"467 -4 OFFCURVE",
"507 0 CURVE",
"963 0 LINE",
"963 113 LINE",
"649 113 LINE",
"649 310 LINE",
"924 310 LINE",
"924 421 LINE",
"649 421 LINE",
"649 596 LINE",
"954 596 LINE",
"954 709 LINE",
"523 709 LINE SMOOTH",
"479 709 OFFCURVE",
"432 717 OFFCURVE",
"379 717 CURVE SMOOTH",
"159 717 OFFCURVE",
"36 588 OFFCURVE",
"36 357 CURVE SMOOTH"
);
},
{
closed = 1;
nodes = (
"496 117 LINE",
"465 113 OFFCURVE",
"428 111 OFFCURVE",
"387 111 CURVE SMOOTH",
"260 111 OFFCURVE",
"193 196 OFFCURVE",
"193 357 CURVE SMOOTH",
"193 514 OFFCURVE",
"260 597 OFFCURVE",
"387 597 CURVE SMOOTH",
"427 597 OFFCURVE",
"464 595 OFFCURVE",
"496 594 CURVE"
);
}
);
width = 1000;
}
);
leftKerningGroup = C;
unicode = 0152;
},
{
glyphname = P;
lastChange = "2014-11-26 20:43:10 +0000";
layers = (
{
layerId = "06DA83F7-7F04-4345-A73D-275D0ED9D5E5";
name = Regular;
paths = (
{
closed = 1;
nodes = (
"93 708 LINE",
"93 0 LINE",
"189 0 LINE",
"189 291 LINE",
"302 291 LINE SMOOTH",
"457 291 OFFCURVE",
"545 367 OFFCURVE",
"545 500 CURVE SMOOTH",
"545 635 OFFCURVE",
"460 708 OFFCURVE",
"302 708 CURVE SMOOTH"
);
},
{
closed = 1;
nodes = (
"189 376 LINE",
"189 623 LINE",
"302 623 LINE SMOOTH",
"399 623 OFFCURVE",
"445 583 OFFCURVE",
"445 500 CURVE SMOOTH",
"445 417 OFFCURVE",
"397 376 OFFCURVE",
"302 376 CURVE SMOOTH"
);
}
);
width = 573;
},
{
layerId = "6322FA20-8F24-49FB-9B55-AB1214B5D5A0";
name = Bold;
paths = (
{
closed = 1;
nodes = (
"81 709 LINE",
"81 0 LINE",
"232 0 LINE",
"232 261 LINE",
"327 261 LINE SMOOTH",
"494 261 OFFCURVE",
"592 343 OFFCURVE",
"592 485 CURVE SMOOTH",
"592 630 OFFCURVE",
"497 709 OFFCURVE",
"324 709 CURVE SMOOTH"
);
},
{
closed = 1;
nodes = (
"232 373 LINE",
"232 596 LINE",
"318 596 LINE SMOOTH",
"402 596 OFFCURVE",
"441 561 OFFCURVE",
"441 485 CURVE SMOOTH",
"441 409 OFFCURVE",
"401 373 OFFCURVE",
"318 373 CURVE SMOOTH"
);
}
);
width = 612;
}
);
rightKerningGroup = P;
unicode = 0050;
},
{
glyphname = Thorn;
lastChange = "2014-11-26 20:43:10 +0000";
layers = (
{
layerId = "06DA83F7-7F04-4345-A73D-275D0ED9D5E5";
name = Regular;
paths = (
{
closed = 1;
nodes = (
"189 708 LINE",
"93 708 LINE",
"93 0 LINE",
"189 0 LINE",
"189 142 LINE",
"302 142 LINE SMOOTH",
"457 142 OFFCURVE",
"545 218 OFFCURVE",
"545 351 CURVE SMOOTH",
"545 486 OFFCURVE",
"460 559 OFFCURVE",
"302 559 CURVE SMOOTH",
"189 559 LINE"
);
},
{
closed = 1;
nodes = (
"189 227 LINE",
"189 474 LINE",
"302 474 LINE SMOOTH",
"399 474 OFFCURVE",
"445 434 OFFCURVE",
"445 351 CURVE SMOOTH",
"445 268 OFFCURVE",
"397 227 OFFCURVE",
"302 227 CURVE SMOOTH"
);
}
);
width = 573;
},
{
layerId = "6322FA20-8F24-49FB-9B55-AB1214B5D5A0";
name = Bold;
paths = (
{
closed = 1;
nodes = (
"234 709 LINE",
"82 709 LINE",
"82 0 LINE",
"234 0 LINE",
"234 125 LINE",
"329 125 LINE SMOOTH",
"495 125 OFFCURVE",
"593 208 OFFCURVE",
"593 350 CURVE SMOOTH",
"593 495 OFFCURVE",
"499 573 OFFCURVE",
"326 573 CURVE SMOOTH",
"234 573 LINE"
);
},
{
closed = 1;
nodes = (
"234 238 LINE",
"234 461 LINE",
"320 461 LINE SMOOTH",
"404 461 OFFCURVE",
"442 426 OFFCURVE",
"442 349 CURVE SMOOTH",
"442 274 OFFCURVE",
"403 238 OFFCURVE",
"320 238 CURVE SMOOTH"
);
}
);
width = 611;
}
);
rightKerningGroup = Thorn;
unicode = 00DE;
},
{
glyphname = Q;
lastChange = "2014-11-26 20:43:10 +0000";
layers = (
{
layerId = "06DA83F7-7F04-4345-A73D-275D0ED9D5E5";
name = Regular;
paths = (
{
closed = 1;
nodes = (
"453 -127 OFFCURVE",
"408 -89 OFFCURVE",
"393 -9 CURVE",
"585 0 OFFCURVE",
"691 130 OFFCURVE",
"691 357 CURVE SMOOTH",
"691 585 OFFCURVE",
"574 716 OFFCURVE",
"370 716 CURVE SMOOTH",
"165 716 OFFCURVE",
"48 586 OFFCURVE",
"48 357 CURVE SMOOTH",
"48 143 OFFCURVE",
"141 17 OFFCURVE",
"311 -6 CURVE",
"327 -137 OFFCURVE",
"405 -214 OFFCURVE",
"527 -214 CURVE SMOOTH",
"561 -214 OFFCURVE",
"597 -208 OFFCURVE",
"634 -196 CURVE",
"606 -114 LINE",
"580 -123 OFFCURVE",
"556 -127 OFFCURVE",
"533 -127 CURVE SMOOTH"
);
},
{
closed = 1;
nodes = (
"148 531 OFFCURVE",
"226 626 OFFCURVE",
"370 626 CURVE SMOOTH",
"512 626 OFFCURVE",
"591 530 OFFCURVE",
"591 357 CURVE SMOOTH",
"591 179 OFFCURVE",
"512 80 OFFCURVE",
"370 80 CURVE SMOOTH",
"227 80 OFFCURVE",
"148 178 OFFCURVE",
"148 357 CURVE SMOOTH"
);
}
);
width = 739;
},
{
layerId = "6322FA20-8F24-49FB-9B55-AB1214B5D5A0";
name = Bold;
paths = (
{
closed = 1;
nodes = (
"465 -105 OFFCURVE",
"428 -76 OFFCURVE",
"416 -8 CURVE",
"613 7 OFFCURVE",
"717 135 OFFCURVE",
"717 358 CURVE SMOOTH",
"717 589 OFFCURVE",
"597 719 OFFCURVE",
"377 719 CURVE SMOOTH",
"156 719 OFFCURVE",
"37 590 OFFCURVE",
"37 358 CURVE SMOOTH",
"37 146 OFFCURVE",
"130 20 OFFCURVE",
"309 -5 CURVE",
"322 -139 OFFCURVE",
"403 -217 OFFCURVE",
"532 -217 CURVE SMOOTH",
"571 -217 OFFCURVE",
"613 -210 OFFCURVE",
"655 -196 CURVE",
"621 -89 LINE",
"592 -99 OFFCURVE",
"564 -105 OFFCURVE",
"538 -105 CURVE SMOOTH"
);
},
{
closed = 1;
nodes = (
"195 515 OFFCURVE",
"255 599 OFFCURVE",
"377 599 CURVE SMOOTH",
"498 599 OFFCURVE",
"559 514 OFFCURVE",
"559 358 CURVE SMOOTH",
"559 198 OFFCURVE",
"498 111 OFFCURVE",
"377 111 CURVE SMOOTH",
"256 111 OFFCURVE",
"195 197 OFFCURVE",
"195 358 CURVE SMOOTH"
);
}
);
width = 753;
}
);
leftKerningGroup = C;
rightKerningGroup = D;
unicode = 0051;
},
{
glyphname = R;
lastChange = "2014-11-26 20:43:10 +0000";
layers = (
{
layerId = "06DA83F7-7F04-4345-A73D-275D0ED9D5E5";
name = Regular;
paths = (
{
closed = 1;
nodes = (
"470 0 LINE",
"581 0 LINE",
"420 308 LINE",
"507 338 OFFCURVE",
"555 404 OFFCURVE",
"555 500 CURVE SMOOTH",
"555 635 OFFCURVE",
"467 708 OFFCURVE",
"302 708 CURVE SMOOTH",
"93 708 LINE",
"93 0 LINE",
"189 0 LINE",
"189 291 LINE",
"302 291 LINE",
"320 291 LINE"
);
},
{
closed = 1;
nodes = (
"189 376 LINE",
"189 623 LINE",
"302 623 LINE SMOOTH",
"406 623 OFFCURVE",
"455 583 OFFCURVE",
"455 500 CURVE SMOOTH",
"455 417 OFFCURVE",
"404 376 OFFCURVE",
"302 376 CURVE SMOOTH"
);
}
);
width = 612;
},
{
layerId = "6322FA20-8F24-49FB-9B55-AB1214B5D5A0";
name = Bold;
paths = (
{
closed = 1;
nodes = (
"460 0 LINE",
"623 0 LINE",
"468 297 LINE",
"552 331 OFFCURVE",
"599 398 OFFCURVE",
"599 488 CURVE SMOOTH",
"599 632 OFFCURVE",
"500 709 OFFCURVE",
"324 709 CURVE SMOOTH",
"81 709 LINE",
"81 0 LINE",
"232 0 LINE",
"232 270 LINE",
"312 270 LINE",
"330 270 LINE"
);
},
{
closed = 1;
nodes = (
"232 380 LINE",
"232 596 LINE",
"318 596 LINE SMOOTH",
"405 596 OFFCURVE",
"447 564 OFFCURVE",
"447 488 CURVE SMOOTH",
"447 414 OFFCURVE",
"405 380 OFFCURVE",
"318 380 CURVE SMOOTH"
);
}
);
width = 645;
}
);
rightKerningGroup = R;
unicode = 0052;
},
{
glyphname = Racute;
lastChange = "2014-11-26 20:43:10 +0000";
layers = (
{
layerId = "06DA83F7-7F04-4345-A73D-275D0ED9D5E5";
name = Regular;
paths = (
{
closed = 1;
nodes = (
"259 795 LINE",
"296 761 LINE",
"452 897 LINE",
"392 959 LINE"
);
},
{
closed = 1;
nodes = (
"320 291 LINE",
"470 0 LINE",
"581 0 LINE",
"420 308 LINE",
"507 338 OFFCURVE",
"555 404 OFFCURVE",
"555 500 CURVE SMOOTH",
"555 635 OFFCURVE",
"467 708 OFFCURVE",
"302 708 CURVE SMOOTH",
"93 708 LINE",
"93 0 LINE",
"189 0 LINE",
"189 291 LINE"
);
},
{
closed = 1;
nodes = (
"189 376 LINE",
"189 623 LINE",
"302 623 LINE SMOOTH",
"406 623 OFFCURVE",
"455 583 OFFCURVE",
"455 500 CURVE SMOOTH",
"455 417 OFFCURVE",
"404 376 OFFCURVE",
"302 376 CURVE SMOOTH"
);
}
);
width = 612;
},
{
layerId = "6322FA20-8F24-49FB-9B55-AB1214B5D5A0";
name = Bold;
paths = (
{
closed = 1;
nodes = (
"298 754 LINE",
"478 879 LINE",
"413 965 LINE",
"257 804 LINE"
);
},
{
closed = 1;
nodes = (
"460 0 LINE",
"623 0 LINE",
"468 297 LINE",
"552 331 OFFCURVE",
"599 398 OFFCURVE",
"599 488 CURVE SMOOTH",
"599 632 OFFCURVE",
"500 709 OFFCURVE",
"324 709 CURVE SMOOTH",
"81 709 LINE",
"81 0 LINE",
"232 0 LINE",
"232 270 LINE",
"312 270 LINE",
"330 270 LINE"
);
},
{
closed = 1;
nodes = (
"232 380 LINE",
"232 596 LINE",
"318 596 LINE SMOOTH",
"405 596 OFFCURVE",
"447 564 OFFCURVE",
"447 488 CURVE SMOOTH",
"447 414 OFFCURVE",
"405 380 OFFCURVE",
"318 380 CURVE SMOOTH"
);
}
);
width = 645;
}
);
rightKerningGroup = R;
unicode = 0154;
},
{
glyphname = Rcaron;
lastChange = "2014-11-26 20:43:10 +0000";
layers = (
{
layerId = "06DA83F7-7F04-4345-A73D-275D0ED9D5E5";
name = Regular;
paths = (
{
closed = 1;
nodes = (
"291 771 LINE",
"328 771 LINE",
"461 905 LINE",
"424 939 LINE",
"309 851 LINE",
"195 939 LINE",
"158 905 LINE"
);
},
{
closed = 1;
nodes = (
"470 0 LINE",
"581 0 LINE",
"420 308 LINE",
"507 338 OFFCURVE",
"555 404 OFFCURVE",
"555 500 CURVE SMOOTH",
"555 635 OFFCURVE",
"467 708 OFFCURVE",
"302 708 CURVE SMOOTH",
"93 708 LINE",
"93 0 LINE",
"189 0 LINE",
"189 291 LINE",
"302 291 LINE",
"320 291 LINE"
);
},
{
closed = 1;
nodes = (
"189 376 LINE",
"189 623 LINE",
"302 623 LINE SMOOTH",
"406 623 OFFCURVE",
"455 583 OFFCURVE",
"455 500 CURVE SMOOTH",
"455 417 OFFCURVE",
"404 376 OFFCURVE",
"302 376 CURVE SMOOTH"
);
}
);
width = 612;
},
{
layerId = "6322FA20-8F24-49FB-9B55-AB1214B5D5A0";
name = Bold;
paths = (
{
closed = 1;
nodes = (
"311 758 LINE",
"342 758 LINE",
"498 899 LINE",
"457 949 LINE",
"326 862 LINE",
"196 949 LINE",
"155 899 LINE"
);
},
{
closed = 1;
nodes = (
"460 0 LINE",
"623 0 LINE",
"468 297 LINE",
"552 331 OFFCURVE",
"599 398 OFFCURVE",
"599 488 CURVE SMOOTH",
"599 632 OFFCURVE",
"500 709 OFFCURVE",
"324 709 CURVE SMOOTH",
"81 709 LINE",
"81 0 LINE",
"232 0 LINE",
"232 270 LINE",
"312 270 LINE",
"330 270 LINE"
);
},
{
closed = 1;
nodes = (
"232 380 LINE",
"232 596 LINE",
"318 596 LINE SMOOTH",
"405 596 OFFCURVE",
"447 564 OFFCURVE",
"447 488 CURVE SMOOTH",
"447 414 OFFCURVE",
"405 380 OFFCURVE",
"318 380 CURVE SMOOTH"
);
}
);
width = 645;
}
);
rightKerningGroup = R;
unicode = 0158;
},
{
glyphname = S;
lastChange = "2014-11-26 20:43:10 +0000";
layers = (
{
layerId = "06DA83F7-7F04-4345-A73D-275D0ED9D5E5";
name = Regular;
paths = (
{
closed = 1;
nodes = (
"140 716 OFFCURVE",
"50 642 OFFCURVE",
"50 517 CURVE SMOOTH",
"50 415 OFFCURVE",
"100 358 OFFCURVE",
"229 323 CURVE SMOOTH",
"354 289 OFFCURVE",
"389 258 OFFCURVE",
"389 194 CURVE SMOOTH",
"389 125 OFFCURVE",
"336 82 OFFCURVE",
"249 82 CURVE SMOOTH",
"194 82 OFFCURVE",
"151 93 OFFCURVE",
"64 128 CURVE",
"35 41 LINE",
"113 8 OFFCURVE",
"184 -9 OFFCURVE",
"249 -9 CURVE SMOOTH",
"399 -9 OFFCURVE",
"489 68 OFFCURVE",
"489 195 CURVE SMOOTH",
"489 304 OFFCURVE",
"438 365 OFFCURVE",
"299 405 CURVE SMOOTH",
"183 438 OFFCURVE",
"150 469 OFFCURVE",
"150 531 CURVE SMOOTH",
"150 589 OFFCURVE",
"203 625 OFFCURVE",
"289 625 CURVE SMOOTH",
"332 625 OFFCURVE",
"383 613 OFFCURVE",
"443 590 CURVE",
"467 678 LINE",
"405 704 OFFCURVE",
"347 716 OFFCURVE",
"291 716 CURVE SMOOTH"
);
}
);
width = 528;
},
{
layerId = "6322FA20-8F24-49FB-9B55-AB1214B5D5A0";
name = Bold;
paths = (
{
closed = 1;
nodes = (
"139 718 OFFCURVE",
"42 640 OFFCURVE",
"42 506 CURVE SMOOTH",
"42 401 OFFCURVE",
"98 338 OFFCURVE",
"225 307 CURVE SMOOTH",
"337 279 OFFCURVE",
"368 254 OFFCURVE",
"368 201 CURVE SMOOTH",
"368 145 OFFCURVE",
"326 112 OFFCURVE",
"253 112 CURVE SMOOTH",
"202 112 OFFCURVE",
"151 124 OFFCURVE",
"63 155 CURVE",
"27 41 LINE",
"110 8 OFFCURVE",
"181 -7 OFFCURVE",
"254 -7 CURVE SMOOTH",
"428 -7 OFFCURVE",
"524 70 OFFCURVE",
"524 208 CURVE SMOOTH",
"524 322 OFFCURVE",
"470 382 OFFCURVE",
"325 420 CURVE SMOOTH",
"226 446 OFFCURVE",
"197 472 OFFCURVE",
"197 522 CURVE SMOOTH",
"197 569 OFFCURVE",
"239 598 OFFCURVE",
"308 598 CURVE SMOOTH",
"349 598 OFFCURVE",
"409 585 OFFCURVE",
"474 562 CURVE",
"505 679 LINE",
"429 706 OFFCURVE",
"368 718 OFFCURVE",
"307 718 CURVE SMOOTH"
);
}
);
width = 555;
}
);
leftKerningGroup = S;
rightKerningGroup = S;
unicode = 0053;
},
{
glyphname = Sacute;
lastChange = "2014-11-26 20:43:10 +0000";
layers = (
{
layerId = "06DA83F7-7F04-4345-A73D-275D0ED9D5E5";
name = Regular;
paths = (
{
closed = 1;
nodes = (
"360 959 LINE",
"227 795 LINE",
"264 761 LINE",
"420 897 LINE"
);
},
{
closed = 1;
nodes = (
"140 716 OFFCURVE",
"50 642 OFFCURVE",
"50 517 CURVE SMOOTH",
"50 415 OFFCURVE",
"100 358 OFFCURVE",
"229 323 CURVE SMOOTH",
"354 289 OFFCURVE",
"389 258 OFFCURVE",
"389 194 CURVE SMOOTH",
"389 125 OFFCURVE",
"336 82 OFFCURVE",
"249 82 CURVE SMOOTH",
"194 82 OFFCURVE",
"151 93 OFFCURVE",
"64 128 CURVE",
"35 41 LINE",
"113 8 OFFCURVE",
"184 -9 OFFCURVE",
"249 -9 CURVE SMOOTH",
"399 -9 OFFCURVE",
"489 68 OFFCURVE",
"489 195 CURVE SMOOTH",
"489 304 OFFCURVE",
"438 365 OFFCURVE",
"299 405 CURVE SMOOTH",
"183 438 OFFCURVE",
"150 469 OFFCURVE",
"150 531 CURVE SMOOTH",
"150 589 OFFCURVE",
"203 625 OFFCURVE",
"289 625 CURVE SMOOTH",
"332 625 OFFCURVE",
"383 613 OFFCURVE",
"443 590 CURVE",
"467 678 LINE",
"405 704 OFFCURVE",
"347 716 OFFCURVE",
"291 716 CURVE SMOOTH"
);
}
);
width = 528;
},
{
layerId = "6322FA20-8F24-49FB-9B55-AB1214B5D5A0";
name = Bold;
paths = (
{
closed = 1;
nodes = (
"379 965 LINE",
"223 804 LINE",
"264 754 LINE",
"444 879 LINE"
);
},
{
closed = 1;
nodes = (
"139 718 OFFCURVE",
"42 640 OFFCURVE",
"42 506 CURVE SMOOTH",
"42 401 OFFCURVE",
"98 338 OFFCURVE",
"225 307 CURVE SMOOTH",
"337 279 OFFCURVE",
"368 254 OFFCURVE",
"368 201 CURVE SMOOTH",
"368 145 OFFCURVE",
"326 112 OFFCURVE",
"253 112 CURVE SMOOTH",
"202 112 OFFCURVE",
"151 124 OFFCURVE",
"63 155 CURVE",
"27 41 LINE",
"110 8 OFFCURVE",
"181 -7 OFFCURVE",
"254 -7 CURVE SMOOTH",
"428 -7 OFFCURVE",
"524 70 OFFCURVE",
"524 208 CURVE SMOOTH",
"524 322 OFFCURVE",
"470 382 OFFCURVE",
"325 420 CURVE SMOOTH",
"226 446 OFFCURVE",
"197 472 OFFCURVE",
"197 522 CURVE SMOOTH",
"197 569 OFFCURVE",
"239 598 OFFCURVE",
"308 598 CURVE SMOOTH",
"349 598 OFFCURVE",
"409 585 OFFCURVE",
"474 562 CURVE",
"505 679 LINE",
"429 706 OFFCURVE",
"368 718 OFFCURVE",
"307 718 CURVE SMOOTH"
);
}
);
width = 555;
}
);
leftKerningGroup = S;
rightKerningGroup = S;
unicode = 015A;
},
{
glyphname = Scaron;
lastChange = "2014-11-26 20:43:10 +0000";
layers = (
{
layerId = "06DA83F7-7F04-4345-A73D-275D0ED9D5E5";
name = Regular;
paths = (
{
closed = 1;
nodes = (
"429 905 LINE",
"392 939 LINE",
"277 851 LINE",
"163 939 LINE",
"126 905 LINE",
"259 771 LINE",
"296 771 LINE"
);
},
{
closed = 1;
nodes = (
"140 716 OFFCURVE",
"50 642 OFFCURVE",
"50 517 CURVE SMOOTH",
"50 415 OFFCURVE",
"100 358 OFFCURVE",
"229 323 CURVE SMOOTH",
"354 289 OFFCURVE",
"389 258 OFFCURVE",
"389 194 CURVE SMOOTH",
"389 125 OFFCURVE",
"336 82 OFFCURVE",
"249 82 CURVE SMOOTH",
"194 82 OFFCURVE",
"151 93 OFFCURVE",
"64 128 CURVE",
"35 41 LINE",
"113 8 OFFCURVE",
"184 -9 OFFCURVE",
"249 -9 CURVE SMOOTH",
"399 -9 OFFCURVE",
"489 68 OFFCURVE",
"489 195 CURVE SMOOTH",
"489 304 OFFCURVE",
"438 365 OFFCURVE",
"299 405 CURVE SMOOTH",
"183 438 OFFCURVE",
"150 469 OFFCURVE",
"150 531 CURVE SMOOTH",
"150 589 OFFCURVE",
"203 625 OFFCURVE",
"289 625 CURVE SMOOTH",
"332 625 OFFCURVE",
"383 613 OFFCURVE",
"443 590 CURVE",
"467 678 LINE",
"405 704 OFFCURVE",
"347 716 OFFCURVE",
"291 716 CURVE SMOOTH"
);
}
);
width = 528;
},
{
layerId = "6322FA20-8F24-49FB-9B55-AB1214B5D5A0";
name = Bold;
paths = (
{
closed = 1;
nodes = (
"464 899 LINE",
"423 949 LINE",
"292 862 LINE",
"162 949 LINE",
"121 899 LINE",
"277 758 LINE",
"308 758 LINE"
);
},
{
closed = 1;
nodes = (
"139 718 OFFCURVE",
"42 640 OFFCURVE",
"42 506 CURVE SMOOTH",
"42 401 OFFCURVE",
"98 338 OFFCURVE",
"225 307 CURVE SMOOTH",
"337 279 OFFCURVE",
"368 254 OFFCURVE",
"368 201 CURVE SMOOTH",
"368 145 OFFCURVE",
"326 112 OFFCURVE",
"253 112 CURVE SMOOTH",
"202 112 OFFCURVE",
"151 124 OFFCURVE",
"63 155 CURVE",
"27 41 LINE",
"110 8 OFFCURVE",
"181 -7 OFFCURVE",
"254 -7 CURVE SMOOTH",
"428 -7 OFFCURVE",
"524 70 OFFCURVE",
"524 208 CURVE SMOOTH",
"524 322 OFFCURVE",
"470 382 OFFCURVE",
"325 420 CURVE SMOOTH",
"226 446 OFFCURVE",
"197 472 OFFCURVE",
"197 522 CURVE SMOOTH",
"197 569 OFFCURVE",
"239 598 OFFCURVE",
"308 598 CURVE SMOOTH",
"349 598 OFFCURVE",
"409 585 OFFCURVE",
"474 562 CURVE",
"505 679 LINE",
"429 706 OFFCURVE",
"368 718 OFFCURVE",
"307 718 CURVE SMOOTH"
);
}
);
width = 555;
}
);
leftKerningGroup = S;
rightKerningGroup = S;
unicode = 0160;
},
{
glyphname = Scedilla;
lastChange = "2014-11-26 20:43:10 +0000";
layers = (
{
layerId = "06DA83F7-7F04-4345-A73D-275D0ED9D5E5";
name = Regular;
paths = (
{
closed = 1;
nodes = (
"489 304 OFFCURVE",
"438 365 OFFCURVE",
"299 405 CURVE SMOOTH",
"183 438 OFFCURVE",
"150 469 OFFCURVE",
"150 531 CURVE SMOOTH",
"150 589 OFFCURVE",
"203 625 OFFCURVE",
"289 625 CURVE SMOOTH",
"332 625 OFFCURVE",
"383 613 OFFCURVE",
"443 590 CURVE",
"467 678 LINE",
"405 704 OFFCURVE",
"347 716 OFFCURVE",
"291 716 CURVE SMOOTH",
"140 716 OFFCURVE",
"50 642 OFFCURVE",
"50 517 CURVE SMOOTH",
"50 415 OFFCURVE",
"100 358 OFFCURVE",
"229 323 CURVE SMOOTH",
"354 289 OFFCURVE",
"389 258 OFFCURVE",
"389 194 CURVE SMOOTH",
"389 125 OFFCURVE",
"336 82 OFFCURVE",
"249 82 CURVE SMOOTH",
"194 82 OFFCURVE",
"151 93 OFFCURVE",
"64 128 CURVE",
"35 41 LINE",
"113 8 OFFCURVE",
"184 -9 OFFCURVE",
"249 -9 CURVE SMOOTH",
"256 -9 LINE",
"224 -54 LINE",
"230 -75 LINE",
"270 -87 OFFCURVE",
"287 -102 OFFCURVE",
"287 -126 CURVE SMOOTH",
"287 -149 OFFCURVE",
"273 -162 OFFCURVE",
"249 -162 CURVE SMOOTH",
"232 -162 OFFCURVE",
"215 -157 OFFCURVE",
"203 -150 CURVE",
"185 -188 LINE",
"207 -201 OFFCURVE",
"238 -213 OFFCURVE",
"270 -213 CURVE SMOOTH",
"316 -213 OFFCURVE",
"355 -184 OFFCURVE",
"355 -128 CURVE SMOOTH",
"355 -94 OFFCURVE",
"326 -58 OFFCURVE",
"289 -45 CURVE",
"302 -5 LINE",
"420 11 OFFCURVE",
"489 84 OFFCURVE",
"489 195 CURVE SMOOTH"
);
}
);
width = 528;
},
{
layerId = "6322FA20-8F24-49FB-9B55-AB1214B5D5A0";
name = Bold;
paths = (
{
closed = 1;
nodes = (
"524 322 OFFCURVE",
"470 382 OFFCURVE",
"325 420 CURVE SMOOTH",
"226 446 OFFCURVE",
"197 472 OFFCURVE",
"197 522 CURVE SMOOTH",
"197 569 OFFCURVE",
"239 598 OFFCURVE",
"308 598 CURVE SMOOTH",
"349 598 OFFCURVE",
"409 585 OFFCURVE",
"474 562 CURVE",
"505 679 LINE",
"429 706 OFFCURVE",
"368 718 OFFCURVE",
"307 718 CURVE SMOOTH",
"139 718 OFFCURVE",
"42 640 OFFCURVE",
"42 506 CURVE SMOOTH",
"42 401 OFFCURVE",
"98 338 OFFCURVE",
"225 307 CURVE SMOOTH",
"337 279 OFFCURVE",
"368 254 OFFCURVE",
"368 201 CURVE SMOOTH",
"368 145 OFFCURVE",
"326 112 OFFCURVE",
"253 112 CURVE SMOOTH",
"202 112 OFFCURVE",
"151 124 OFFCURVE",
"63 155 CURVE",
"27 41 LINE",
"110 8 OFFCURVE",
"181 -7 OFFCURVE",
"254 -7 CURVE SMOOTH",
"266 -7 LINE",
"229 -56 LINE",
"239 -82 LINE",
"279 -91 OFFCURVE",
"296 -104 OFFCURVE",
"296 -124 CURVE SMOOTH",
"296 -144 OFFCURVE",
"282 -154 OFFCURVE",
"261 -154 CURVE SMOOTH",
"243 -154 OFFCURVE",
"223 -148 OFFCURVE",
"212 -142 CURVE",
"190 -189 LINE",
"214 -203 OFFCURVE",
"249 -216 OFFCURVE",
"285 -216 CURVE SMOOTH",
"335 -216 OFFCURVE",
"378 -187 OFFCURVE",
"378 -128 CURVE SMOOTH",
"378 -94 OFFCURVE",
"346 -58 OFFCURVE",
"304 -45 CURVE",
"318 -3 LINE",
"451 14 OFFCURVE",
"524 88 OFFCURVE",
"524 208 CURVE SMOOTH"
);
}
);
width = 555;
}
);
leftKerningGroup = S;
rightKerningGroup = S;
unicode = 015E;
},
{
glyphname = Scircumflex;
lastChange = "2014-11-26 20:43:10 +0000";
layers = (
{
layerId = "06DA83F7-7F04-4345-A73D-275D0ED9D5E5";
name = Regular;
paths = (
{
closed = 1;
nodes = (
"426 795 LINE",
"293 929 LINE",
"256 929 LINE",
"123 795 LINE",
"160 761 LINE",
"274 849 LINE",
"389 761 LINE"
);
},
{
closed = 1;
nodes = (
"140 716 OFFCURVE",
"50 642 OFFCURVE",
"50 517 CURVE SMOOTH",
"50 415 OFFCURVE",
"100 358 OFFCURVE",
"229 323 CURVE SMOOTH",
"354 289 OFFCURVE",
"389 258 OFFCURVE",
"389 194 CURVE SMOOTH",
"389 125 OFFCURVE",
"336 82 OFFCURVE",
"249 82 CURVE SMOOTH",
"194 82 OFFCURVE",
"151 93 OFFCURVE",
"64 128 CURVE",
"35 41 LINE",
"113 8 OFFCURVE",
"184 -9 OFFCURVE",
"249 -9 CURVE SMOOTH",
"399 -9 OFFCURVE",
"489 68 OFFCURVE",
"489 195 CURVE SMOOTH",
"489 304 OFFCURVE",
"438 365 OFFCURVE",
"299 405 CURVE SMOOTH",
"183 438 OFFCURVE",
"150 469 OFFCURVE",
"150 531 CURVE SMOOTH",
"150 589 OFFCURVE",
"203 625 OFFCURVE",
"289 625 CURVE SMOOTH",
"332 625 OFFCURVE",
"383 613 OFFCURVE",
"443 590 CURVE",
"467 678 LINE",
"405 704 OFFCURVE",
"347 716 OFFCURVE",
"291 716 CURVE SMOOTH"
);
}
);
width = 528;
},
{
layerId = "6322FA20-8F24-49FB-9B55-AB1214B5D5A0";
name = Bold;
paths = (
{
closed = 1;
nodes = (
"462 801 LINE",
"306 942 LINE",
"275 942 LINE",
"119 801 LINE",
"160 751 LINE",
"290 838 LINE",
"421 751 LINE"
);
},
{
closed = 1;
nodes = (
"139 718 OFFCURVE",
"42 640 OFFCURVE",
"42 506 CURVE SMOOTH",
"42 401 OFFCURVE",
"98 338 OFFCURVE",
"225 307 CURVE SMOOTH",
"337 279 OFFCURVE",
"368 254 OFFCURVE",
"368 201 CURVE SMOOTH",
"368 145 OFFCURVE",
"326 112 OFFCURVE",
"253 112 CURVE SMOOTH",
"202 112 OFFCURVE",
"151 124 OFFCURVE",
"63 155 CURVE",
"27 41 LINE",
"110 8 OFFCURVE",
"181 -7 OFFCURVE",
"254 -7 CURVE SMOOTH",
"428 -7 OFFCURVE",
"524 70 OFFCURVE",
"524 208 CURVE SMOOTH",
"524 322 OFFCURVE",
"470 382 OFFCURVE",
"325 420 CURVE SMOOTH",
"226 446 OFFCURVE",
"197 472 OFFCURVE",
"197 522 CURVE SMOOTH",
"197 569 OFFCURVE",
"239 598 OFFCURVE",
"308 598 CURVE SMOOTH",
"349 598 OFFCURVE",
"409 585 OFFCURVE",
"474 562 CURVE",
"505 679 LINE",
"429 706 OFFCURVE",
"368 718 OFFCURVE",
"307 718 CURVE SMOOTH"
);
}
);
width = 555;
}
);
leftKerningGroup = S;
rightKerningGroup = S;
unicode = 015C;
},
{
glyphname = T;
lastChange = "2014-11-26 20:43:10 +0000";
layers = (
{
layerId = "06DA83F7-7F04-4345-A73D-275D0ED9D5E5";
name = Regular;
paths = (
{
closed = 1;
nodes = (
"10 623 LINE",
"229 623 LINE",
"229 0 LINE",
"325 0 LINE",
"325 623 LINE",
"532 623 LINE",
"532 708 LINE",
"10 708 LINE"
);
}
);
width = 542;
},
{
layerId = "6322FA20-8F24-49FB-9B55-AB1214B5D5A0";
name = Bold;
paths = (
{
closed = 1;
nodes = (
"7 593 LINE",
"206 593 LINE",
"206 0 LINE",
"359 0 LINE",
"359 593 LINE",
"551 593 LINE",
"551 709 LINE",
"7 709 LINE"
);
}
);
width = 558;
}
);
leftKerningGroup = T;
rightKerningGroup = T;
unicode = 0054;
},
{
glyphname = Tbar;
lastChange = "2014-11-26 20:43:10 +0000";
layers = (
{
layerId = "06DA83F7-7F04-4345-A73D-275D0ED9D5E5";
name = Regular;
paths = (
{
closed = 1;
nodes = (
"325 623 LINE",
"532 623 LINE",
"532 708 LINE",
"10 708 LINE",
"10 623 LINE",
"229 623 LINE",
"229 410 LINE",
"101 410 LINE",
"101 325 LINE",
"229 325 LINE",
"229 0 LINE",
"325 0 LINE",
"325 325 LINE",
"453 325 LINE",
"453 410 LINE",
"325 410 LINE"
);
}
);
width = 542;
},
{
layerId = "6322FA20-8F24-49FB-9B55-AB1214B5D5A0";
name = Bold;
paths = (
{
closed = 1;
nodes = (
"355 594 LINE",
"546 594 LINE",
"546 709 LINE",
"2 709 LINE",
"2 594 LINE",
"202 594 LINE",
"202 420 LINE",
"77 420 LINE",
"77 306 LINE",
"202 306 LINE",
"202 0 LINE",
"355 0 LINE",
"355 306 LINE",
"477 306 LINE",
"477 420 LINE",
"355 420 LINE"
);
}
);
width = 549;
}
);
leftKerningGroup = Tbar;
rightKerningGroup = Tbar;
unicode = 0166;
},
{
glyphname = Tcaron;
lastChange = "2014-11-26 20:43:10 +0000";
layers = (
{
layerId = "06DA83F7-7F04-4345-A73D-275D0ED9D5E5";
name = Regular;
paths = (
{
closed = 1;
nodes = (
"430 905 LINE",
"393 939 LINE",
"278 851 LINE",
"164 939 LINE",
"127 905 LINE",
"260 771 LINE",
"297 771 LINE"
);
},
{
closed = 1;
nodes = (
"10 623 LINE",
"229 623 LINE",
"229 0 LINE",
"325 0 LINE",
"325 623 LINE",
"532 623 LINE",
"532 708 LINE",
"10 708 LINE"
);
}
);
width = 542;
},
{
layerId = "6322FA20-8F24-49FB-9B55-AB1214B5D5A0";
name = Bold;
paths = (
{
closed = 1;
nodes = (
"456 899 LINE",
"415 949 LINE",
"284 862 LINE",
"154 949 LINE",
"113 899 LINE",
"269 758 LINE",
"300 758 LINE"
);
},
{
closed = 1;
nodes = (
"7 593 LINE",
"206 593 LINE",
"206 0 LINE",
"359 0 LINE",
"359 593 LINE",
"551 593 LINE",
"551 709 LINE",
"7 709 LINE"
);
}
);
width = 558;
}
);
leftKerningGroup = T;
rightKerningGroup = T;
unicode = 0164;
},
{
glyphname = U;
lastChange = "2014-11-26 20:43:10 +0000";
layers = (
{
layerId = "06DA83F7-7F04-4345-A73D-275D0ED9D5E5";
name = Regular;
paths = (
{
closed = 1;
nodes = (
"631 708 LINE",
"535 708 LINE",
"535 238 LINE SMOOTH",
"535 132 OFFCURVE",
"475 80 OFFCURVE",
"354 80 CURVE SMOOTH",
"233 80 OFFCURVE",
"174 132 OFFCURVE",
"174 238 CURVE SMOOTH",
"174 708 LINE",
"78 708 LINE",
"78 238 LINE SMOOTH",
"78 81 OFFCURVE",
"178 -9 OFFCURVE",
"354 -9 CURVE SMOOTH",
"529 -9 OFFCURVE",
"631 82 OFFCURVE",
"631 238 CURVE SMOOTH"
);
}
);
width = 709;
},
{
layerId = "6322FA20-8F24-49FB-9B55-AB1214B5D5A0";
name = Bold;
paths = (
{
closed = 1;
nodes = (
"658 709 LINE",
"505 709 LINE",
"505 240 LINE SMOOTH",
"505 154 OFFCURVE",
"456 111 OFFCURVE",
"362 111 CURVE SMOOTH",
"266 111 OFFCURVE",
"219 154 OFFCURVE",
"219 240 CURVE SMOOTH",
"219 709 LINE",
"66 709 LINE",
"66 242 LINE SMOOTH",
"66 76 OFFCURVE",
"168 -10 OFFCURVE",
"362 -10 CURVE SMOOTH",
"553 -10 OFFCURVE",
"658 78 OFFCURVE",
"658 242 CURVE SMOOTH"
);
}
);
width = 724;
}
);
leftKerningGroup = IJ;
rightKerningGroup = IJ;
unicode = 0055;
},
{
glyphname = Uacute;
lastChange = "2014-11-26 20:43:10 +0000";
layers = (
{
layerId = "06DA83F7-7F04-4345-A73D-275D0ED9D5E5";
name = Regular;
paths = (
{
closed = 1;
nodes = (
"440 959 LINE",
"307 795 LINE",
"344 761 LINE",
"500 897 LINE"
);
},
{
closed = 1;
nodes = (
"631 708 LINE",
"535 708 LINE",
"535 238 LINE SMOOTH",
"535 132 OFFCURVE",
"475 80 OFFCURVE",
"354 80 CURVE SMOOTH",
"233 80 OFFCURVE",
"174 132 OFFCURVE",
"174 238 CURVE SMOOTH",
"174 708 LINE",
"78 708 LINE",
"78 238 LINE SMOOTH",
"78 81 OFFCURVE",
"178 -9 OFFCURVE",
"354 -9 CURVE SMOOTH",
"529 -9 OFFCURVE",
"631 82 OFFCURVE",
"631 238 CURVE SMOOTH"
);
}
);
width = 709;
},
{
layerId = "6322FA20-8F24-49FB-9B55-AB1214B5D5A0";
name = Bold;
paths = (
{
closed = 1;
nodes = (
"450 965 LINE",
"294 804 LINE",
"335 754 LINE",
"515 879 LINE"
);
},
{
closed = 1;
nodes = (
"658 709 LINE",
"505 709 LINE",
"505 240 LINE SMOOTH",
"505 154 OFFCURVE",
"456 111 OFFCURVE",
"362 111 CURVE SMOOTH",
"266 111 OFFCURVE",
"219 154 OFFCURVE",
"219 240 CURVE SMOOTH",
"219 709 LINE",
"66 709 LINE",
"66 242 LINE SMOOTH",
"66 76 OFFCURVE",
"168 -10 OFFCURVE",
"362 -10 CURVE SMOOTH",
"553 -10 OFFCURVE",
"658 78 OFFCURVE",
"658 242 CURVE SMOOTH"
);
}
);
width = 724;
}
);
leftKerningGroup = IJ;
rightKerningGroup = IJ;
unicode = 00DA;
},
{
glyphname = Ubreve;
lastChange = "2014-11-26 20:43:10 +0000";
layers = (
{
layerId = "06DA83F7-7F04-4345-A73D-275D0ED9D5E5";
name = Regular;
paths = (
{
closed = 1;
nodes = (
"436 901 LINE",
"436 861 OFFCURVE",
"403 832 OFFCURVE",
"356 832 CURVE SMOOTH",
"308 832 OFFCURVE",
"277 859 OFFCURVE",
"277 901 CURVE",
"213 901 LINE",
"213 821 OFFCURVE",
"270 767 OFFCURVE",
"356 767 CURVE SMOOTH",
"442 767 OFFCURVE",
"500 821 OFFCURVE",
"500 901 CURVE"
);
},
{
closed = 1;
nodes = (
"631 708 LINE",
"535 708 LINE",
"535 238 LINE SMOOTH",
"535 132 OFFCURVE",
"475 80 OFFCURVE",
"354 80 CURVE SMOOTH",
"233 80 OFFCURVE",
"174 132 OFFCURVE",
"174 238 CURVE SMOOTH",
"174 708 LINE",
"78 708 LINE",
"78 238 LINE SMOOTH",
"78 81 OFFCURVE",
"178 -9 OFFCURVE",
"354 -9 CURVE SMOOTH",
"529 -9 OFFCURVE",
"631 82 OFFCURVE",
"631 238 CURVE SMOOTH"
);
}
);
width = 709;
},
{
layerId = "6322FA20-8F24-49FB-9B55-AB1214B5D5A0";
name = Bold;
paths = (
{
closed = 1;
nodes = (
"436 902 LINE",
"436 863 OFFCURVE",
"407 836 OFFCURVE",
"363 836 CURVE SMOOTH",
"318 836 OFFCURVE",
"291 861 OFFCURVE",
"291 902 CURVE",
"206 902 LINE",
"206 814 OFFCURVE",
"267 757 OFFCURVE",
"363 757 CURVE SMOOTH",
"459 757 OFFCURVE",
"521 814 OFFCURVE",
"521 902 CURVE"
);
},
{
closed = 1;
nodes = (
"658 709 LINE",
"505 709 LINE",
"505 240 LINE SMOOTH",
"505 154 OFFCURVE",
"456 111 OFFCURVE",
"362 111 CURVE SMOOTH",
"266 111 OFFCURVE",
"219 154 OFFCURVE",
"219 240 CURVE SMOOTH",
"219 709 LINE",
"66 709 LINE",
"66 242 LINE SMOOTH",
"66 76 OFFCURVE",
"168 -10 OFFCURVE",
"362 -10 CURVE SMOOTH",
"553 -10 OFFCURVE",
"658 78 OFFCURVE",
"658 242 CURVE SMOOTH"
);
}
);
width = 724;
}
);
leftKerningGroup = IJ;
rightKerningGroup = IJ;
unicode = 016C;
},
{
glyphname = Ucircumflex;
lastChange = "2014-11-26 20:43:10 +0000";
layers = (
{
layerId = "06DA83F7-7F04-4345-A73D-275D0ED9D5E5";
name = Regular;
paths = (
{
closed = 1;
nodes = (
"506 795 LINE",
"373 929 LINE",
"336 929 LINE",
"203 795 LINE",
"240 761 LINE",
"354 849 LINE",
"469 761 LINE"
);
},
{
closed = 1;
nodes = (
"631 708 LINE",
"535 708 LINE",
"535 238 LINE SMOOTH",
"535 132 OFFCURVE",
"475 80 OFFCURVE",
"354 80 CURVE SMOOTH",
"233 80 OFFCURVE",
"174 132 OFFCURVE",
"174 238 CURVE SMOOTH",
"174 708 LINE",
"78 708 LINE",
"78 238 LINE SMOOTH",
"78 81 OFFCURVE",
"178 -9 OFFCURVE",
"354 -9 CURVE SMOOTH",
"529 -9 OFFCURVE",
"631 82 OFFCURVE",
"631 238 CURVE SMOOTH"
);
}
);
width = 709;
},
{
layerId = "6322FA20-8F24-49FB-9B55-AB1214B5D5A0";
name = Bold;
paths = (
{
closed = 1;
nodes = (
"534 801 LINE",
"378 942 LINE",
"347 942 LINE",
"191 801 LINE",
"232 751 LINE",
"362 838 LINE",
"493 751 LINE"
);
},
{
closed = 1;
nodes = (
"658 709 LINE",
"505 709 LINE",
"505 240 LINE SMOOTH",
"505 154 OFFCURVE",
"456 111 OFFCURVE",
"362 111 CURVE SMOOTH",
"266 111 OFFCURVE",
"219 154 OFFCURVE",
"219 240 CURVE SMOOTH",
"219 709 LINE",
"66 709 LINE",
"66 242 LINE SMOOTH",
"66 76 OFFCURVE",
"168 -10 OFFCURVE",
"362 -10 CURVE SMOOTH",
"553 -10 OFFCURVE",
"658 78 OFFCURVE",
"658 242 CURVE SMOOTH"
);
}
);
width = 724;
}
);
leftKerningGroup = IJ;
rightKerningGroup = IJ;
unicode = 00DB;
},
{
glyphname = Udieresis;
lastChange = "2014-11-26 20:43:10 +0000";
layers = (
{
layerId = "06DA83F7-7F04-4345-A73D-275D0ED9D5E5";
name = Regular;
paths = (
{
closed = 1;
nodes = (
"310 890 LINE",
"217 890 LINE",
"217 797 LINE",
"310 797 LINE"
);
},
{
closed = 1;
nodes = (
"491 890 LINE",
"399 890 LINE",
"399 797 LINE",
"491 797 LINE"
);
},
{
closed = 1;
nodes = (
"631 708 LINE",
"535 708 LINE",
"535 238 LINE SMOOTH",
"535 132 OFFCURVE",
"475 80 OFFCURVE",
"354 80 CURVE SMOOTH",
"233 80 OFFCURVE",
"174 132 OFFCURVE",
"174 238 CURVE SMOOTH",
"174 708 LINE",
"78 708 LINE",
"78 238 LINE SMOOTH",
"78 81 OFFCURVE",
"178 -9 OFFCURVE",
"354 -9 CURVE SMOOTH",
"529 -9 OFFCURVE",
"631 82 OFFCURVE",
"631 238 CURVE SMOOTH"
);
}
);
width = 709;
},
{
layerId = "6322FA20-8F24-49FB-9B55-AB1214B5D5A0";
name = Bold;
paths = (
{
closed = 1;
nodes = (
"319 901 LINE",
"197 901 LINE",
"197 783 LINE",
"319 783 LINE"
);
},
{
closed = 1;
nodes = (
"525 901 LINE",
"404 901 LINE",
"404 783 LINE",
"525 783 LINE"
);
},
{
closed = 1;
nodes = (
"658 709 LINE",
"505 709 LINE",
"505 240 LINE SMOOTH",
"505 154 OFFCURVE",
"456 111 OFFCURVE",
"362 111 CURVE SMOOTH",
"266 111 OFFCURVE",
"219 154 OFFCURVE",
"219 240 CURVE SMOOTH",
"219 709 LINE",
"66 709 LINE",
"66 242 LINE SMOOTH",
"66 76 OFFCURVE",
"168 -10 OFFCURVE",
"362 -10 CURVE SMOOTH",
"553 -10 OFFCURVE",
"658 78 OFFCURVE",
"658 242 CURVE SMOOTH"
);
}
);
width = 724;
}
);
leftKerningGroup = IJ;
rightKerningGroup = IJ;
unicode = 00DC;
},
{
glyphname = Ugrave;
lastChange = "2014-11-26 20:43:10 +0000";
layers = (
{
layerId = "06DA83F7-7F04-4345-A73D-275D0ED9D5E5";
name = Regular;
paths = (
{
closed = 1;
nodes = (
"386 795 LINE",
"253 959 LINE",
"193 897 LINE",
"349 761 LINE"
);
},
{
closed = 1;
nodes = (
"631 708 LINE",
"535 708 LINE",
"535 238 LINE SMOOTH",
"535 132 OFFCURVE",
"475 80 OFFCURVE",
"354 80 CURVE SMOOTH",
"233 80 OFFCURVE",
"174 132 OFFCURVE",
"174 238 CURVE SMOOTH",
"174 708 LINE",
"78 708 LINE",
"78 238 LINE SMOOTH",
"78 81 OFFCURVE",
"178 -9 OFFCURVE",
"354 -9 CURVE SMOOTH",
"529 -9 OFFCURVE",
"631 82 OFFCURVE",
"631 238 CURVE SMOOTH"
);
}
);
width = 709;
},
{
layerId = "6322FA20-8F24-49FB-9B55-AB1214B5D5A0";
name = Bold;
paths = (
{
closed = 1;
nodes = (
"406 804 LINE",
"250 965 LINE",
"185 879 LINE",
"365 754 LINE"
);
},
{
closed = 1;
nodes = (
"658 709 LINE",
"505 709 LINE",
"505 240 LINE SMOOTH",
"505 154 OFFCURVE",
"456 111 OFFCURVE",
"362 111 CURVE SMOOTH",
"266 111 OFFCURVE",
"219 154 OFFCURVE",
"219 240 CURVE SMOOTH",
"219 709 LINE",
"66 709 LINE",
"66 242 LINE SMOOTH",
"66 76 OFFCURVE",
"168 -10 OFFCURVE",
"362 -10 CURVE SMOOTH",
"553 -10 OFFCURVE",
"658 78 OFFCURVE",
"658 242 CURVE SMOOTH"
);
}
);
width = 724;
}
);
leftKerningGroup = IJ;
rightKerningGroup = IJ;
unicode = 00D9;
},
{
glyphname = Uhungarumlaut;
lastChange = "2014-11-26 20:43:10 +0000";
layers = (
{
layerId = "06DA83F7-7F04-4345-A73D-275D0ED9D5E5";
name = Regular;
paths = (
{
closed = 1;
nodes = (
"361 959 LINE",
"227 795 LINE",
"264 761 LINE",
"421 897 LINE"
);
},
{
closed = 1;
nodes = (
"531 959 LINE",
"397 795 LINE",
"434 761 LINE",
"591 897 LINE"
);
},
{
closed = 1;
nodes = (
"631 708 LINE",
"535 708 LINE",
"535 238 LINE SMOOTH",
"535 132 OFFCURVE",
"475 80 OFFCURVE",
"354 80 CURVE SMOOTH",
"233 80 OFFCURVE",
"174 132 OFFCURVE",
"174 238 CURVE SMOOTH",
"174 708 LINE",
"78 708 LINE",
"78 238 LINE SMOOTH",
"78 81 OFFCURVE",
"178 -9 OFFCURVE",
"354 -9 CURVE SMOOTH",
"529 -9 OFFCURVE",
"631 82 OFFCURVE",
"631 238 CURVE SMOOTH"
);
}
);
width = 709;
},
{
layerId = "6322FA20-8F24-49FB-9B55-AB1214B5D5A0";
name = Bold;
paths = (
{
closed = 1;
nodes = (
"345 967 LINE",
"220 792 LINE",
"272 754 LINE",
"428 901 LINE"
);
},
{
closed = 1;
nodes = (
"524 967 LINE",
"398 792 LINE",
"450 754 LINE",
"607 901 LINE"
);
},
{
closed = 1;
nodes = (
"658 709 LINE",
"505 709 LINE",
"505 240 LINE SMOOTH",
"505 154 OFFCURVE",
"456 111 OFFCURVE",
"362 111 CURVE SMOOTH",
"266 111 OFFCURVE",
"219 154 OFFCURVE",
"219 240 CURVE SMOOTH",
"219 709 LINE",
"66 709 LINE",
"66 242 LINE SMOOTH",
"66 76 OFFCURVE",
"168 -10 OFFCURVE",
"362 -10 CURVE SMOOTH",
"553 -10 OFFCURVE",
"658 78 OFFCURVE",
"658 242 CURVE SMOOTH"
);
}
);
width = 724;
}
);
leftKerningGroup = IJ;
rightKerningGroup = IJ;
unicode = 0170;
},
{
glyphname = Umacron;
lastChange = "2014-11-26 20:43:10 +0000";
layers = (
{
layerId = "06DA83F7-7F04-4345-A73D-275D0ED9D5E5";
name = Regular;
paths = (
{
closed = 1;
nodes = (
"508 878 LINE",
"204 878 LINE",
"204 808 LINE",
"508 808 LINE"
);
},
{
closed = 1;
nodes = (
"631 708 LINE",
"535 708 LINE",
"535 238 LINE SMOOTH",
"535 132 OFFCURVE",
"475 80 OFFCURVE",
"354 80 CURVE SMOOTH",
"233 80 OFFCURVE",
"174 132 OFFCURVE",
"174 238 CURVE SMOOTH",
"174 708 LINE",
"78 708 LINE",
"78 238 LINE SMOOTH",
"78 81 OFFCURVE",
"178 -9 OFFCURVE",
"354 -9 CURVE SMOOTH",
"529 -9 OFFCURVE",
"631 82 OFFCURVE",
"631 238 CURVE SMOOTH"
);
}
);
width = 709;
},
{
layerId = "6322FA20-8F24-49FB-9B55-AB1214B5D5A0";
name = Bold;
paths = (
{
closed = 1;
nodes = (
"528 886 LINE",
"198 886 LINE",
"198 793 LINE",
"528 793 LINE"
);
},
{
closed = 1;
nodes = (
"658 709 LINE",
"505 709 LINE",
"505 240 LINE SMOOTH",
"505 154 OFFCURVE",
"456 111 OFFCURVE",
"362 111 CURVE SMOOTH",
"266 111 OFFCURVE",
"219 154 OFFCURVE",
"219 240 CURVE SMOOTH",
"219 709 LINE",
"66 709 LINE",
"66 242 LINE SMOOTH",
"66 76 OFFCURVE",
"168 -10 OFFCURVE",
"362 -10 CURVE SMOOTH",
"553 -10 OFFCURVE",
"658 78 OFFCURVE",
"658 242 CURVE SMOOTH"
);
}
);
width = 724;
}
);
leftKerningGroup = IJ;
rightKerningGroup = IJ;
unicode = 016A;
},
{
glyphname = Uogonek;
lastChange = "2014-11-26 20:43:10 +0000";
layers = (
{
layerId = "06DA83F7-7F04-4345-A73D-275D0ED9D5E5";
name = Regular;
paths = (
{
closed = 1;
nodes = (
"631 708 LINE",
"535 708 LINE",
"535 238 LINE SMOOTH",
"535 132 OFFCURVE",
"475 80 OFFCURVE",
"354 80 CURVE SMOOTH",
"233 80 OFFCURVE",
"174 132 OFFCURVE",
"174 238 CURVE SMOOTH",
"174 708 LINE",
"78 708 LINE",
"78 238 LINE SMOOTH",
"78 88 OFFCURVE",
"169 -2 OFFCURVE",
"332 -9 CURVE",
"341 -9 LINE",
"341 -14 LINE",
"296 -39 OFFCURVE",
"261 -83 OFFCURVE",
"261 -132 CURVE SMOOTH",
"261 -198 OFFCURVE",
"310 -225 OFFCURVE",
"357 -225 CURVE SMOOTH",
"395 -225 OFFCURVE",
"422 -215 OFFCURVE",
"452 -199 CURVE",
"438 -159 LINE",
"423 -165 OFFCURVE",
"406 -169 OFFCURVE",
"390 -169 CURVE SMOOTH",
"366 -169 OFFCURVE",
"344 -154 OFFCURVE",
"344 -121 CURVE SMOOTH",
"344 -87 OFFCURVE",
"363 -59 OFFCURVE",
"392 -36 CURVE SMOOTH",
"434 -1 OFFCURVE",
"484 6 OFFCURVE",
"527 33 CURVE SMOOTH",
"594 74 OFFCURVE",
"631 144 OFFCURVE",
"631 238 CURVE SMOOTH"
);
}
);
width = 709;
},
{
layerId = "6322FA20-8F24-49FB-9B55-AB1214B5D5A0";
name = Bold;
paths = (
{
closed = 1;
nodes = (
"653 709 LINE",
"500 709 LINE",
"500 240 LINE SMOOTH",
"500 154 OFFCURVE",
"451 111 OFFCURVE",
"357 111 CURVE SMOOTH",
"261 111 OFFCURVE",
"214 154 OFFCURVE",
"214 240 CURVE SMOOTH",
"214 709 LINE",
"61 709 LINE",
"61 242 LINE SMOOTH",
"61 88 OFFCURVE",
"149 1 OFFCURVE",
"317 -9 CURVE",
"327 -9 LINE",
"327 -14 LINE",
"281 -40 OFFCURVE",
"248 -84 OFFCURVE",
"248 -131 CURVE SMOOTH",
"248 -195 OFFCURVE",
"295 -225 OFFCURVE",
"350 -225 CURVE SMOOTH",
"394 -225 OFFCURVE",
"428 -214 OFFCURVE",
"471 -192 CURVE",
"453 -141 LINE",
"438 -148 OFFCURVE",
"420 -152 OFFCURVE",
"405 -152 CURVE SMOOTH",
"382 -152 OFFCURVE",
"364 -139 OFFCURVE",
"364 -111 CURVE SMOOTH",
"364 -81 OFFCURVE",
"381 -54 OFFCURVE",
"408 -33 CURVE SMOOTH",
"451 2 OFFCURVE",
"503 7 OFFCURVE",
"547 33 CURVE SMOOTH",
"616 75 OFFCURVE",
"653 145 OFFCURVE",
"653 242 CURVE SMOOTH"
);
}
);
width = 719;
}
);
leftKerningGroup = IJ;
rightKerningGroup = IJ;
unicode = 0172;
},
{
glyphname = Uring;
lastChange = "2014-11-26 20:43:10 +0000";
layers = (
{
layerId = "06DA83F7-7F04-4345-A73D-275D0ED9D5E5";
name = Regular;
paths = (
{
closed = 1;
nodes = (
"282 1020 OFFCURVE",
"221 961 OFFCURVE",
"221 891 CURVE SMOOTH",
"221 821 OFFCURVE",
"282 762 OFFCURVE",
"355 762 CURVE SMOOTH",
"428 762 OFFCURVE",
"489 821 OFFCURVE",
"489 891 CURVE SMOOTH",
"489 961 OFFCURVE",
"428 1020 OFFCURVE",
"355 1020 CURVE SMOOTH"
);
},
{
closed = 1;
nodes = (
"390 954 OFFCURVE",
"418 926 OFFCURVE",
"418 891 CURVE SMOOTH",
"418 856 OFFCURVE",
"390 827 OFFCURVE",
"355 827 CURVE SMOOTH",
"320 827 OFFCURVE",
"291 856 OFFCURVE",
"291 891 CURVE SMOOTH",
"291 926 OFFCURVE",
"320 954 OFFCURVE",
"355 954 CURVE SMOOTH"
);
},
{
closed = 1;
nodes = (
"631 708 LINE",
"535 708 LINE",
"535 238 LINE SMOOTH",
"535 132 OFFCURVE",
"475 80 OFFCURVE",
"354 80 CURVE SMOOTH",
"233 80 OFFCURVE",
"174 132 OFFCURVE",
"174 238 CURVE SMOOTH",
"174 708 LINE",
"78 708 LINE",
"78 238 LINE SMOOTH",
"78 81 OFFCURVE",
"178 -9 OFFCURVE",
"354 -9 CURVE SMOOTH",
"529 -9 OFFCURVE",
"631 82 OFFCURVE",
"631 238 CURVE SMOOTH"
);
}
);
width = 709;
},
{
layerId = "6322FA20-8F24-49FB-9B55-AB1214B5D5A0";
name = Bold;
paths = (
{
closed = 1;
nodes = (
"286 1022 OFFCURVE",
"223 961 OFFCURVE",
"223 889 CURVE SMOOTH",
"223 817 OFFCURVE",
"286 756 OFFCURVE",
"362 756 CURVE SMOOTH",
"437 756 OFFCURVE",
"500 817 OFFCURVE",
"500 889 CURVE SMOOTH",
"500 961 OFFCURVE",
"437 1022 OFFCURVE",
"362 1022 CURVE SMOOTH"
);
},
{
closed = 1;
nodes = (
"396 946 OFFCURVE",
"419 921 OFFCURVE",
"419 889 CURVE SMOOTH",
"419 857 OFFCURVE",
"395 830 OFFCURVE",
"362 830 CURVE SMOOTH",
"328 830 OFFCURVE",
"303 857 OFFCURVE",
"303 889 CURVE SMOOTH",
"303 921 OFFCURVE",
"327 946 OFFCURVE",
"362 946 CURVE SMOOTH"
);
},
{
closed = 1;
nodes = (
"658 709 LINE",
"505 709 LINE",
"505 240 LINE SMOOTH",
"505 154 OFFCURVE",
"456 111 OFFCURVE",
"362 111 CURVE SMOOTH",
"266 111 OFFCURVE",
"219 154 OFFCURVE",
"219 240 CURVE SMOOTH",
"219 709 LINE",
"66 709 LINE",
"66 242 LINE SMOOTH",
"66 76 OFFCURVE",
"168 -10 OFFCURVE",
"362 -10 CURVE SMOOTH",
"553 -10 OFFCURVE",
"658 78 OFFCURVE",
"658 242 CURVE SMOOTH"
);
}
);
width = 724;
}
);
leftKerningGroup = IJ;
rightKerningGroup = IJ;
unicode = 016E;
},
{
glyphname = Utilde;
lastChange = "2014-11-26 20:43:10 +0000";
layers = (
{
layerId = "06DA83F7-7F04-4345-A73D-275D0ED9D5E5";
name = Regular;
paths = (
{
closed = 1;
nodes = (
"215 912 OFFCURVE",
"171 865 OFFCURVE",
"171 793 CURVE",
"235 793 LINE",
"235 824 OFFCURVE",
"254 843 OFFCURVE",
"283 843 CURVE SMOOTH",
"335 843 OFFCURVE",
"347 784 OFFCURVE",
"423 784 CURVE SMOOTH",
"488 784 OFFCURVE",
"531 831 OFFCURVE",
"531 903 CURVE",
"467 903 LINE",
"467 873 OFFCURVE",
"451 854 OFFCURVE",
"426 854 CURVE SMOOTH",
"370 854 OFFCURVE",
"362 912 OFFCURVE",
"284 912 CURVE SMOOTH"
);
},
{
closed = 1;
nodes = (
"631 708 LINE",
"535 708 LINE",
"535 238 LINE SMOOTH",
"535 132 OFFCURVE",
"475 80 OFFCURVE",
"354 80 CURVE SMOOTH",
"233 80 OFFCURVE",
"174 132 OFFCURVE",
"174 238 CURVE SMOOTH",
"174 708 LINE",
"78 708 LINE",
"78 238 LINE SMOOTH",
"78 81 OFFCURVE",
"178 -9 OFFCURVE",
"354 -9 CURVE SMOOTH",
"529 -9 OFFCURVE",
"631 82 OFFCURVE",
"631 238 CURVE SMOOTH"
);
}
);
width = 709;
},
{
layerId = "6322FA20-8F24-49FB-9B55-AB1214B5D5A0";
name = Bold;
paths = (
{
closed = 1;
nodes = (
"210 927 OFFCURVE",
"161 873 OFFCURVE",
"161 785 CURVE",
"246 785 LINE",
"246 821 OFFCURVE",
"264 842 OFFCURVE",
"292 842 CURVE SMOOTH",
"338 842 OFFCURVE",
"358 774 OFFCURVE",
"435 774 CURVE SMOOTH",
"510 774 OFFCURVE",
"559 830 OFFCURVE",
"559 916 CURVE",
"475 916 LINE",
"475 882 OFFCURVE",
"459 860 OFFCURVE",
"434 860 CURVE SMOOTH",
"378 860 OFFCURVE",
"370 927 OFFCURVE",
"288 927 CURVE SMOOTH"
);
},
{
closed = 1;
nodes = (
"658 709 LINE",
"505 709 LINE",
"505 240 LINE SMOOTH",
"505 154 OFFCURVE",
"456 111 OFFCURVE",
"362 111 CURVE SMOOTH",
"266 111 OFFCURVE",
"219 154 OFFCURVE",
"219 240 CURVE SMOOTH",
"219 709 LINE",
"66 709 LINE",
"66 242 LINE SMOOTH",
"66 76 OFFCURVE",
"168 -10 OFFCURVE",
"362 -10 CURVE SMOOTH",
"553 -10 OFFCURVE",
"658 78 OFFCURVE",
"658 242 CURVE SMOOTH"
);
}
);
width = 724;
}
);
leftKerningGroup = IJ;
rightKerningGroup = IJ;
unicode = 0168;
},
{
glyphname = V;
lastChange = "2014-11-26 20:43:10 +0000";
layers = (
{
layerId = "06DA83F7-7F04-4345-A73D-275D0ED9D5E5";
name = Regular;
paths = (
{
closed = 1;
nodes = (
"626 708 LINE",
"525 708 LINE",
"400 346 LINE SMOOTH",
"371 261 OFFCURVE",
"345 184 OFFCURVE",
"320 105 CURVE",
"295 185 OFFCURVE",
"268 265 OFFCURVE",
"240 346 CURVE SMOOTH",
"115 708 LINE",
"14 708 LINE",
"256 0 LINE",
"384 0 LINE"
);
}
);
width = 640;
},
{
layerId = "6322FA20-8F24-49FB-9B55-AB1214B5D5A0";
name = Bold;
paths = (
{
closed = 1;
nodes = (
"670 709 LINE",
"514 709 LINE",
"404 376 LINE SMOOTH",
"379 299 OFFCURVE",
"358 215 OFFCURVE",
"338 132 CURVE",
"317 215 OFFCURVE",
"296 301 OFFCURVE",
"271 376 CURVE SMOOTH",
"162 709 LINE",
"6 709 LINE",
"244 0 LINE",
"432 0 LINE"
);
}
);
width = 676;
}
);
leftKerningGroup = V;
rightKerningGroup = V;
unicode = 0056;
},
{
glyphname = W;
lastChange = "2014-11-26 20:43:10 +0000";
layers = (
{
layerId = "06DA83F7-7F04-4345-A73D-275D0ED9D5E5";
name = Regular;
paths = (
{
closed = 1;
nodes = (
"782 0 LINE",
"961 708 LINE",
"864 708 LINE",
"774 347 LINE",
"708 89 LINE",
"687 175 OFFCURVE",
"665 261 OFFCURVE",
"644 347 CURVE SMOOTH",
"555 708 LINE",
"427 708 LINE",
"338 347 LINE SMOOTH",
"317 261 OFFCURVE",
"295 175 OFFCURVE",
"274 89 CURVE",
"208 347 LINE",
"118 708 LINE",
"21 708 LINE",
"200 0 LINE",
"345 0 LINE",
"448 423 LINE SMOOTH",
"462 481 OFFCURVE",
"476 553 OFFCURVE",
"491 616 CURVE",
"506 553 OFFCURVE",
"520 481 OFFCURVE",
"534 423 CURVE SMOOTH",
"637 0 LINE"
);
}
);
width = 982;
},
{
layerId = "6322FA20-8F24-49FB-9B55-AB1214B5D5A0";
name = Bold;
paths = (
{
closed = 1;
nodes = (
"831 0 LINE",
"1003 709 LINE",
"851 709 LINE",
"775 376 LINE SMOOTH",
"757 296 OFFCURVE",
"738 221 OFFCURVE",
"720 141 CURVE",
"702 221 OFFCURVE",
"684 297 OFFCURVE",
"666 376 CURVE SMOOTH",
"589 709 LINE",
"427 709 LINE",
"350 376 LINE SMOOTH",
"332 297 OFFCURVE",
"314 221 OFFCURVE",
"296 141 CURVE",
"278 221 OFFCURVE",
"259 296 OFFCURVE",
"241 376 CURVE SMOOTH",
"165 709 LINE",
"13 709 LINE",
"185 0 LINE",
"387 0 LINE",
"473 371 LINE SMOOTH",
"485 424 OFFCURVE",
"496 491 OFFCURVE",
"508 553 CURVE",
"520 491 OFFCURVE",
"531 424 OFFCURVE",
"543 371 CURVE SMOOTH",
"629 0 LINE"
);
}
);
width = 1016;
}
);
leftKerningGroup = V;
rightKerningGroup = V;
unicode = 0057;
},
{
glyphname = Wacute;
lastChange = "2014-11-26 20:43:10 +0000";
layers = (
{
layerId = "06DA83F7-7F04-4345-A73D-275D0ED9D5E5";
name = Regular;
paths = (
{
closed = 1;
nodes = (
"575 959 LINE",
"442 795 LINE",
"479 761 LINE",
"635 897 LINE"
);
},
{
closed = 1;
nodes = (
"782 0 LINE",
"961 708 LINE",
"864 708 LINE",
"774 347 LINE",
"708 89 LINE",
"687 175 OFFCURVE",
"665 261 OFFCURVE",
"644 347 CURVE SMOOTH",
"555 708 LINE",
"427 708 LINE",
"338 347 LINE SMOOTH",
"317 261 OFFCURVE",
"295 175 OFFCURVE",
"274 89 CURVE",
"208 347 LINE",
"118 708 LINE",
"21 708 LINE",
"200 0 LINE",
"345 0 LINE",
"448 423 LINE SMOOTH",
"462 481 OFFCURVE",
"476 553 OFFCURVE",
"491 616 CURVE",
"506 553 OFFCURVE",
"520 481 OFFCURVE",
"534 423 CURVE SMOOTH",
"637 0 LINE"
);
}
);
width = 982;
},
{
layerId = "6322FA20-8F24-49FB-9B55-AB1214B5D5A0";
name = Bold;
paths = (
{
closed = 1;
nodes = (
"599 965 LINE",
"443 804 LINE",
"484 754 LINE",
"664 879 LINE"
);
},
{
closed = 1;
nodes = (
"831 0 LINE",
"1003 709 LINE",
"851 709 LINE",
"775 376 LINE SMOOTH",
"757 296 OFFCURVE",
"738 221 OFFCURVE",
"720 141 CURVE",
"702 221 OFFCURVE",
"684 297 OFFCURVE",
"666 376 CURVE SMOOTH",
"589 709 LINE",
"427 709 LINE",
"350 376 LINE SMOOTH",
"332 297 OFFCURVE",
"314 221 OFFCURVE",
"296 141 CURVE",
"278 221 OFFCURVE",
"259 296 OFFCURVE",
"241 376 CURVE SMOOTH",
"165 709 LINE",
"13 709 LINE",
"185 0 LINE",
"387 0 LINE",
"473 371 LINE SMOOTH",
"485 424 OFFCURVE",
"496 491 OFFCURVE",
"508 553 CURVE",
"520 491 OFFCURVE",
"531 424 OFFCURVE",
"543 371 CURVE SMOOTH",
"629 0 LINE"
);
}
);
width = 1016;
}
);
leftKerningGroup = V;
rightKerningGroup = V;
unicode = 1E82;
},
{
glyphname = Wcircumflex;
lastChange = "2014-11-26 20:43:10 +0000";
layers = (
{
layerId = "06DA83F7-7F04-4345-A73D-275D0ED9D5E5";
name = Regular;
paths = (
{
closed = 1;
nodes = (
"641 795 LINE",
"508 929 LINE",
"471 929 LINE",
"338 795 LINE",
"375 761 LINE",
"489 849 LINE",
"604 761 LINE"
);
},
{
closed = 1;
nodes = (
"782 0 LINE",
"961 708 LINE",
"864 708 LINE",
"774 347 LINE",
"708 89 LINE",
"687 175 OFFCURVE",
"665 261 OFFCURVE",
"644 347 CURVE SMOOTH",
"555 708 LINE",
"427 708 LINE",
"338 347 LINE SMOOTH",
"317 261 OFFCURVE",
"295 175 OFFCURVE",
"274 89 CURVE",
"208 347 LINE",
"118 708 LINE",
"21 708 LINE",
"200 0 LINE",
"345 0 LINE",
"448 423 LINE SMOOTH",
"462 481 OFFCURVE",
"476 553 OFFCURVE",
"491 616 CURVE",
"506 553 OFFCURVE",
"520 481 OFFCURVE",
"534 423 CURVE SMOOTH",
"637 0 LINE"
);
}
);
width = 982;
},
{
layerId = "6322FA20-8F24-49FB-9B55-AB1214B5D5A0";
name = Bold;
paths = (
{
closed = 1;
nodes = (
"682 801 LINE",
"526 942 LINE",
"495 942 LINE",
"339 801 LINE",
"380 751 LINE",
"510 838 LINE",
"641 751 LINE"
);
},
{
closed = 1;
nodes = (
"831 0 LINE",
"1003 709 LINE",
"851 709 LINE",
"775 376 LINE SMOOTH",
"757 296 OFFCURVE",
"738 221 OFFCURVE",
"720 141 CURVE",
"702 221 OFFCURVE",
"684 297 OFFCURVE",
"666 376 CURVE SMOOTH",
"589 709 LINE",
"427 709 LINE",
"350 376 LINE SMOOTH",
"332 297 OFFCURVE",
"314 221 OFFCURVE",
"296 141 CURVE",
"278 221 OFFCURVE",
"259 296 OFFCURVE",
"241 376 CURVE SMOOTH",
"165 709 LINE",
"13 709 LINE",
"185 0 LINE",
"387 0 LINE",
"473 371 LINE SMOOTH",
"485 424 OFFCURVE",
"496 491 OFFCURVE",
"508 553 CURVE",
"520 491 OFFCURVE",
"531 424 OFFCURVE",
"543 371 CURVE SMOOTH",
"629 0 LINE"
);
}
);
width = 1016;
}
);
leftKerningGroup = V;
rightKerningGroup = V;
unicode = 0174;
},
{
glyphname = Wdieresis;
lastChange = "2014-11-26 20:43:10 +0000";
layers = (
{
layerId = "06DA83F7-7F04-4345-A73D-275D0ED9D5E5";
name = Regular;
paths = (
{
closed = 1;
nodes = (
"445 890 LINE",
"352 890 LINE",
"352 797 LINE",
"445 797 LINE"
);
},
{
closed = 1;
nodes = (
"626 890 LINE",
"534 890 LINE",
"534 797 LINE",
"626 797 LINE"
);
},
{
closed = 1;
nodes = (
"782 0 LINE",
"961 708 LINE",
"864 708 LINE",
"774 347 LINE",
"708 89 LINE",
"687 175 OFFCURVE",
"665 261 OFFCURVE",
"644 347 CURVE SMOOTH",
"555 708 LINE",
"427 708 LINE",
"338 347 LINE SMOOTH",
"317 261 OFFCURVE",
"295 175 OFFCURVE",
"274 89 CURVE",
"208 347 LINE",
"118 708 LINE",
"21 708 LINE",
"200 0 LINE",
"345 0 LINE",
"448 423 LINE SMOOTH",
"462 481 OFFCURVE",
"476 553 OFFCURVE",
"491 616 CURVE",
"506 553 OFFCURVE",
"520 481 OFFCURVE",
"534 423 CURVE SMOOTH",
"637 0 LINE"
);
}
);
width = 982;
},
{
layerId = "6322FA20-8F24-49FB-9B55-AB1214B5D5A0";
name = Bold;
paths = (
{
closed = 1;
nodes = (
"468 901 LINE",
"346 901 LINE",
"346 783 LINE",
"468 783 LINE"
);
},
{
closed = 1;
nodes = (
"674 901 LINE",
"553 901 LINE",
"553 783 LINE",
"674 783 LINE"
);
},
{
closed = 1;
nodes = (
"831 0 LINE",
"1003 709 LINE",
"851 709 LINE",
"775 376 LINE SMOOTH",
"757 296 OFFCURVE",
"738 221 OFFCURVE",
"720 141 CURVE",
"702 221 OFFCURVE",
"684 297 OFFCURVE",
"666 376 CURVE SMOOTH",
"589 709 LINE",
"427 709 LINE",
"350 376 LINE SMOOTH",
"332 297 OFFCURVE",
"314 221 OFFCURVE",
"296 141 CURVE",
"278 221 OFFCURVE",
"259 296 OFFCURVE",
"241 376 CURVE SMOOTH",
"165 709 LINE",
"13 709 LINE",
"185 0 LINE",
"387 0 LINE",
"473 371 LINE SMOOTH",
"485 424 OFFCURVE",
"496 491 OFFCURVE",
"508 553 CURVE",
"520 491 OFFCURVE",
"531 424 OFFCURVE",
"543 371 CURVE SMOOTH",
"629 0 LINE"
);
}
);
width = 1016;
}
);
leftKerningGroup = V;
rightKerningGroup = V;
unicode = 1E84;
},
{
glyphname = Wgrave;
lastChange = "2014-11-26 20:43:10 +0000";
layers = (
{
layerId = "06DA83F7-7F04-4345-A73D-275D0ED9D5E5";
name = Regular;
paths = (
{
closed = 1;
nodes = (
"521 795 LINE",
"388 959 LINE",
"328 897 LINE",
"484 761 LINE"
);
},
{
closed = 1;
nodes = (
"782 0 LINE",
"961 708 LINE",
"864 708 LINE",
"774 347 LINE",
"708 89 LINE",
"687 175 OFFCURVE",
"665 261 OFFCURVE",
"644 347 CURVE SMOOTH",
"555 708 LINE",
"427 708 LINE",
"338 347 LINE SMOOTH",
"317 261 OFFCURVE",
"295 175 OFFCURVE",
"274 89 CURVE",
"208 347 LINE",
"118 708 LINE",
"21 708 LINE",
"200 0 LINE",
"345 0 LINE",
"448 423 LINE SMOOTH",
"462 481 OFFCURVE",
"476 553 OFFCURVE",
"491 616 CURVE",
"506 553 OFFCURVE",
"520 481 OFFCURVE",
"534 423 CURVE SMOOTH",
"637 0 LINE"
);
}
);
width = 982;
},
{
layerId = "6322FA20-8F24-49FB-9B55-AB1214B5D5A0";
name = Bold;
paths = (
{
closed = 1;
nodes = (
"555 804 LINE",
"399 965 LINE",
"334 879 LINE",
"514 754 LINE"
);
},
{
closed = 1;
nodes = (
"831 0 LINE",
"1003 709 LINE",
"851 709 LINE",
"775 376 LINE SMOOTH",
"757 296 OFFCURVE",
"738 221 OFFCURVE",
"720 141 CURVE",
"702 221 OFFCURVE",
"684 297 OFFCURVE",
"666 376 CURVE SMOOTH",
"589 709 LINE",
"427 709 LINE",
"350 376 LINE SMOOTH",
"332 297 OFFCURVE",
"314 221 OFFCURVE",
"296 141 CURVE",
"278 221 OFFCURVE",
"259 296 OFFCURVE",
"241 376 CURVE SMOOTH",
"165 709 LINE",
"13 709 LINE",
"185 0 LINE",
"387 0 LINE",
"473 371 LINE SMOOTH",
"485 424 OFFCURVE",
"496 491 OFFCURVE",
"508 553 CURVE",
"520 491 OFFCURVE",
"531 424 OFFCURVE",
"543 371 CURVE SMOOTH",
"629 0 LINE"
);
}
);
width = 1016;
}
);
leftKerningGroup = V;
rightKerningGroup = V;
unicode = 1E80;
},
{
glyphname = X;
lastChange = "2014-11-26 20:43:10 +0000";
layers = (
{
layerId = "06DA83F7-7F04-4345-A73D-275D0ED9D5E5";
name = Regular;
paths = (
{
closed = 1;
nodes = (
"496 0 LINE",
"607 0 LINE",
"373 367 LINE",
"589 708 LINE",
"477 708 LINE",
"310 444 LINE",
"143 708 LINE",
"31 708 LINE",
"247 367 LINE",
"13 0 LINE",
"124 0 LINE",
"310 290 LINE"
);
}
);
width = 620;
},
{
layerId = "6322FA20-8F24-49FB-9B55-AB1214B5D5A0";
name = Bold;
paths = (
{
closed = 1;
nodes = (
"485 0 LINE",
"659 0 LINE",
"440 367 LINE",
"639 709 LINE",
"472 709 LINE",
"332 454 LINE",
"192 709 LINE",
"25 709 LINE",
"225 367 LINE",
"5 0 LINE",
"179 0 LINE",
"332 279 LINE"
);
}
);
width = 665;
}
);
leftKerningGroup = X;
rightKerningGroup = X;
unicode = 0058;
},
{
glyphname = Y;
lastChange = "2014-11-26 20:43:10 +0000";
layers = (
{
layerId = "06DA83F7-7F04-4345-A73D-275D0ED9D5E5";
name = Regular;
paths = (
{
closed = 1;
nodes = (
"5 708 LINE",
"239 298 LINE",
"239 0 LINE",
"334 0 LINE",
"334 298 LINE",
"569 708 LINE",
"465 708 LINE",
"358 514 LINE SMOOTH",
"335 473 OFFCURVE",
"290 381 OFFCURVE",
"290 381 CURVE SMOOTH",
"284 381 LINE SMOOTH",
"284 381 OFFCURVE",
"239 473 OFFCURVE",
"217 514 CURVE SMOOTH",
"110 708 LINE"
);
}
);
width = 574;
},
{
layerId = "6322FA20-8F24-49FB-9B55-AB1214B5D5A0";
name = Bold;
paths = (
{
closed = 1;
nodes = (
"0 709 LINE",
"234 275 LINE",
"234 0 LINE",
"387 0 LINE",
"387 275 LINE",
"622 709 LINE",
"458 709 LINE",
"371 534 LINE SMOOTH",
"351 492 OFFCURVE",
"315 390 OFFCURVE",
"315 390 CURVE SMOOTH",
"307 390 LINE SMOOTH",
"307 390 OFFCURVE",
"270 492 OFFCURVE",
"251 534 CURVE SMOOTH",
"165 709 LINE"
);
}
);
width = 622;
}
);
leftKerningGroup = Y;
rightKerningGroup = Y;
unicode = 0059;
},
{
glyphname = Yacute;
lastChange = "2014-11-26 20:43:10 +0000";
layers = (
{
layerId = "06DA83F7-7F04-4345-A73D-275D0ED9D5E5";
name = Regular;
paths = (
{
closed = 1;
nodes = (
"371 959 LINE",
"238 795 LINE",
"275 761 LINE",
"431 897 LINE"
);
},
{
closed = 1;
nodes = (
"5 708 LINE",
"239 298 LINE",
"239 0 LINE",
"334 0 LINE",
"334 298 LINE",
"569 708 LINE",
"465 708 LINE",
"358 514 LINE SMOOTH",
"335 473 OFFCURVE",
"290 381 OFFCURVE",
"290 381 CURVE SMOOTH",
"284 381 LINE SMOOTH",
"284 381 OFFCURVE",
"239 473 OFFCURVE",
"217 514 CURVE SMOOTH",
"110 708 LINE"
);
}
);
width = 574;
},
{
layerId = "6322FA20-8F24-49FB-9B55-AB1214B5D5A0";
name = Bold;
paths = (
{
closed = 1;
nodes = (
"398 965 LINE",
"242 804 LINE",
"283 754 LINE",
"463 879 LINE"
);
},
{
closed = 1;
nodes = (
"0 709 LINE",
"234 275 LINE",
"234 0 LINE",
"387 0 LINE",
"387 275 LINE",
"622 709 LINE",
"458 709 LINE",
"371 534 LINE SMOOTH",
"351 492 OFFCURVE",
"315 390 OFFCURVE",
"315 390 CURVE SMOOTH",
"307 390 LINE SMOOTH",
"307 390 OFFCURVE",
"270 492 OFFCURVE",
"251 534 CURVE SMOOTH",
"165 709 LINE"
);
}
);
width = 622;
}
);
leftKerningGroup = Y;
rightKerningGroup = Y;
unicode = 00DD;
},
{
glyphname = Ycircumflex;
lastChange = "2014-11-26 20:43:10 +0000";
layers = (
{
layerId = "06DA83F7-7F04-4345-A73D-275D0ED9D5E5";
name = Regular;
paths = (
{
closed = 1;
nodes = (
"437 795 LINE",
"304 929 LINE",
"267 929 LINE",
"134 795 LINE",
"171 761 LINE",
"285 849 LINE",
"400 761 LINE"
);
},
{
closed = 1;
nodes = (
"5 708 LINE",
"239 298 LINE",
"239 0 LINE",
"334 0 LINE",
"334 298 LINE",
"569 708 LINE",
"465 708 LINE",
"358 514 LINE SMOOTH",
"335 473 OFFCURVE",
"290 381 OFFCURVE",
"290 381 CURVE SMOOTH",
"284 381 LINE SMOOTH",
"284 381 OFFCURVE",
"239 473 OFFCURVE",
"217 514 CURVE SMOOTH",
"110 708 LINE"
);
}
);
width = 574;
},
{
layerId = "6322FA20-8F24-49FB-9B55-AB1214B5D5A0";
name = Bold;
paths = (
{
closed = 1;
nodes = (
"482 801 LINE",
"326 942 LINE",
"295 942 LINE",
"139 801 LINE",
"180 751 LINE",
"310 838 LINE",
"441 751 LINE"
);
},
{
closed = 1;
nodes = (
"0 709 LINE",
"234 275 LINE",
"234 0 LINE",
"387 0 LINE",
"387 275 LINE",
"622 709 LINE",
"458 709 LINE",
"371 534 LINE SMOOTH",
"351 492 OFFCURVE",
"315 390 OFFCURVE",
"315 390 CURVE SMOOTH",
"307 390 LINE SMOOTH",
"307 390 OFFCURVE",
"270 492 OFFCURVE",
"251 534 CURVE SMOOTH",
"165 709 LINE"
);
}
);
width = 622;
}
);
leftKerningGroup = Y;
rightKerningGroup = Y;
unicode = 0176;
},
{
glyphname = Ydieresis;
lastChange = "2014-11-26 20:43:10 +0000";
layers = (
{
layerId = "06DA83F7-7F04-4345-A73D-275D0ED9D5E5";
name = Regular;
paths = (
{
closed = 1;
nodes = (
"241 890 LINE",
"148 890 LINE",
"148 797 LINE",
"241 797 LINE"
);
},
{
closed = 1;
nodes = (
"422 890 LINE",
"330 890 LINE",
"330 797 LINE",
"422 797 LINE"
);
},
{
closed = 1;
nodes = (
"5 708 LINE",
"239 298 LINE",
"239 0 LINE",
"334 0 LINE",
"334 298 LINE",
"569 708 LINE",
"465 708 LINE",
"358 514 LINE SMOOTH",
"335 473 OFFCURVE",
"290 381 OFFCURVE",
"290 381 CURVE SMOOTH",
"284 381 LINE SMOOTH",
"284 381 OFFCURVE",
"239 473 OFFCURVE",
"217 514 CURVE SMOOTH",
"110 708 LINE"
);
}
);
width = 574;
},
{
layerId = "6322FA20-8F24-49FB-9B55-AB1214B5D5A0";
name = Bold;
paths = (
{
closed = 1;
nodes = (
"267 901 LINE",
"145 901 LINE",
"145 783 LINE",
"267 783 LINE"
);
},
{
closed = 1;
nodes = (
"473 901 LINE",
"352 901 LINE",
"352 783 LINE",
"473 783 LINE"
);
},
{
closed = 1;
nodes = (
"0 709 LINE",
"234 275 LINE",
"234 0 LINE",
"387 0 LINE",
"387 275 LINE",
"622 709 LINE",
"458 709 LINE",
"371 534 LINE SMOOTH",
"351 492 OFFCURVE",
"315 390 OFFCURVE",
"315 390 CURVE SMOOTH",
"307 390 LINE SMOOTH",
"307 390 OFFCURVE",
"270 492 OFFCURVE",
"251 534 CURVE SMOOTH",
"165 709 LINE"
);
}
);
width = 622;
}
);
leftKerningGroup = Y;
rightKerningGroup = Y;
unicode = 0178;
},
{
glyphname = Ygrave;
lastChange = "2014-11-26 20:43:10 +0000";
layers = (
{
layerId = "06DA83F7-7F04-4345-A73D-275D0ED9D5E5";
name = Regular;
paths = (
{
closed = 1;
nodes = (
"317 795 LINE",
"184 959 LINE",
"124 897 LINE",
"280 761 LINE"
);
},
{
closed = 1;
nodes = (
"5 708 LINE",
"239 298 LINE",
"239 0 LINE",
"334 0 LINE",
"334 298 LINE",
"569 708 LINE",
"465 708 LINE",
"358 514 LINE SMOOTH",
"335 473 OFFCURVE",
"290 381 OFFCURVE",
"290 381 CURVE SMOOTH",
"284 381 LINE SMOOTH",
"284 381 OFFCURVE",
"239 473 OFFCURVE",
"217 514 CURVE SMOOTH",
"110 708 LINE"
);
}
);
width = 574;
},
{
layerId = "6322FA20-8F24-49FB-9B55-AB1214B5D5A0";
name = Bold;
paths = (
{
closed = 1;
nodes = (
"354 804 LINE",
"198 965 LINE",
"133 879 LINE",
"313 754 LINE"
);
},
{
closed = 1;
nodes = (
"0 709 LINE",
"234 275 LINE",
"234 0 LINE",
"387 0 LINE",
"387 275 LINE",
"622 709 LINE",
"458 709 LINE",
"371 534 LINE SMOOTH",
"351 492 OFFCURVE",
"315 390 OFFCURVE",
"315 390 CURVE SMOOTH",
"307 390 LINE SMOOTH",
"307 390 OFFCURVE",
"270 492 OFFCURVE",
"251 534 CURVE SMOOTH",
"165 709 LINE"
);
}
);
width = 622;
}
);
leftKerningGroup = Y;
rightKerningGroup = Y;
unicode = 1EF2;
},
{
glyphname = Z;
lastChange = "2014-11-26 20:43:10 +0000";
layers = (
{
layerId = "06DA83F7-7F04-4345-A73D-275D0ED9D5E5";
name = Regular;
paths = (
{
closed = 1;
nodes = (
"387 627 LINE",
"30 75 LINE",
"30 0 LINE",
"502 0 LINE",
"502 83 LINE",
"148 83 LINE",
"507 637 LINE",
"507 708 LINE",
"42 708 LINE",
"42 627 LINE"
);
}
);
width = 538;
},
{
layerId = "6322FA20-8F24-49FB-9B55-AB1214B5D5A0";
name = Bold;
paths = (
{
closed = 1;
nodes = (
"364 595 LINE",
"27 100 LINE",
"27 0 LINE",
"535 0 LINE",
"535 115 LINE",
"200 115 LINE",
"538 612 LINE",
"538 711 LINE",
"38 711 LINE",
"38 595 LINE"
);
}
);
width = 567;
}
);
leftKerningGroup = Z;
rightKerningGroup = Z;
unicode = 005A;
},
{
glyphname = Zacute;
lastChange = "2014-11-26 20:43:10 +0000";
layers = (
{
layerId = "06DA83F7-7F04-4345-A73D-275D0ED9D5E5";
name = Regular;
paths = (
{
closed = 1;
nodes = (
"372 959 LINE",
"239 795 LINE",
"276 761 LINE",
"432 897 LINE"
);
},
{
closed = 1;
nodes = (
"387 627 LINE",
"30 75 LINE",
"30 0 LINE",
"502 0 LINE",
"502 83 LINE",
"148 83 LINE",
"507 637 LINE",
"507 708 LINE",
"42 708 LINE",
"42 627 LINE"
);
}
);
width = 538;
},
{
layerId = "6322FA20-8F24-49FB-9B55-AB1214B5D5A0";
name = Bold;
paths = (
{
closed = 1;
nodes = (
"386 965 LINE",
"230 804 LINE",
"271 754 LINE",
"451 879 LINE"
);
},
{
closed = 1;
nodes = (
"364 595 LINE",
"27 100 LINE",
"27 0 LINE",
"535 0 LINE",
"535 115 LINE",
"200 115 LINE",
"538 612 LINE",
"538 711 LINE",
"38 711 LINE",
"38 595 LINE"
);
}
);
width = 567;
}
);
leftKerningGroup = Z;
rightKerningGroup = Z;
unicode = 0179;
},
{
glyphname = Zcaron;
lastChange = "2014-11-26 20:43:10 +0000";
layers = (
{
layerId = "06DA83F7-7F04-4345-A73D-275D0ED9D5E5";
name = Regular;
paths = (
{
closed = 1;
nodes = (
"441 905 LINE",
"404 939 LINE",
"289 851 LINE",
"175 939 LINE",
"138 905 LINE",
"271 771 LINE",
"308 771 LINE"
);
},
{
closed = 1;
nodes = (
"387 627 LINE",
"30 75 LINE",
"30 0 LINE",
"502 0 LINE",
"502 83 LINE",
"148 83 LINE",
"507 637 LINE",
"507 708 LINE",
"42 708 LINE",
"42 627 LINE"
);
}
);
width = 538;
},
{
layerId = "6322FA20-8F24-49FB-9B55-AB1214B5D5A0";
name = Bold;
paths = (
{
closed = 1;
nodes = (
"472 899 LINE",
"431 949 LINE",
"300 862 LINE",
"170 949 LINE",
"129 899 LINE",
"285 758 LINE",
"316 758 LINE"
);
},
{
closed = 1;
nodes = (
"364 595 LINE",
"27 100 LINE",
"27 0 LINE",
"535 0 LINE",
"535 115 LINE",
"200 115 LINE",
"538 612 LINE",
"538 711 LINE",
"38 711 LINE",
"38 595 LINE"
);
}
);
width = 567;
}
);
leftKerningGroup = Z;
rightKerningGroup = Z;
unicode = 017D;
},
{
glyphname = Zdotaccent;
lastChange = "2014-11-26 20:43:10 +0000";
layers = (
{
layerId = "06DA83F7-7F04-4345-A73D-275D0ED9D5E5";
name = Regular;
paths = (
{
closed = 1;
nodes = (
"334 890 LINE",
"241 890 LINE",
"241 797 LINE",
"334 797 LINE"
);
},
{
closed = 1;
nodes = (
"387 627 LINE",
"30 75 LINE",
"30 0 LINE",
"502 0 LINE",
"502 83 LINE",
"148 83 LINE",
"507 637 LINE",
"507 708 LINE",
"42 708 LINE",
"42 627 LINE"
);
}
);
width = 538;
},
{
layerId = "6322FA20-8F24-49FB-9B55-AB1214B5D5A0";
name = Bold;
paths = (
{
closed = 1;
nodes = (
"359 904 LINE",
"237 904 LINE",
"237 786 LINE",
"359 786 LINE"
);
},
{
closed = 1;
nodes = (
"364 595 LINE",
"27 100 LINE",
"27 0 LINE",
"535 0 LINE",
"535 115 LINE",
"200 115 LINE",
"538 612 LINE",
"538 711 LINE",
"38 711 LINE",
"38 595 LINE"
);
}
);
width = 567;
}
);
leftKerningGroup = Z;
rightKerningGroup = Z;
unicode = 017B;
},
{
glyphname = uni0122;
lastChange = "2014-11-26 20:43:10 +0000";
layers = (
{
layerId = "06DA83F7-7F04-4345-A73D-275D0ED9D5E5";
name = Regular;
paths = (
{
closed = 1;
nodes = (
"607 352 LINE",
"511 352 LINE",
"511 103 LINE",
"468 90 OFFCURVE",
"423 83 OFFCURVE",
"381 83 CURVE SMOOTH",
"232 83 OFFCURVE",
"148 181 OFFCURVE",
"148 356 CURVE SMOOTH",
"148 529 OFFCURVE",
"233 626 OFFCURVE",
"384 626 CURVE SMOOTH",
"443 626 OFFCURVE",
"498 611 OFFCURVE",
"562 579 CURVE",
"602 657 LINE",
"535 695 OFFCURVE",
"458 716 OFFCURVE",
"384 716 CURVE SMOOTH",
"173 716 OFFCURVE",
"48 582 OFFCURVE",
"48 356 CURVE SMOOTH",
"48 121 OFFCURVE",
"164 -7 OFFCURVE",
"377 -7 CURVE SMOOTH",
"453 -7 OFFCURVE",
"541 12 OFFCURVE",
"607 43 CURVE"
);
},
{
closed = 1;
nodes = (
"343 -215 LINE",
"385 -139 OFFCURVE",
"397 -105 OFFCURVE",
"407 -47 CURVE",
"313 -47 LINE",
"309 -107 OFFCURVE",
"301 -152 OFFCURVE",
"283 -215 CURVE"
);
}
);
width = 662;
},
{
layerId = "6322FA20-8F24-49FB-9B55-AB1214B5D5A0";
name = Bold;
paths = (
{
closed = 1;
nodes = (
"627 360 LINE",
"485 360 LINE",
"485 126 LINE",
"453 117 OFFCURVE",
"423 113 OFFCURVE",
"391 113 CURVE SMOOTH",
"265 113 OFFCURVE",
"194 202 OFFCURVE",
"194 357 CURVE SMOOTH",
"194 513 OFFCURVE",
"269 595 OFFCURVE",
"413 595 CURVE SMOOTH",
"464 595 OFFCURVE",
"511 583 OFFCURVE",
"578 555 CURVE",
"623 663 LINE",
"559 698 OFFCURVE",
"475 718 OFFCURVE",
"395 718 CURVE SMOOTH",
"167 718 OFFCURVE",
"37 586 OFFCURVE",
"37 354 CURVE SMOOTH",
"37 123 OFFCURVE",
"163 -8 OFFCURVE",
"383 -8 CURVE SMOOTH",
"464 -8 OFFCURVE",
"553 11 OFFCURVE",
"627 44 CURVE"
);
},
{
closed = 1;
nodes = (
"364 -220 LINE",
"408 -152 OFFCURVE",
"425 -109 OFFCURVE",
"433 -45 CURVE",
"315 -45 LINE",
"314 -107 OFFCURVE",
"305 -158 OFFCURVE",
"282 -220 CURVE"
);
}
);
width = 674;
}
);
unicode = 0122;
},
{
glyphname = uni0136;
lastChange = "2014-11-26 20:43:10 +0000";
layers = (
{
layerId = "06DA83F7-7F04-4345-A73D-275D0ED9D5E5";
name = Regular;
paths = (
{
closed = 1;
nodes = (
"189 708 LINE",
"93 708 LINE",
"93 0 LINE",
"189 0 LINE"
);
},
{
closed = 1;
nodes = (
"492 708 LINE",
"210 382 LINE",
"512 0 LINE",
"634 0 LINE",
"329 384 LINE",
"609 708 LINE"
);
},
{
closed = 1;
nodes = (
"294 -47 LINE",
"290 -107 OFFCURVE",
"282 -152 OFFCURVE",
"264 -215 CURVE",
"324 -215 LINE",
"366 -139 OFFCURVE",
"378 -105 OFFCURVE",
"388 -47 CURVE"
);
}
);
width = 641;
},
{
layerId = "6322FA20-8F24-49FB-9B55-AB1214B5D5A0";
name = Bold;
paths = (
{
closed = 1;
nodes = (
"234 709 LINE",
"81 709 LINE",
"81 0 LINE",
"234 0 LINE"
);
},
{
closed = 1;
nodes = (
"485 709 LINE",
"248 379 LINE",
"507 0 LINE",
"681 0 LINE",
"414 381 LINE",
"657 709 LINE"
);
},
{
closed = 1;
nodes = (
"310 -45 LINE",
"309 -107 OFFCURVE",
"300 -158 OFFCURVE",
"277 -220 CURVE",
"359 -220 LINE",
"403 -152 OFFCURVE",
"420 -109 OFFCURVE",
"428 -45 CURVE"
);
}
);
width = 683;
}
);
unicode = 0136;
},
{
glyphname = uni013B;
lastChange = "2014-11-26 20:43:10 +0000";
layers = (
{
layerId = "06DA83F7-7F04-4345-A73D-275D0ED9D5E5";
name = Regular;
paths = (
{
closed = 1;
nodes = (
"189 708 LINE",
"93 708 LINE",
"93 0 LINE",
"512 0 LINE",
"512 85 LINE",
"189 85 LINE"
);
},
{
closed = 1;
nodes = (
"286 -47 LINE",
"282 -107 OFFCURVE",
"274 -152 OFFCURVE",
"256 -215 CURVE",
"316 -215 LINE",
"358 -139 OFFCURVE",
"370 -105 OFFCURVE",
"380 -47 CURVE"
);
}
);
width = 523;
},
{
layerId = "6322FA20-8F24-49FB-9B55-AB1214B5D5A0";
name = Bold;
paths = (
{
closed = 1;
nodes = (
"227 709 LINE",
"81 709 LINE",
"81 0 LINE",
"525 0 LINE",
"525 116 LINE",
"227 116 LINE"
);
},
{
closed = 1;
nodes = (
"269 -45 LINE",
"268 -107 OFFCURVE",
"259 -158 OFFCURVE",
"236 -220 CURVE",
"318 -220 LINE",
"362 -152 OFFCURVE",
"379 -109 OFFCURVE",
"387 -45 CURVE"
);
}
);
width = 532;
}
);
unicode = 013B;
},
{
glyphname = uni0145;
lastChange = "2014-11-26 20:43:10 +0000";
layers = (
{
layerId = "06DA83F7-7F04-4345-A73D-275D0ED9D5E5";
name = Regular;
paths = (
{
closed = 1;
nodes = (
"644 708 LINE",
"553 708 LINE",
"553 154 LINE",
"515 216 OFFCURVE",
"478 277 OFFCURVE",
"436 336 CURVE SMOOTH",
"174 708 LINE",
"93 708 LINE",
"93 0 LINE",
"184 0 LINE",
"184 556 LINE",
"219 497 OFFCURVE",
"255 438 OFFCURVE",
"294 382 CURVE SMOOTH",
"563 0 LINE",
"644 0 LINE"
);
},
{
closed = 1;
nodes = (
"360 -215 LINE",
"402 -139 OFFCURVE",
"414 -105 OFFCURVE",
"424 -47 CURVE",
"330 -47 LINE",
"326 -107 OFFCURVE",
"318 -152 OFFCURVE",
"300 -215 CURVE"
);
}
);
width = 737;
},
{
layerId = "6322FA20-8F24-49FB-9B55-AB1214B5D5A0";
name = Bold;
paths = (
{
closed = 1;
nodes = (
"672 709 LINE",
"532 709 LINE",
"532 221 LINE",
"496 281 OFFCURVE",
"456 347 OFFCURVE",
"418 401 CURVE SMOOTH",
"202 709 LINE",
"81 709 LINE",
"81 0 LINE",
"220 0 LINE",
"220 491 LINE",
"255 432 OFFCURVE",
"294 366 OFFCURVE",
"330 314 CURVE SMOOTH",
"550 0 LINE",
"672 0 LINE"
);
},
{
closed = 1;
nodes = (
"380 -220 LINE",
"424 -152 OFFCURVE",
"441 -109 OFFCURVE",
"449 -45 CURVE",
"331 -45 LINE",
"330 -107 OFFCURVE",
"321 -158 OFFCURVE",
"298 -220 CURVE"
);
}
);
width = 752;
}
);
unicode = 0145;
},
{
glyphname = uni0156;
lastChange = "2014-11-26 20:43:10 +0000";
layers = (
{
layerId = "06DA83F7-7F04-4345-A73D-275D0ED9D5E5";
name = Regular;
paths = (
{
closed = 1;
nodes = (
"581 0 LINE",
"420 308 LINE",
"507 338 OFFCURVE",
"555 404 OFFCURVE",
"555 500 CURVE SMOOTH",
"555 635 OFFCURVE",
"467 708 OFFCURVE",
"302 708 CURVE SMOOTH",
"93 708 LINE",
"93 0 LINE",
"189 0 LINE",
"189 291 LINE",
"302 291 LINE",
"320 291 LINE",
"470 0 LINE"
);
},
{
closed = 1;
nodes = (
"189 376 LINE",
"189 623 LINE",
"302 623 LINE SMOOTH",
"406 623 OFFCURVE",
"455 583 OFFCURVE",
"455 500 CURVE SMOOTH",
"455 417 OFFCURVE",
"404 376 OFFCURVE",
"302 376 CURVE SMOOTH"
);
},
{
closed = 1;
nodes = (
"312 -215 LINE",
"354 -139 OFFCURVE",
"366 -105 OFFCURVE",
"376 -47 CURVE",
"282 -47 LINE",
"278 -107 OFFCURVE",
"270 -152 OFFCURVE",
"252 -215 CURVE"
);
}
);
width = 612;
},
{
layerId = "6322FA20-8F24-49FB-9B55-AB1214B5D5A0";
name = Bold;
paths = (
{
closed = 1;
nodes = (
"623 0 LINE",
"468 297 LINE",
"552 331 OFFCURVE",
"599 398 OFFCURVE",
"599 488 CURVE SMOOTH",
"599 632 OFFCURVE",
"500 709 OFFCURVE",
"324 709 CURVE SMOOTH",
"81 709 LINE",
"81 0 LINE",
"232 0 LINE",
"232 270 LINE",
"312 270 LINE",
"330 270 LINE",
"460 0 LINE"
);
},
{
closed = 1;
nodes = (
"232 380 LINE",
"232 596 LINE",
"318 596 LINE SMOOTH",
"405 596 OFFCURVE",
"447 564 OFFCURVE",
"447 488 CURVE SMOOTH",
"447 414 OFFCURVE",
"405 380 OFFCURVE",
"318 380 CURVE SMOOTH"
);
},
{
closed = 1;
nodes = (
"343 -220 LINE",
"387 -152 OFFCURVE",
"404 -109 OFFCURVE",
"412 -45 CURVE",
"294 -45 LINE",
"293 -107 OFFCURVE",
"284 -158 OFFCURVE",
"261 -220 CURVE"
);
}
);
width = 645;
}
);
unicode = 0156;
},
{
glyphname = uni0162;
lastChange = "2014-11-26 20:43:10 +0000";
layers = (
{
layerId = "06DA83F7-7F04-4345-A73D-275D0ED9D5E5";
name = Regular;
paths = (
{
closed = 1;
nodes = (
"310 0 LINE",
"325 0 LINE",
"325 623 LINE",
"532 623 LINE",
"532 708 LINE",
"10 708 LINE",
"10 623 LINE",
"229 623 LINE",
"229 0 LINE",
"268 0 LINE",
"230 -54 LINE",
"236 -75 LINE",
"276 -87 OFFCURVE",
"293 -102 OFFCURVE",
"293 -126 CURVE SMOOTH",
"293 -149 OFFCURVE",
"279 -162 OFFCURVE",
"255 -162 CURVE SMOOTH",
"238 -162 OFFCURVE",
"221 -157 OFFCURVE",
"209 -150 CURVE",
"191 -188 LINE",
"213 -201 OFFCURVE",
"244 -213 OFFCURVE",
"276 -213 CURVE SMOOTH",
"322 -213 OFFCURVE",
"361 -184 OFFCURVE",
"361 -128 CURVE SMOOTH",
"361 -94 OFFCURVE",
"332 -58 OFFCURVE",
"295 -45 CURVE"
);
}
);
width = 542;
},
{
layerId = "6322FA20-8F24-49FB-9B55-AB1214B5D5A0";
name = Bold;
paths = (
{
closed = 1;
nodes = (
"317 0 LINE",
"359 0 LINE",
"359 593 LINE",
"551 593 LINE",
"551 709 LINE",
"7 709 LINE",
"7 593 LINE",
"206 593 LINE",
"206 0 LINE",
"269 0 LINE",
"227 -56 LINE",
"237 -82 LINE",
"277 -91 OFFCURVE",
"294 -104 OFFCURVE",
"294 -124 CURVE SMOOTH",
"294 -144 OFFCURVE",
"280 -154 OFFCURVE",
"259 -154 CURVE SMOOTH",
"241 -154 OFFCURVE",
"221 -148 OFFCURVE",
"210 -142 CURVE",
"188 -189 LINE",
"212 -203 OFFCURVE",
"247 -216 OFFCURVE",
"283 -216 CURVE SMOOTH",
"333 -216 OFFCURVE",
"376 -187 OFFCURVE",
"376 -128 CURVE SMOOTH",
"376 -94 OFFCURVE",
"344 -58 OFFCURVE",
"302 -45 CURVE"
);
}
);
width = 558;
}
);
unicode = 0162;
},
{
glyphname = a;
lastChange = "2014-11-26 20:43:10 +0000";
layers = (
{
layerId = "06DA83F7-7F04-4345-A73D-275D0ED9D5E5";
name = Regular;
paths = (
{
closed = 1;
nodes = (
"194 522 OFFCURVE",
"124 506 OFFCURVE",
"64 478 CURVE",
"90 402 LINE",
"145 425 OFFCURVE",
"203 439 OFFCURVE",
"248 439 CURVE SMOOTH",
"320 439 OFFCURVE",
"358 403 OFFCURVE",
"361 329 CURVE",
"361 315 LINE",
"285 315 LINE SMOOTH",
"125 315 OFFCURVE",
"32 251 OFFCURVE",
"32 143 CURVE SMOOTH",
"32 50 OFFCURVE",
"98 -10 OFFCURVE",
"200 -10 CURVE SMOOTH",
"264 -10 OFFCURVE",
"320 14 OFFCURVE",
"369 60 CURVE",
"383 0 LINE",
"455 0 LINE",
"455 327 LINE SMOOTH",
"455 452 OFFCURVE",
"383 522 OFFCURVE",
"255 522 CURVE SMOOTH"
);
},
{
closed = 1;
nodes = (
"361 243 LINE",
"361 137 LINE",
"328 99 OFFCURVE",
"273 73 OFFCURVE",
"217 73 CURVE SMOOTH",
"160 73 OFFCURVE",
"126 99 OFFCURVE",
"126 146 CURVE SMOOTH",
"126 207 OFFCURVE",
"187 243 OFFCURVE",
"291 243 CURVE SMOOTH"
);
}
);
width = 524;
},
{
layerId = "6322FA20-8F24-49FB-9B55-AB1214B5D5A0";
name = Bold;
paths = (
{
closed = 1;
nodes = (
"203 534 OFFCURVE",
"124 518 OFFCURVE",
"54 490 CURVE",
"86 389 LINE",
"134 410 OFFCURVE",
"201 425 OFFCURVE",
"246 425 CURVE SMOOTH",
"312 425 OFFCURVE",
"347 395 OFFCURVE",
"349 334 CURVE SMOOTH",
"349 321 LINE",
"285 321 LINE SMOOTH",
"119 321 OFFCURVE",
"23 256 OFFCURVE",
"23 147 CURVE SMOOTH",
"23 52 OFFCURVE",
"91 -8 OFFCURVE",
"199 -8 CURVE SMOOTH",
"260 -8 OFFCURVE",
"316 17 OFFCURVE",
"358 62 CURVE",
"375 0 LINE",
"499 0 LINE",
"499 321 LINE SMOOTH",
"499 460 OFFCURVE",
"418 534 OFFCURVE",
"270 534 CURVE SMOOTH"
);
},
{
closed = 1;
nodes = (
"349 239 LINE",
"349 142 LINE",
"323 111 OFFCURVE",
"281 90 OFFCURVE",
"238 90 CURVE SMOOTH",
"190 90 OFFCURVE",
"163 113 OFFCURVE",
"163 156 CURVE SMOOTH",
"163 208 OFFCURVE",
"213 239 OFFCURVE",
"298 239 CURVE SMOOTH"
);
}
);
width = 556;
}
);
leftKerningGroup = a;
unicode = 0061;
},
{
glyphname = aacute;
lastChange = "2014-11-26 20:43:10 +0000";
layers = (
{
layerId = "06DA83F7-7F04-4345-A73D-275D0ED9D5E5";
name = Regular;
paths = (
{
closed = 1;
nodes = (
"345 765 LINE",
"212 601 LINE",
"249 567 LINE",
"405 703 LINE"
);
},
{
closed = 1;
nodes = (
"194 522 OFFCURVE",
"124 506 OFFCURVE",
"64 478 CURVE",
"90 402 LINE",
"145 425 OFFCURVE",
"203 439 OFFCURVE",
"248 439 CURVE SMOOTH",
"320 439 OFFCURVE",
"358 403 OFFCURVE",
"361 329 CURVE",
"361 315 LINE",
"285 315 LINE SMOOTH",
"125 315 OFFCURVE",
"32 251 OFFCURVE",
"32 143 CURVE SMOOTH",
"32 50 OFFCURVE",
"98 -10 OFFCURVE",
"200 -10 CURVE SMOOTH",
"264 -10 OFFCURVE",
"320 14 OFFCURVE",
"369 60 CURVE",
"383 0 LINE",
"455 0 LINE",
"455 327 LINE SMOOTH",
"455 452 OFFCURVE",
"383 522 OFFCURVE",
"255 522 CURVE SMOOTH"
);
},
{
closed = 1;
nodes = (
"361 243 LINE",
"361 137 LINE",
"328 99 OFFCURVE",
"273 73 OFFCURVE",
"217 73 CURVE SMOOTH",
"160 73 OFFCURVE",
"126 99 OFFCURVE",
"126 146 CURVE SMOOTH",
"126 207 OFFCURVE",
"187 243 OFFCURVE",
"291 243 CURVE SMOOTH"
);
}
);
width = 524;
},
{
layerId = "6322FA20-8F24-49FB-9B55-AB1214B5D5A0";
name = Bold;
paths = (
{
closed = 1;
nodes = (
"365 781 LINE",
"209 620 LINE",
"250 570 LINE",
"430 695 LINE"
);
},
{
closed = 1;
nodes = (
"203 534 OFFCURVE",
"124 518 OFFCURVE",
"54 490 CURVE",
"86 389 LINE",
"134 410 OFFCURVE",
"201 425 OFFCURVE",
"246 425 CURVE SMOOTH",
"312 425 OFFCURVE",
"347 395 OFFCURVE",
"349 334 CURVE SMOOTH",
"349 321 LINE",
"285 321 LINE SMOOTH",
"119 321 OFFCURVE",
"23 256 OFFCURVE",
"23 147 CURVE SMOOTH",
"23 52 OFFCURVE",
"91 -8 OFFCURVE",
"199 -8 CURVE SMOOTH",
"260 -8 OFFCURVE",
"316 17 OFFCURVE",
"358 62 CURVE",
"375 0 LINE",
"499 0 LINE",
"499 321 LINE SMOOTH",
"499 460 OFFCURVE",
"418 534 OFFCURVE",
"270 534 CURVE SMOOTH"
);
},
{
closed = 1;
nodes = (
"349 239 LINE",
"349 142 LINE",
"323 111 OFFCURVE",
"281 90 OFFCURVE",
"238 90 CURVE SMOOTH",
"190 90 OFFCURVE",
"163 113 OFFCURVE",
"163 156 CURVE SMOOTH",
"163 208 OFFCURVE",
"213 239 OFFCURVE",
"298 239 CURVE SMOOTH"
);
}
);
width = 556;
}
);
leftKerningGroup = a;
unicode = 00E1;
},
{
glyphname = abreve;
lastChange = "2014-11-26 20:43:10 +0000";
layers = (
{
layerId = "06DA83F7-7F04-4345-A73D-275D0ED9D5E5";
name = Regular;
paths = (
{
closed = 1;
nodes = (
"341 707 LINE",
"341 667 OFFCURVE",
"308 638 OFFCURVE",
"261 638 CURVE SMOOTH",
"213 638 OFFCURVE",
"182 665 OFFCURVE",
"182 707 CURVE",
"118 707 LINE",
"118 627 OFFCURVE",
"175 573 OFFCURVE",
"261 573 CURVE SMOOTH",
"347 573 OFFCURVE",
"405 627 OFFCURVE",
"405 707 CURVE"
);
},
{
closed = 1;
nodes = (
"194 522 OFFCURVE",
"124 506 OFFCURVE",
"64 478 CURVE",
"90 402 LINE",
"145 425 OFFCURVE",
"203 439 OFFCURVE",
"248 439 CURVE SMOOTH",
"320 439 OFFCURVE",
"358 403 OFFCURVE",
"361 329 CURVE",
"361 315 LINE",
"285 315 LINE SMOOTH",
"125 315 OFFCURVE",
"32 251 OFFCURVE",
"32 143 CURVE SMOOTH",
"32 50 OFFCURVE",
"98 -10 OFFCURVE",
"200 -10 CURVE SMOOTH",
"264 -10 OFFCURVE",
"320 14 OFFCURVE",
"369 60 CURVE",
"383 0 LINE",
"455 0 LINE",
"455 327 LINE SMOOTH",
"455 452 OFFCURVE",
"383 522 OFFCURVE",
"255 522 CURVE SMOOTH"
);
},
{
closed = 1;
nodes = (
"361 243 LINE",
"361 137 LINE",
"328 99 OFFCURVE",
"273 73 OFFCURVE",
"217 73 CURVE SMOOTH",
"160 73 OFFCURVE",
"126 99 OFFCURVE",
"126 146 CURVE SMOOTH",
"126 207 OFFCURVE",
"187 243 OFFCURVE",
"291 243 CURVE SMOOTH"
);
}
);
width = 524;
},
{
layerId = "6322FA20-8F24-49FB-9B55-AB1214B5D5A0";
name = Bold;
paths = (
{
closed = 1;
nodes = (
"351 718 LINE",
"351 679 OFFCURVE",
"322 652 OFFCURVE",
"278 652 CURVE SMOOTH",
"233 652 OFFCURVE",
"206 677 OFFCURVE",
"206 718 CURVE",
"121 718 LINE",
"121 630 OFFCURVE",
"182 573 OFFCURVE",
"278 573 CURVE SMOOTH",
"374 573 OFFCURVE",
"436 630 OFFCURVE",
"436 718 CURVE"
);
},
{
closed = 1;
nodes = (
"203 534 OFFCURVE",
"124 518 OFFCURVE",
"54 490 CURVE",
"86 389 LINE",
"134 410 OFFCURVE",
"201 425 OFFCURVE",
"246 425 CURVE SMOOTH",
"312 425 OFFCURVE",
"347 395 OFFCURVE",
"349 334 CURVE SMOOTH",
"349 321 LINE",
"285 321 LINE SMOOTH",
"119 321 OFFCURVE",
"23 256 OFFCURVE",
"23 147 CURVE SMOOTH",
"23 52 OFFCURVE",
"91 -8 OFFCURVE",
"199 -8 CURVE SMOOTH",
"260 -8 OFFCURVE",
"316 17 OFFCURVE",
"358 62 CURVE",
"375 0 LINE",
"499 0 LINE",
"499 321 LINE SMOOTH",
"499 460 OFFCURVE",
"418 534 OFFCURVE",
"270 534 CURVE SMOOTH"
);
},
{
closed = 1;
nodes = (
"349 239 LINE",
"349 142 LINE",
"323 111 OFFCURVE",
"281 90 OFFCURVE",
"238 90 CURVE SMOOTH",
"190 90 OFFCURVE",
"163 113 OFFCURVE",
"163 156 CURVE SMOOTH",
"163 208 OFFCURVE",
"213 239 OFFCURVE",
"298 239 CURVE SMOOTH"
);
}
);
width = 556;
}
);
leftKerningGroup = a;
unicode = 0103;
},
{
glyphname = acircumflex;
lastChange = "2014-11-26 20:43:10 +0000";
layers = (
{
layerId = "06DA83F7-7F04-4345-A73D-275D0ED9D5E5";
name = Regular;
paths = (
{
closed = 1;
nodes = (
"411 601 LINE",
"278 735 LINE",
"241 735 LINE",
"108 601 LINE",
"145 567 LINE",
"259 655 LINE",
"374 567 LINE"
);
},
{
closed = 1;
nodes = (
"194 522 OFFCURVE",
"124 506 OFFCURVE",
"64 478 CURVE",
"90 402 LINE",
"145 425 OFFCURVE",
"203 439 OFFCURVE",
"248 439 CURVE SMOOTH",
"320 439 OFFCURVE",
"358 403 OFFCURVE",
"361 329 CURVE",
"361 315 LINE",
"285 315 LINE SMOOTH",
"125 315 OFFCURVE",
"32 251 OFFCURVE",
"32 143 CURVE SMOOTH",
"32 50 OFFCURVE",
"98 -10 OFFCURVE",
"200 -10 CURVE SMOOTH",
"264 -10 OFFCURVE",
"320 14 OFFCURVE",
"369 60 CURVE",
"383 0 LINE",
"455 0 LINE",
"455 327 LINE SMOOTH",
"455 452 OFFCURVE",
"383 522 OFFCURVE",
"255 522 CURVE SMOOTH"
);
},
{
closed = 1;
nodes = (
"361 243 LINE",
"361 137 LINE",
"328 99 OFFCURVE",
"273 73 OFFCURVE",
"217 73 CURVE SMOOTH",
"160 73 OFFCURVE",
"126 99 OFFCURVE",
"126 146 CURVE SMOOTH",
"126 207 OFFCURVE",
"187 243 OFFCURVE",
"291 243 CURVE SMOOTH"
);
}
);
width = 524;
},
{
layerId = "6322FA20-8F24-49FB-9B55-AB1214B5D5A0";
name = Bold;
paths = (
{
closed = 1;
nodes = (
"449 617 LINE",
"293 758 LINE",
"262 758 LINE",
"106 617 LINE",
"147 567 LINE",
"277 654 LINE",
"408 567 LINE"
);
},
{
closed = 1;
nodes = (
"203 534 OFFCURVE",
"124 518 OFFCURVE",
"54 490 CURVE",
"86 389 LINE",
"134 410 OFFCURVE",
"201 425 OFFCURVE",
"246 425 CURVE SMOOTH",
"312 425 OFFCURVE",
"347 395 OFFCURVE",
"349 334 CURVE SMOOTH",
"349 321 LINE",
"285 321 LINE SMOOTH",
"119 321 OFFCURVE",
"23 256 OFFCURVE",
"23 147 CURVE SMOOTH",
"23 52 OFFCURVE",
"91 -8 OFFCURVE",
"199 -8 CURVE SMOOTH",
"260 -8 OFFCURVE",
"316 17 OFFCURVE",
"358 62 CURVE",
"375 0 LINE",
"499 0 LINE",
"499 321 LINE SMOOTH",
"499 460 OFFCURVE",
"418 534 OFFCURVE",
"270 534 CURVE SMOOTH"
);
},
{
closed = 1;
nodes = (
"349 239 LINE",
"349 142 LINE",
"323 111 OFFCURVE",
"281 90 OFFCURVE",
"238 90 CURVE SMOOTH",
"190 90 OFFCURVE",
"163 113 OFFCURVE",
"163 156 CURVE SMOOTH",
"163 208 OFFCURVE",
"213 239 OFFCURVE",
"298 239 CURVE SMOOTH"
);
}
);
width = 556;
}
);
leftKerningGroup = a;
unicode = 00E2;
},
{
glyphname = adieresis;
lastChange = "2014-11-26 20:43:10 +0000";
layers = (
{
layerId = "06DA83F7-7F04-4345-A73D-275D0ED9D5E5";
name = Regular;
paths = (
{
closed = 1;
nodes = (
"215 696 LINE",
"122 696 LINE",
"122 603 LINE",
"215 603 LINE"
);
},
{
closed = 1;
nodes = (
"396 696 LINE",
"304 696 LINE",
"304 603 LINE",
"396 603 LINE"
);
},
{
closed = 1;
nodes = (
"194 522 OFFCURVE",
"124 506 OFFCURVE",
"64 478 CURVE",
"90 402 LINE",
"145 425 OFFCURVE",
"203 439 OFFCURVE",
"248 439 CURVE SMOOTH",
"320 439 OFFCURVE",
"358 403 OFFCURVE",
"361 329 CURVE",
"361 315 LINE",
"285 315 LINE SMOOTH",
"125 315 OFFCURVE",
"32 251 OFFCURVE",
"32 143 CURVE SMOOTH",
"32 50 OFFCURVE",
"98 -10 OFFCURVE",
"200 -10 CURVE SMOOTH",
"264 -10 OFFCURVE",
"320 14 OFFCURVE",
"369 60 CURVE",
"383 0 LINE",
"455 0 LINE",
"455 327 LINE SMOOTH",
"455 452 OFFCURVE",
"383 522 OFFCURVE",
"255 522 CURVE SMOOTH"
);
},
{
closed = 1;
nodes = (
"361 243 LINE",
"361 137 LINE",
"328 99 OFFCURVE",
"273 73 OFFCURVE",
"217 73 CURVE SMOOTH",
"160 73 OFFCURVE",
"126 99 OFFCURVE",
"126 146 CURVE SMOOTH",
"126 207 OFFCURVE",
"187 243 OFFCURVE",
"291 243 CURVE SMOOTH"
);
}
);
width = 524;
},
{
layerId = "6322FA20-8F24-49FB-9B55-AB1214B5D5A0";
name = Bold;
paths = (
{
closed = 1;
nodes = (
"235 717 LINE",
"113 717 LINE",
"113 599 LINE",
"235 599 LINE"
);
},
{
closed = 1;
nodes = (
"441 717 LINE",
"320 717 LINE",
"320 599 LINE",
"441 599 LINE"
);
},
{
closed = 1;
nodes = (
"203 534 OFFCURVE",
"124 518 OFFCURVE",
"54 490 CURVE",
"86 389 LINE",
"134 410 OFFCURVE",
"201 425 OFFCURVE",
"246 425 CURVE SMOOTH",
"312 425 OFFCURVE",
"347 395 OFFCURVE",
"349 334 CURVE SMOOTH",
"349 321 LINE",
"285 321 LINE SMOOTH",
"119 321 OFFCURVE",
"23 256 OFFCURVE",
"23 147 CURVE SMOOTH",
"23 52 OFFCURVE",
"91 -8 OFFCURVE",
"199 -8 CURVE SMOOTH",
"260 -8 OFFCURVE",
"316 17 OFFCURVE",
"358 62 CURVE",
"375 0 LINE",
"499 0 LINE",
"499 321 LINE SMOOTH",
"499 460 OFFCURVE",
"418 534 OFFCURVE",
"270 534 CURVE SMOOTH"
);
},
{
closed = 1;
nodes = (
"349 239 LINE",
"349 142 LINE",
"323 111 OFFCURVE",
"281 90 OFFCURVE",
"238 90 CURVE SMOOTH",
"190 90 OFFCURVE",
"163 113 OFFCURVE",
"163 156 CURVE SMOOTH",
"163 208 OFFCURVE",
"213 239 OFFCURVE",
"298 239 CURVE SMOOTH"
);
}
);
width = 556;
}
);
leftKerningGroup = a;
unicode = 00E4;
},
{
glyphname = agrave;
lastChange = "2014-11-26 20:43:10 +0000";
layers = (
{
layerId = "06DA83F7-7F04-4345-A73D-275D0ED9D5E5";
name = Regular;
paths = (
{
closed = 1;
nodes = (
"291 601 LINE",
"158 765 LINE",
"98 703 LINE",
"254 567 LINE"
);
},
{
closed = 1;
nodes = (
"194 522 OFFCURVE",
"124 506 OFFCURVE",
"64 478 CURVE",
"90 402 LINE",
"145 425 OFFCURVE",
"203 439 OFFCURVE",
"248 439 CURVE SMOOTH",
"320 439 OFFCURVE",
"358 403 OFFCURVE",
"361 329 CURVE",
"361 315 LINE",
"285 315 LINE SMOOTH",
"125 315 OFFCURVE",
"32 251 OFFCURVE",
"32 143 CURVE SMOOTH",
"32 50 OFFCURVE",
"98 -10 OFFCURVE",
"200 -10 CURVE SMOOTH",
"264 -10 OFFCURVE",
"320 14 OFFCURVE",
"369 60 CURVE",
"383 0 LINE",
"455 0 LINE",
"455 327 LINE SMOOTH",
"455 452 OFFCURVE",
"383 522 OFFCURVE",
"255 522 CURVE SMOOTH"
);
},
{
closed = 1;
nodes = (
"361 243 LINE",
"361 137 LINE",
"328 99 OFFCURVE",
"273 73 OFFCURVE",
"217 73 CURVE SMOOTH",
"160 73 OFFCURVE",
"126 99 OFFCURVE",
"126 146 CURVE SMOOTH",
"126 207 OFFCURVE",
"187 243 OFFCURVE",
"291 243 CURVE SMOOTH"
);
}
);
width = 524;
},
{
layerId = "6322FA20-8F24-49FB-9B55-AB1214B5D5A0";
name = Bold;
paths = (
{
closed = 1;
nodes = (
"321 620 LINE",
"165 781 LINE",
"100 695 LINE",
"280 570 LINE"
);
},
{
closed = 1;
nodes = (
"203 534 OFFCURVE",
"124 518 OFFCURVE",
"54 490 CURVE",
"86 389 LINE",
"134 410 OFFCURVE",
"201 425 OFFCURVE",
"246 425 CURVE SMOOTH",
"312 425 OFFCURVE",
"347 395 OFFCURVE",
"349 334 CURVE SMOOTH",
"349 321 LINE",
"285 321 LINE SMOOTH",
"119 321 OFFCURVE",
"23 256 OFFCURVE",
"23 147 CURVE SMOOTH",
"23 52 OFFCURVE",
"91 -8 OFFCURVE",
"199 -8 CURVE SMOOTH",
"260 -8 OFFCURVE",
"316 17 OFFCURVE",
"358 62 CURVE",
"375 0 LINE",
"499 0 LINE",
"499 321 LINE SMOOTH",
"499 460 OFFCURVE",
"418 534 OFFCURVE",
"270 534 CURVE SMOOTH"
);
},
{
closed = 1;
nodes = (
"349 239 LINE",
"349 142 LINE",
"323 111 OFFCURVE",
"281 90 OFFCURVE",
"238 90 CURVE SMOOTH",
"190 90 OFFCURVE",
"163 113 OFFCURVE",
"163 156 CURVE SMOOTH",
"163 208 OFFCURVE",
"213 239 OFFCURVE",
"298 239 CURVE SMOOTH"
);
}
);
width = 556;
}
);
leftKerningGroup = a;
unicode = 00E0;
},
{
glyphname = amacron;
lastChange = "2014-11-26 20:43:10 +0000";
layers = (
{
layerId = "06DA83F7-7F04-4345-A73D-275D0ED9D5E5";
name = Regular;
paths = (
{
closed = 1;
nodes = (
"413 684 LINE",
"109 684 LINE",
"109 614 LINE",
"413 614 LINE"
);
},
{
closed = 1;
nodes = (
"194 522 OFFCURVE",
"124 506 OFFCURVE",
"64 478 CURVE",
"90 402 LINE",
"145 425 OFFCURVE",
"203 439 OFFCURVE",
"248 439 CURVE SMOOTH",
"320 439 OFFCURVE",
"358 403 OFFCURVE",
"361 329 CURVE",
"361 315 LINE",
"285 315 LINE SMOOTH",
"125 315 OFFCURVE",
"32 251 OFFCURVE",
"32 143 CURVE SMOOTH",
"32 50 OFFCURVE",
"98 -10 OFFCURVE",
"200 -10 CURVE SMOOTH",
"264 -10 OFFCURVE",
"320 14 OFFCURVE",
"369 60 CURVE",
"383 0 LINE",
"455 0 LINE",
"455 327 LINE SMOOTH",
"455 452 OFFCURVE",
"383 522 OFFCURVE",
"255 522 CURVE SMOOTH"
);
},
{
closed = 1;
nodes = (
"361 243 LINE",
"361 137 LINE",
"328 99 OFFCURVE",
"273 73 OFFCURVE",
"217 73 CURVE SMOOTH",
"160 73 OFFCURVE",
"126 99 OFFCURVE",
"126 146 CURVE SMOOTH",
"126 207 OFFCURVE",
"187 243 OFFCURVE",
"291 243 CURVE SMOOTH"
);
}
);
width = 524;
},
{
layerId = "6322FA20-8F24-49FB-9B55-AB1214B5D5A0";
name = Bold;
paths = (
{
closed = 1;
nodes = (
"443 702 LINE",
"113 702 LINE",
"113 609 LINE",
"443 609 LINE"
);
},
{
closed = 1;
nodes = (
"203 534 OFFCURVE",
"124 518 OFFCURVE",
"54 490 CURVE",
"86 389 LINE",
"134 410 OFFCURVE",
"201 425 OFFCURVE",
"246 425 CURVE SMOOTH",
"312 425 OFFCURVE",
"347 395 OFFCURVE",
"349 334 CURVE SMOOTH",
"349 321 LINE",
"285 321 LINE SMOOTH",
"119 321 OFFCURVE",
"23 256 OFFCURVE",
"23 147 CURVE SMOOTH",
"23 52 OFFCURVE",
"91 -8 OFFCURVE",
"199 -8 CURVE SMOOTH",
"260 -8 OFFCURVE",
"316 17 OFFCURVE",
"358 62 CURVE",
"375 0 LINE",
"499 0 LINE",
"499 321 LINE SMOOTH",
"499 460 OFFCURVE",
"418 534 OFFCURVE",
"270 534 CURVE SMOOTH"
);
},
{
closed = 1;
nodes = (
"349 239 LINE",
"349 142 LINE",
"323 111 OFFCURVE",
"281 90 OFFCURVE",
"238 90 CURVE SMOOTH",
"190 90 OFFCURVE",
"163 113 OFFCURVE",
"163 156 CURVE SMOOTH",
"163 208 OFFCURVE",
"213 239 OFFCURVE",
"298 239 CURVE SMOOTH"
);
}
);
width = 556;
}
);
leftKerningGroup = a;
unicode = 0101;
},
{
glyphname = aogonek;
lastChange = "2014-11-26 20:43:10 +0000";
layers = (
{
layerId = "06DA83F7-7F04-4345-A73D-275D0ED9D5E5";
name = Regular;
paths = (
{
closed = 1;
nodes = (
"263 -198 OFFCURVE",
"312 -225 OFFCURVE",
"359 -225 CURVE SMOOTH",
"397 -225 OFFCURVE",
"424 -215 OFFCURVE",
"454 -199 CURVE",
"440 -159 LINE",
"425 -165 OFFCURVE",
"408 -169 OFFCURVE",
"392 -169 CURVE SMOOTH",
"368 -169 OFFCURVE",
"346 -154 OFFCURVE",
"346 -121 CURVE SMOOTH",
"346 -67 OFFCURVE",
"393 -35 OFFCURVE",
"456 0 CURVE",
"456 327 LINE SMOOTH",
"456 452 OFFCURVE",
"384 522 OFFCURVE",
"257 522 CURVE SMOOTH",
"195 522 OFFCURVE",
"125 506 OFFCURVE",
"65 478 CURVE",
"91 402 LINE",
"146 426 OFFCURVE",
"204 439 OFFCURVE",
"249 439 CURVE SMOOTH",
"321 439 OFFCURVE",
"359 403 OFFCURVE",
"362 329 CURVE",
"362 315 LINE",
"286 315 LINE SMOOTH",
"126 315 OFFCURVE",
"33 251 OFFCURVE",
"33 141 CURVE SMOOTH",
"33 48 OFFCURVE",
"99 -12 OFFCURVE",
"202 -12 CURVE SMOOTH",
"265 -12 OFFCURVE",
"321 12 OFFCURVE",
"370 60 CURVE",
"374 53 OFFCURVE",
"377 44 OFFCURVE",
"377 35 CURVE SMOOTH",
"377 11 OFFCURVE",
"346 -13 OFFCURVE",
"324 -30 CURVE SMOOTH",
"287 -58 OFFCURVE",
"263 -95 OFFCURVE",
"263 -132 CURVE SMOOTH"
);
},
{
closed = 1;
nodes = (
"362 137 LINE",
"329 97 OFFCURVE",
"273 71 OFFCURVE",
"220 71 CURVE SMOOTH",
"160 71 OFFCURVE",
"127 97 OFFCURVE",
"127 143 CURVE SMOOTH",
"127 207 OFFCURVE",
"187 243 OFFCURVE",
"292 243 CURVE SMOOTH",
"362 243 LINE"
);
}
);
width = 525;
},
{
layerId = "6322FA20-8F24-49FB-9B55-AB1214B5D5A0";
name = Bold;
paths = (
{
closed = 1;
nodes = (
"275 -195 OFFCURVE",
"323 -225 OFFCURVE",
"378 -225 CURVE SMOOTH",
"424 -225 OFFCURVE",
"457 -214 OFFCURVE",
"499 -192 CURVE",
"481 -141 LINE",
"466 -148 OFFCURVE",
"448 -152 OFFCURVE",
"433 -152 CURVE SMOOTH",
"410 -152 OFFCURVE",
"392 -138 OFFCURVE",
"392 -109 CURVE SMOOTH",
"392 -65 OFFCURVE",
"430 -27 OFFCURVE",
"500 0 CURVE",
"500 328 LINE SMOOTH",
"500 460 OFFCURVE",
"419 531 OFFCURVE",
"272 531 CURVE SMOOTH",
"205 531 OFFCURVE",
"127 516 OFFCURVE",
"56 487 CURVE",
"87 389 LINE",
"136 410 OFFCURVE",
"203 425 OFFCURVE",
"248 425 CURVE SMOOTH",
"314 425 OFFCURVE",
"348 395 OFFCURVE",
"350 334 CURVE SMOOTH",
"350 321 LINE",
"286 321 LINE SMOOTH",
"121 321 OFFCURVE",
"25 256 OFFCURVE",
"25 145 CURVE SMOOTH",
"25 50 OFFCURVE",
"93 -10 OFFCURVE",
"201 -10 CURVE SMOOTH",
"261 -10 OFFCURVE",
"317 16 OFFCURVE",
"360 62 CURVE",
"369 52 OFFCURVE",
"373 40 OFFCURVE",
"373 29 CURVE SMOOTH",
"373 5 OFFCURVE",
"348 -18 OFFCURVE",
"330 -32 CURVE SMOOTH",
"297 -59 OFFCURVE",
"275 -95 OFFCURVE",
"275 -131 CURVE SMOOTH"
);
},
{
closed = 1;
nodes = (
"350 142 LINE",
"325 109 OFFCURVE",
"282 88 OFFCURVE",
"241 88 CURVE SMOOTH",
"191 88 OFFCURVE",
"165 111 OFFCURVE",
"165 154 CURVE SMOOTH",
"165 211 OFFCURVE",
"211 241 OFFCURVE",
"296 241 CURVE SMOOTH",
"350 241 LINE"
);
}
);
width = 558;
}
);
leftKerningGroup = a;
unicode = 0105;
},
{
glyphname = aring;
lastChange = "2014-11-26 20:43:10 +0000";
layers = (
{
layerId = "06DA83F7-7F04-4345-A73D-275D0ED9D5E5";
name = Regular;
paths = (
{
closed = 1;
nodes = (
"187 826 OFFCURVE",
"126 767 OFFCURVE",
"126 697 CURVE SMOOTH",
"126 627 OFFCURVE",
"187 568 OFFCURVE",
"260 568 CURVE SMOOTH",
"333 568 OFFCURVE",
"394 627 OFFCURVE",
"394 697 CURVE SMOOTH",
"394 767 OFFCURVE",
"333 826 OFFCURVE",
"260 826 CURVE SMOOTH"
);
},
{
closed = 1;
nodes = (
"295 760 OFFCURVE",
"323 732 OFFCURVE",
"323 697 CURVE SMOOTH",
"323 662 OFFCURVE",
"295 633 OFFCURVE",
"260 633 CURVE SMOOTH",
"225 633 OFFCURVE",
"196 662 OFFCURVE",
"196 697 CURVE SMOOTH",
"196 732 OFFCURVE",
"225 760 OFFCURVE",
"260 760 CURVE SMOOTH"
);
},
{
closed = 1;
nodes = (
"194 522 OFFCURVE",
"124 506 OFFCURVE",
"64 478 CURVE",
"90 402 LINE",
"145 425 OFFCURVE",
"203 439 OFFCURVE",
"248 439 CURVE SMOOTH",
"320 439 OFFCURVE",
"358 403 OFFCURVE",
"361 329 CURVE",
"361 315 LINE",
"285 315 LINE SMOOTH",
"125 315 OFFCURVE",
"32 251 OFFCURVE",
"32 143 CURVE SMOOTH",
"32 50 OFFCURVE",
"98 -10 OFFCURVE",
"200 -10 CURVE SMOOTH",
"264 -10 OFFCURVE",
"320 14 OFFCURVE",
"369 60 CURVE",
"383 0 LINE",
"455 0 LINE",
"455 327 LINE SMOOTH",
"455 452 OFFCURVE",
"383 522 OFFCURVE",
"255 522 CURVE SMOOTH"
);
},
{
closed = 1;
nodes = (
"361 243 LINE",
"361 137 LINE",
"328 99 OFFCURVE",
"273 73 OFFCURVE",
"217 73 CURVE SMOOTH",
"160 73 OFFCURVE",
"126 99 OFFCURVE",
"126 146 CURVE SMOOTH",
"126 207 OFFCURVE",
"187 243 OFFCURVE",
"291 243 CURVE SMOOTH"
);
}
);
width = 524;
},
{
layerId = "6322FA20-8F24-49FB-9B55-AB1214B5D5A0";
name = Bold;
paths = (
{
closed = 1;
nodes = (
"202 838 OFFCURVE",
"139 777 OFFCURVE",
"139 705 CURVE SMOOTH",
"139 633 OFFCURVE",
"202 572 OFFCURVE",
"278 572 CURVE SMOOTH",
"353 572 OFFCURVE",
"416 633 OFFCURVE",
"416 705 CURVE SMOOTH",
"416 777 OFFCURVE",
"353 838 OFFCURVE",
"278 838 CURVE SMOOTH"
);
},
{
closed = 1;
nodes = (
"312 762 OFFCURVE",
"335 737 OFFCURVE",
"335 705 CURVE SMOOTH",
"335 673 OFFCURVE",
"311 646 OFFCURVE",
"278 646 CURVE SMOOTH",
"244 646 OFFCURVE",
"219 673 OFFCURVE",
"219 705 CURVE SMOOTH",
"219 737 OFFCURVE",
"243 762 OFFCURVE",
"278 762 CURVE SMOOTH"
);
},
{
closed = 1;
nodes = (
"203 534 OFFCURVE",
"124 518 OFFCURVE",
"54 490 CURVE",
"86 389 LINE",
"134 410 OFFCURVE",
"201 425 OFFCURVE",
"246 425 CURVE SMOOTH",
"312 425 OFFCURVE",
"347 395 OFFCURVE",
"349 334 CURVE SMOOTH",
"349 321 LINE",
"285 321 LINE SMOOTH",
"119 321 OFFCURVE",
"23 256 OFFCURVE",
"23 147 CURVE SMOOTH",
"23 52 OFFCURVE",
"91 -8 OFFCURVE",
"199 -8 CURVE SMOOTH",
"260 -8 OFFCURVE",
"316 17 OFFCURVE",
"358 62 CURVE",
"375 0 LINE",
"499 0 LINE",
"499 321 LINE SMOOTH",
"499 460 OFFCURVE",
"418 534 OFFCURVE",
"270 534 CURVE SMOOTH"
);
},
{
closed = 1;
nodes = (
"349 239 LINE",
"349 142 LINE",
"323 111 OFFCURVE",
"281 90 OFFCURVE",
"238 90 CURVE SMOOTH",
"190 90 OFFCURVE",
"163 113 OFFCURVE",
"163 156 CURVE SMOOTH",
"163 208 OFFCURVE",
"213 239 OFFCURVE",
"298 239 CURVE SMOOTH"
);
}
);
width = 556;
}
);
leftKerningGroup = a;
unicode = 00E5;
},
{
glyphname = aringacute;
lastChange = "2014-11-26 20:43:10 +0000";
layers = (
{
layerId = "06DA83F7-7F04-4345-A73D-275D0ED9D5E5";
name = Regular;
paths = (
{
closed = 1;
nodes = (
"335 568 OFFCURVE",
"396 627 OFFCURVE",
"396 697 CURVE SMOOTH",
"396 757 OFFCURVE",
"352 808 OFFCURVE",
"293 822 CURVE",
"345 867 LINE",
"285 929 LINE",
"177 796 LINE",
"147 772 OFFCURVE",
"128 736 OFFCURVE",
"128 697 CURVE SMOOTH",
"128 627 OFFCURVE",
"189 568 OFFCURVE",
"262 568 CURVE SMOOTH"
);
},
{
closed = 1;
nodes = (
"325 662 OFFCURVE",
"297 633 OFFCURVE",
"262 633 CURVE SMOOTH",
"227 633 OFFCURVE",
"198 662 OFFCURVE",
"198 697 CURVE SMOOTH",
"198 732 OFFCURVE",
"227 760 OFFCURVE",
"262 760 CURVE SMOOTH",
"297 760 OFFCURVE",
"325 732 OFFCURVE",
"325 697 CURVE SMOOTH"
);
},
{
closed = 1;
nodes = (
"194 522 OFFCURVE",
"124 506 OFFCURVE",
"64 478 CURVE",
"90 402 LINE",
"145 425 OFFCURVE",
"203 439 OFFCURVE",
"248 439 CURVE SMOOTH",
"320 439 OFFCURVE",
"358 403 OFFCURVE",
"361 329 CURVE",
"361 315 LINE",
"285 315 LINE SMOOTH",
"125 315 OFFCURVE",
"32 251 OFFCURVE",
"32 143 CURVE SMOOTH",
"32 50 OFFCURVE",
"98 -10 OFFCURVE",
"200 -10 CURVE SMOOTH",
"264 -10 OFFCURVE",
"320 14 OFFCURVE",
"369 60 CURVE",
"383 0 LINE",
"455 0 LINE",
"455 327 LINE SMOOTH",
"455 452 OFFCURVE",
"383 522 OFFCURVE",
"255 522 CURVE SMOOTH"
);
},
{
closed = 1;
nodes = (
"361 243 LINE",
"361 137 LINE",
"328 99 OFFCURVE",
"273 73 OFFCURVE",
"217 73 CURVE SMOOTH",
"160 73 OFFCURVE",
"126 99 OFFCURVE",
"126 146 CURVE SMOOTH",
"126 207 OFFCURVE",
"187 243 OFFCURVE",
"291 243 CURVE SMOOTH"
);
}
);
width = 524;
},
{
layerId = "6322FA20-8F24-49FB-9B55-AB1214B5D5A0";
name = Bold;
paths = (
{
closed = 1;
nodes = (
"354 568 OFFCURVE",
"417 629 OFFCURVE",
"417 702 CURVE SMOOTH",
"417 759 OFFCURVE",
"377 809 OFFCURVE",
"324 828 CURVE",
"382 868 LINE",
"320 935 LINE",
"201 812 LINE",
"164 787 OFFCURVE",
"140 747 OFFCURVE",
"140 702 CURVE SMOOTH",
"140 629 OFFCURVE",
"203 568 OFFCURVE",
"279 568 CURVE SMOOTH"
);
},
{
closed = 1;
nodes = (
"245 643 OFFCURVE",
"220 670 OFFCURVE",
"220 701 CURVE SMOOTH",
"220 734 OFFCURVE",
"244 759 OFFCURVE",
"279 759 CURVE SMOOTH",
"313 759 OFFCURVE",
"336 734 OFFCURVE",
"336 701 CURVE SMOOTH",
"336 670 OFFCURVE",
"312 643 OFFCURVE",
"279 643 CURVE SMOOTH"
);
},
{
closed = 1;
nodes = (
"203 534 OFFCURVE",
"124 518 OFFCURVE",
"54 490 CURVE",
"86 389 LINE",
"134 410 OFFCURVE",
"201 425 OFFCURVE",
"246 425 CURVE SMOOTH",
"312 425 OFFCURVE",
"347 395 OFFCURVE",
"349 334 CURVE SMOOTH",
"349 321 LINE",
"285 321 LINE SMOOTH",
"119 321 OFFCURVE",
"23 256 OFFCURVE",
"23 147 CURVE SMOOTH",
"23 52 OFFCURVE",
"91 -8 OFFCURVE",
"199 -8 CURVE SMOOTH",
"260 -8 OFFCURVE",
"316 17 OFFCURVE",
"358 62 CURVE",
"375 0 LINE",
"499 0 LINE",
"499 321 LINE SMOOTH",
"499 460 OFFCURVE",
"418 534 OFFCURVE",
"270 534 CURVE SMOOTH"
);
},
{
closed = 1;
nodes = (
"349 239 LINE",
"349 142 LINE",
"323 111 OFFCURVE",
"281 90 OFFCURVE",
"238 90 CURVE SMOOTH",
"190 90 OFFCURVE",
"163 113 OFFCURVE",
"163 156 CURVE SMOOTH",
"163 208 OFFCURVE",
"213 239 OFFCURVE",
"298 239 CURVE SMOOTH"
);
}
);
width = 556;
}
);
leftKerningGroup = a;
unicode = 01FB;
},
{
glyphname = atilde;
lastChange = "2014-11-26 20:43:10 +0000";
layers = (
{
layerId = "06DA83F7-7F04-4345-A73D-275D0ED9D5E5";
name = Regular;
paths = (
{
closed = 1;
nodes = (
"120 718 OFFCURVE",
"76 671 OFFCURVE",
"76 599 CURVE",
"140 599 LINE",
"140 630 OFFCURVE",
"159 649 OFFCURVE",
"188 649 CURVE SMOOTH",
"240 649 OFFCURVE",
"252 590 OFFCURVE",
"328 590 CURVE SMOOTH",
"393 590 OFFCURVE",
"436 637 OFFCURVE",
"436 709 CURVE",
"372 709 LINE",
"372 679 OFFCURVE",
"356 660 OFFCURVE",
"331 660 CURVE SMOOTH",
"275 660 OFFCURVE",
"267 718 OFFCURVE",
"189 718 CURVE SMOOTH"
);
},
{
closed = 1;
nodes = (
"194 522 OFFCURVE",
"124 506 OFFCURVE",
"64 478 CURVE",
"90 402 LINE",
"145 425 OFFCURVE",
"203 439 OFFCURVE",
"248 439 CURVE SMOOTH",
"320 439 OFFCURVE",
"358 403 OFFCURVE",
"361 329 CURVE",
"361 315 LINE",
"285 315 LINE SMOOTH",
"125 315 OFFCURVE",
"32 251 OFFCURVE",
"32 143 CURVE SMOOTH",
"32 50 OFFCURVE",
"98 -10 OFFCURVE",
"200 -10 CURVE SMOOTH",
"264 -10 OFFCURVE",
"320 14 OFFCURVE",
"369 60 CURVE",
"383 0 LINE",
"455 0 LINE",
"455 327 LINE SMOOTH",
"455 452 OFFCURVE",
"383 522 OFFCURVE",
"255 522 CURVE SMOOTH"
);
},
{
closed = 1;
nodes = (
"361 243 LINE",
"361 137 LINE",
"328 99 OFFCURVE",
"273 73 OFFCURVE",
"217 73 CURVE SMOOTH",
"160 73 OFFCURVE",
"126 99 OFFCURVE",
"126 146 CURVE SMOOTH",
"126 207 OFFCURVE",
"187 243 OFFCURVE",
"291 243 CURVE SMOOTH"
);
}
);
width = 524;
},
{
layerId = "6322FA20-8F24-49FB-9B55-AB1214B5D5A0";
name = Bold;
paths = (
{
closed = 1;
nodes = (
"125 743 OFFCURVE",
"76 689 OFFCURVE",
"76 601 CURVE",
"161 601 LINE",
"161 637 OFFCURVE",
"179 658 OFFCURVE",
"207 658 CURVE SMOOTH",
"253 658 OFFCURVE",
"273 590 OFFCURVE",
"350 590 CURVE SMOOTH",
"425 590 OFFCURVE",
"474 646 OFFCURVE",
"474 732 CURVE",
"390 732 LINE",
"390 698 OFFCURVE",
"374 676 OFFCURVE",
"349 676 CURVE SMOOTH",
"293 676 OFFCURVE",
"285 743 OFFCURVE",
"203 743 CURVE SMOOTH"
);
},
{
closed = 1;
nodes = (
"203 534 OFFCURVE",
"124 518 OFFCURVE",
"54 490 CURVE",
"86 389 LINE",
"134 410 OFFCURVE",
"201 425 OFFCURVE",
"246 425 CURVE SMOOTH",
"312 425 OFFCURVE",
"347 395 OFFCURVE",
"349 334 CURVE SMOOTH",
"349 321 LINE",
"285 321 LINE SMOOTH",
"119 321 OFFCURVE",
"23 256 OFFCURVE",
"23 147 CURVE SMOOTH",
"23 52 OFFCURVE",
"91 -8 OFFCURVE",
"199 -8 CURVE SMOOTH",
"260 -8 OFFCURVE",
"316 17 OFFCURVE",
"358 62 CURVE",
"375 0 LINE",
"499 0 LINE",
"499 321 LINE SMOOTH",
"499 460 OFFCURVE",
"418 534 OFFCURVE",
"270 534 CURVE SMOOTH"
);
},
{
closed = 1;
nodes = (
"349 239 LINE",
"349 142 LINE",
"323 111 OFFCURVE",
"281 90 OFFCURVE",
"238 90 CURVE SMOOTH",
"190 90 OFFCURVE",
"163 113 OFFCURVE",
"163 156 CURVE SMOOTH",
"163 208 OFFCURVE",
"213 239 OFFCURVE",
"298 239 CURVE SMOOTH"
);
}
);
width = 556;
}
);
leftKerningGroup = a;
unicode = 00E3;
},
